<?xml version="1.0" encoding="utf-8"?>
<!-- Generator: Adobe Illustrator 19.2.1, SVG Export Plug-In . SVG Version: 6.00 Build 0)  -->
<svg version="1.1" id="Layer_1" xmlns:sketch="http://www.bohemiancoding.com/sketch/ns"
	 xmlns="http://www.w3.org/2000/svg" xmlns:xlink="http://www.w3.org/1999/xlink" x="0px" y="0px" viewBox="0 0 1020 793"
	 style="enable-background:new 0 0 1020 793;" xml:space="preserve">
<style type="text/css">
	.st0{fill:#FFFFFF;stroke:#4A4A4A;stroke-width:3;}
	.st1{fill:none;stroke:#4A4A4A;stroke-width:3;stroke-linecap:square;}
	.st2{fill:#4A4A4A;}
	.st3{font-family:'Georgia';}
	.st4{font-size:16px;}
	.st5{font-size:14px;}
	.st6{font-size:18px;}
</style>
<title>Business Model Canvas 2</title>
<desc>Created with Sketch.</desc>
<g id="Page-1" sketch:type="MSPage">
	<g id="Canvas" transform="translate(10.000000, 12.000000)" sketch:type="MSLayerGroup">
		<rect id="Rectangle-1" y="70" sketch:type="MSShapeGroup" class="st0" width="1000" height="700">
		</rect>
		<path id="Line" sketch:type="MSShapeGroup" class="st1" d="M2.5,572.5h994"/>
		<path id="Line_1_" sketch:type="MSShapeGroup" class="st1" d="M200.5,341.3h200"/>
		<path id="Line_2_" sketch:type="MSShapeGroup" class="st1" d="M600.5,339.3h200"/>
		<path id="Line_3_" sketch:type="MSShapeGroup" class="st1" d="M200.5,72.5v500"/>
		<path id="Line_4_" sketch:type="MSShapeGroup" class="st1" d="M400.5,72.5v500"/>
		<path id="Line_5_" sketch:type="MSShapeGroup" class="st1" d="M499.5,572.5l-1,196"/>
		<path id="Line_6_" sketch:type="MSShapeGroup" class="st1" d="M600.2,72.5l0.3,500"/>
		<path id="Line_7_" sketch:type="MSShapeGroup" class="st1" d="M800.5,73.5l1,499"/>
		<text transform="matrix(1 0 0 1 20 106)" class="st2 st3 st4">Key</text>
		<text transform="matrix(1 0 0 1 46.7188 106)" class="st2 st3 st4"> </text>
		<text transform="matrix(1 0 0 1 20 125)" class="st2 st3 st4">Partners</text>
		<text transform="matrix(1 0 0 1 220 106)" class="st2 st3 st4">Key</text>
		<text transform="matrix(1 0 0 1 246.7188 106)" class="st2 st3 st4"> </text>
		<text transform="matrix(1 0 0 1 220 125)" class="st2 st3 st4">Activities</text>
		<text transform="matrix(1 0 0 1 20 606)" class="st2 st3 st4">Cost</text>
		<text transform="matrix(1 0 0 1 51.3359 606)" class="st2 st3 st4"> </text>
		<text transform="matrix(1 0 0 1 20 625)" class="st2 st3 st4">Structure</text>
		<text transform="matrix(1 0 0 1 519 606)" class="st2 st3 st4">Revenue</text>
		<text transform="matrix(1 0 0 1 580.0313 606)" class="st2 st3 st4"> </text>
		<text transform="matrix(1 0 0 1 519 625)" class="st2 st3 st4">Streams</text>
		<text transform="matrix(1 0 0 1 219 377)" class="st2 st3 st4">Key</text>
		<text transform="matrix(1 0 0 1 245.7188 377)" class="st2 st3 st4"> </text>
		<text transform="matrix(1 0 0 1 219 396)" class="st2 st3 st4">Resources</text>
		<text transform="matrix(1 0 0 1 420 99)" class="st2 st3 st4">Value</text>
		<text transform="matrix(1 0 0 1 460.2422 99)" class="st2 st3 st4"> </text>
		<text transform="matrix(1 0 0 1 420 118)" class="st2 st3 st4">Proposition</text>
		<text transform="matrix(1 0 0 1 619 93)" class="st2 st3 st4">Customer</text>
		<text transform="matrix(1 0 0 1 687.9219 93)" class="st2 st3 st4"> </text>
		<text transform="matrix(1 0 0 1 619 112)" class="st2 st3 st4">Relationships</text>
		<text transform="matrix(1 0 0 1 619 369)" class="st2 st3 st4">Channels</text>
		<text transform="matrix(1 0 0 1 813 93)" class="st2 st3 st4">Customer</text>
		<text transform="matrix(1 0 0 1 881.9219 93)" class="st2 st3 st4"> </text>
		<text transform="matrix(1 0 0 1 813 112)" class="st2 st3 st4">Segments</text>
		<g id="compromise1" transform="translate(150.000000, 81.000000)" sketch:type="MSShapeGroup">
			<path id="Shape" class="st2" d="M27,5.3c-2.6,0-5.1,0.8-7.1,2.2c-1.2-0.8-2.6-1.5-4.1-1.8l0.8-1.3c0.2-0.4,0.2-1,0-1.3l-1.3-2.2
				C14.9,0.4,14.4,0,14,0h-2.7c-0.4,0-0.9,0.4-1.2,0.8L8.8,3.1c-0.2,0.4-0.2,0.9,0,1.3l0.8,1.3C4,7.1-0.2,12.2-0.2,18.3
				c0,7.2,5.8,13,12.9,13c2.6,0,5.1-0.8,7.1-2.2c2,1.4,4.5,2.2,7.1,2.2c7.1,0,12.9-5.8,12.9-13S34.1,5.3,27,5.3L27,5.3z M19.8,24.2
				c-1.3-1.6-2.1-3.7-2.1-6s0.8-4.4,2.1-6c1.3,1.6,2.1,3.7,2.1,6S21.2,22.6,19.8,24.2L19.8,24.2z M12.7,27.6c-5.1,0-9.3-4.2-9.3-9.4
				s4.2-9.4,9.3-9.4c1.6,0,3.1,0.4,4.4,1.1c-1.8,2.2-2.9,5.1-2.9,8.3s1.1,6,2.9,8.3C15.8,27.2,14.3,27.6,12.7,27.6L12.7,27.6z
				 M27,27.6c-1.6,0-3.1-0.4-4.4-1.1c1.8-2.2,3-5.1,3-8.3s-1.1-6-3-8.3c1.3-0.7,2.8-1.1,4.4-1.1c5.1,0,9.3,4.2,9.3,9.4
				S32.1,27.6,27,27.6L27,27.6z"/>
		</g>
		<g id="person128" transform="translate(351.000000, 81.000000)" sketch:type="MSShapeGroup">
			<g id="Group">
				<path id="Shape_1_" class="st2" d="M20.4,15.7H0v2.2h1.7v19.9h14.4V17.9h4.2V15.7z"/>
				<path id="Shape_2_" class="st2" d="M30.9,25.7C30.9,25.7,30.9,25.7,30.9,25.7c2.7,0.1,4.2-0.7,4.4-2.8l1.1-9.8
					c0.2-1.8-1.2-3.2-2.7-3.7l0,0c0,0-0.5-0.2-1-0.2c-0.5-0.1-1,0-1,0c-1.1,0.1-2.2,0.9-2.2,0.9c-2.1,1.5-5.3,1.8-9.5,1
					c-1.1-0.2-2.1,0.5-2.3,1.6c-0.2,1.1,0.5,2.1,1.6,2.3c1.8,0.4,3.4,0.5,5,0.5c1.4,0,2.6-0.2,3.8-0.5l0,0.1l-0.7,6.2
					c-3.6,0.1-5.9,0.9-6.7,2.2c-1.2,1.8-3.2,9.3-3.7,11.5c-0.3,1.2,0.4,2.4,1.6,2.7c0.2,0,0.4,0.1,0.5,0.1c1,0,1.9-0.7,2.1-1.7
					c1-4,2.4-8.2,3-9.5C24.6,25.6,28.1,25.5,30.9,25.7L30.9,25.7z"/>
				<ellipse id="Oval" class="st2" cx="32.2" cy="4.4" rx="4.4" ry="4.4"/>
				<path id="Shape_3_" class="st2" d="M39.4,21.4l0.6-7.7c0,0,0-0.1,0-0.1c0,0-0.1,0-0.1,0h-2.4c-0.1,0-0.2,0.1-0.2,0.2l-0.5,7.7
					c-0.1,2.4-0.8,5.3-4.7,5.3c-0.1,0-4.4,0-4.4,0h0c0,0-0.1,0-0.1,0c0,0,0,0.1,0,0.1v2.4c0,0.1,0.1,0.2,0.2,0.2l4,0v5.4h-1.2
					c-1.6,0-3,1.4-3,3.1c0,0.1,0.1,0.2,0.2,0.2h1.6c0.1,0,0.2-0.1,0.2-0.2c0-0.6,0.5-1.2,1.1-1.2h5.1c0.6,0,1.1,0.5,1.1,1.2
					c0,0.1,0.1,0.2,0.2,0.2h1.6c0.1,0,0.2-0.1,0.2-0.2c0-1.7-1.4-3.1-3-3.1h-1.2V29C38.2,28.9,39.1,25,39.4,21.4L39.4,21.4z"/>
				<path id="Shape_4_" class="st2" d="M16.6,13.4H9.1L6.6,4.1C6.6,4,6.5,3.9,6.4,4L5.1,4.3c0,0-0.1,0-0.1,0.1c0,0,0,0.1,0,0.1
					l2.8,10.4C7.8,15,7.9,15,7.9,15h8.6c0.1,0,0.1-0.1,0.1-0.1v-1.4C16.7,13.4,16.6,13.4,16.6,13.4L16.6,13.4z"/>
			</g>
		</g>
		<g id="businessman116" transform="translate(351.000000, 351.000000)" sketch:type="MSShapeGroup">
			<g id="Group_1_">
				<path id="Shape_5_" class="st2" d="M34,14.8c1.7,0,3-1.4,3-3.1s-1.4-3.1-3-3.1c-1.7,0-3,1.4-3,3.1S32.3,14.8,34,14.8L34,14.8z"
					/>
				<path id="Shape_6_" class="st2" d="M36,15.5c-0.1,0-0.1-0.1-0.2-0.1c-0.3-0.2-0.7-0.4-1.1-0.5L34,15.7l-0.7-0.8c0,0,0,0,0,0
					c-0.4,0.1-0.8,0.3-1.1,0.5c-0.1,0-0.1,0.1-0.2,0.1c-2.3,1.5-3.7,2.6-4.1,9.4c0,0.7,0.5,1.2,1.1,1.3c0,0,0.1,0,0.1,0
					c0.6,0,1.1-0.5,1.2-1.1c0.1-2.3,0.4-3.8,0.7-4.8v4.1c0,0.3,0.1,0.6,0.2,0.9c0,0.1,0,0.1,0,0.2l0,11.4c0,0.8,0.6,1.4,1.4,1.4
					c0.8,0,1.4-0.6,1.4-1.4l0-9.8c0.1,0,0.1,0,0.2,0c0,0,0,0,0,0v9.8c0,0.8,0.6,1.4,1.4,1.4c0.8,0,1.4-0.6,1.4-1.4l0-11.4
					c0.2-0.3,0.3-0.7,0.3-1.2v-4.1c0.3,1,0.5,2.5,0.7,4.8c0,0.6,0.6,1.1,1.2,1.1c0,0,0,0,0.1,0c0.6,0,1.1-0.6,1.1-1.3
					C39.7,18.1,38.4,17,36,15.5L36,15.5z M34,21.8L34,21.8l-0.7-1l0.7-5h0l0.7,5L34,21.8L34,21.8z"/>
				<path id="Shape_7_" class="st2" d="M2,17.4c0,1.2,1,2.2,2.1,2.2c1.2,0,2.1-1,2.1-2.2s-1-2.2-2.1-2.2C2.9,15.2,2,16.2,2,17.4
					L2,17.4z"/>
				<path id="Shape_8_" class="st2" d="M5.5,20.1c0,0-0.1,0-0.1-0.1c-0.2-0.2-0.5-0.3-0.8-0.4l-0.5,0.5l-0.5-0.6c0,0,0,0,0,0
					C3.3,19.7,3,19.9,2.8,20c0,0-0.1,0-0.1,0.1c-1.5,0.9-2.4,1.7-2.8,5.2h1.7c0.1-0.8,0.2-1.4,0.4-1.9v1.9h4.4v-1.8
					c0.1,0.5,0.3,1.1,0.4,1.8h1.7C7.9,21.8,7,21,5.5,20.1L5.5,20.1z M4.1,24.6L4.1,24.6l-0.5-0.7l0.5-3.5h0l0.5,3.5L4.1,24.6
					L4.1,24.6z"/>
				<path id="Shape_9_" class="st2" d="M10.4,17.4c0,1.2,1,2.2,2.1,2.2c1.2,0,2.1-1,2.1-2.2s-1-2.2-2.1-2.2
					C11.4,15.2,10.4,16.2,10.4,17.4L10.4,17.4z"/>
				<path id="Shape_10_" class="st2" d="M14,20.1c0,0-0.1,0-0.1-0.1c-0.2-0.2-0.5-0.3-0.8-0.4l-0.5,0.5l-0.5-0.6c0,0,0,0,0,0
					c-0.3,0.1-0.5,0.2-0.8,0.3c0,0-0.1,0-0.1,0.1c-1.5,0.9-2.4,1.7-2.8,5.2H10c0.1-0.8,0.2-1.4,0.4-1.9v1.9h4.4v-1.8
					c0.1,0.5,0.3,1.1,0.4,1.8h1.7C16.4,21.8,15.5,21,14,20.1L14,20.1z M12.6,24.6L12.6,24.6l-0.5-0.7l0.5-3.5h0l0.5,3.5L12.6,24.6
					L12.6,24.6z"/>
				<path id="Shape_11_" class="st2" d="M8.3,14.6c4,0,7.2-3.3,7.2-7.3c0-4.1-3.2-7.3-7.2-7.3c-4,0-7.2,3.3-7.2,7.3
					C1.1,11.3,4.3,14.6,8.3,14.6L8.3,14.6z M8.3,1.8c2.9,0,5.3,2.4,5.3,5.4s-2.4,5.4-5.3,5.4C5.4,12.6,3,10.2,3,7.2S5.4,1.8,8.3,1.8
					L8.3,1.8z"/>
				<path id="Shape_12_" class="st2" d="M12,6.5h-3V3.3H7.5V8H12V6.5z"/>
				<path id="Shape_13_" class="st2" d="M14.9,35.5l-0.8-0.3c0.1-0.6,0-1.2-0.1-1.8l0.8-0.4c0.5-0.2,0.7-0.8,0.5-1.3l-0.4-1
					c-0.2-0.5-0.8-0.7-1.3-0.5l-0.8,0.4c-0.4-0.5-0.8-0.9-1.3-1.2l0.3-0.8c0.2-0.5-0.1-1.1-0.6-1.2l-1-0.4c-0.5-0.2-1,0.1-1.2,0.6
					l-0.3,0.8c-0.6-0.1-1.2,0-1.8,0.1l-0.4-0.8c-0.2-0.5-0.8-0.7-1.3-0.5l-1,0.5c-0.5,0.2-0.7,0.8-0.5,1.3l0.4,0.8
					C3.8,30.1,3.4,30.6,3,31l-0.8-0.3c-0.5-0.2-1,0.1-1.2,0.6l-0.4,1c-0.1,0.2-0.1,0.5,0,0.7c0.1,0.2,0.3,0.4,0.5,0.5L2,33.9
					c-0.1,0.6,0,1.2,0.1,1.8L1.3,36c-0.5,0.2-0.7,0.8-0.5,1.3l0.4,1c0.2,0.5,0.8,0.7,1.3,0.5l0.8-0.4c0.4,0.5,0.8,0.9,1.3,1.2
					l-0.3,0.8c-0.1,0.2-0.1,0.5,0,0.7c0.1,0.2,0.3,0.4,0.5,0.5l1,0.4c0.2,0.1,0.5,0.1,0.7,0c0.2-0.1,0.4-0.3,0.5-0.5l0.3-0.8
					c0.6,0.1,1.2,0,1.8-0.1l0.4,0.8c0.2,0.5,0.8,0.7,1.3,0.5l1-0.5c0.5-0.2,0.7-0.8,0.5-1.3l-0.4-0.8c0.5-0.4,0.9-0.8,1.2-1.3
					l0.8,0.3c0.2,0.1,0.5,0.1,0.7,0c0.2-0.1,0.4-0.3,0.5-0.5l0.4-1C15.6,36.2,15.4,35.7,14.9,35.5L14.9,35.5z M9.6,38
					c-0.5,0.2-1,0.4-1.6,0.4c-1.5,0-2.8-0.9-3.4-2.2c-0.9-1.9,0-4.2,1.8-5.1c0.5-0.2,1-0.4,1.6-0.4c1.5,0,2.8,0.9,3.4,2.2
					C12.3,34.9,11.5,37.1,9.6,38L9.6,38z"/>
				<path id="Shape_14_" class="st2" d="M23,20.4V3.9h-4.9V5h3.8v15.4h-3.8v1.3h3.8v16.8h-3.8v1.1H23V21.7h4.5l-0.1-1.3H23z"/>
			</g>
		</g>
		<g id="present3" transform="translate(551.000000, 81.000000)" sketch:type="MSShapeGroup">
			<path id="Shape_15_" class="st2" d="M22.5,6.4L22,4.8c-0.2-0.6-0.5-1.2-0.8-1.8c-1.1-1.9-2.4-2.7-2.8-2.7c-0.2,0.4-0.2,1.9,1,3.8
				c1.1,1.8,2.3,2.6,2.8,2.7L22.5,6.4L22.5,6.4z M27.4,4.2c1.1-1.9,1.2-3.4,1-3.8c-0.5,0-1.8,0.8-2.9,2.7c-0.3,0.6-0.6,1.2-0.8,1.8
				l-0.5,1.6l0.3,0.5C25,6.8,26.3,6,27.4,4.2L27.4,4.2z M22.7,7.9h4v5.6h9.8V7.9h-9.2c0.7-0.5,1.5-1.4,2.1-2.4
				c1.3-2.3,1.5-4.7,0.4-5.3C29.7,0.1,29.5,0,29.3,0c-1.1,0-2.7,1.2-3.8,3.1c-0.4,0.6-0.6,1.3-0.8,1.9c-0.2-0.6-0.5-1.3-0.8-1.9
				C22.7,1.2,21.1,0,20,0c-0.2,0-0.4,0.1-0.6,0.2c-1.1,0.6-0.9,3,0.4,5.3c0.6,1.1,1.4,1.9,2.1,2.4h-9.2v5.6h10V7.9L22.7,7.9z
				 M25.9,5.4c0.2-0.6,0.4-1.1,0.7-1.6c1-1.7,2.2-2.4,2.6-2.5c0.2,0.4,0.1,1.7-0.9,3.5c-1,1.7-2.2,2.4-2.6,2.5l-0.3-0.5L25.9,5.4
				L25.9,5.4z M20.9,4.8c-1-1.8-1.1-3.1-0.9-3.5c0.4,0,1.6,0.8,2.6,2.5c0.3,0.5,0.5,1.1,0.7,1.6l0.4,1.4l-0.3,0.5
				C23.1,7.2,21.9,6.5,20.9,4.8L20.9,4.8z M27.1,15.3v6.3c0.7,0.4,0.9,1,0.9,1s0.1-0.1,0.1,3c0,3-0.6,3.1-1.1,3.2v1.6
				c0,0,4.9-1.6,7.9-5.3c1.1-1.3,1.6-1,1.6-1l0-8.9H27.1L27.1,15.3z M22.7,15.3h-10v5.1h10L22.7,15.3L22.7,15.3L22.7,15.3z M0,20.5
				h5.7v19.3H0V20.5L0,20.5z M36.1,26.8c-0.2-0.1-0.5-0.1-0.7-0.1c-1.8,0.3-4.5,7-11.6,5.1c0,0-2.1-0.7-2.8-1.1
				c-0.7-0.4-2.2-1.3-3.4-2.2h3.4h3.8c0,0,0.3,0,0.6-0.1c0.5-0.1,1-0.4,1-1.2v-3.3c0,0-0.2-1.1-1-1.5c-0.2-0.1-0.4-0.1-0.6-0.1h-3.8
				H10H8.1v14.1c0,0,11.2,3.5,15.2,3.5c0,0,9.9,0.4,16.5-7.2C39.7,32.6,38,27.5,36.1,26.8L36.1,26.8z"/>
		</g>
		<g id="moving10" transform="translate(750.000000, 351.000000)" sketch:type="MSShapeGroup">
			<g id="Group_2_">
				<path id="Shape_16_" class="st2" d="M24.9,15.6V1.2c0-0.4-0.3-0.8-0.7-0.8H1c-0.4,0-0.7,0.3-0.7,0.8v14.5c0,0.4,0.3,0.8,0.7,0.8
					h23.2C24.6,16.4,24.9,16,24.9,15.6L24.9,15.6z M19.4,6.4l1.1-2c0.1-0.2,0.4-0.2,0.5,0l1.1,2c0.1,0.2,0,0.5-0.3,0.5h-0.5v3.8
					c0,0.2-0.1,0.3-0.3,0.3h-0.7c-0.2,0-0.3-0.1-0.3-0.3V6.9h-0.5C19.4,6.9,19.3,6.6,19.4,6.4L19.4,6.4z M14.9,6.4l1.1-2
					c0.1-0.2,0.4-0.2,0.5,0l1.1,2c0.1,0.2,0,0.5-0.3,0.5H17v3.8c0,0.2-0.1,0.3-0.3,0.3H16c-0.2,0-0.3-0.1-0.3-0.3V6.9h-0.5
					C14.9,6.9,14.8,6.6,14.9,6.4L14.9,6.4z M10,12.1c0.1,0,0.1,0.1,0.1,0.2v0.4c0,0.1-0.1,0.2-0.2,0.2H4.5c-0.1,0-0.2-0.1-0.2-0.2
					v-0.4c0-0.1,0.1-0.1,0.1-0.2l1.9-0.4V10C4.8,9.6,3.6,8.2,3.6,6.5c0-0.9,0.3-1.8,0.9-2.4h5.3c0.6,0.6,0.9,1.5,0.9,2.4
					c0,1.7-1.2,3.1-2.7,3.5v1.7L10,12.1L10,12.1z M22.7,12.7c0,0.1-0.1,0.2-0.1,0.2h-8.2c-0.1,0-0.1-0.1-0.1-0.2v-0.5
					c0-0.1,0.1-0.2,0.1-0.2h8.2c0.1,0,0.1,0.1,0.1,0.2V12.7L22.7,12.7z"/>
				<path id="Shape_17_" class="st2" d="M39.3,17.6h-1.1v-6.5c0-0.8-0.2-1.5-0.6-2.2l-2.9-4.3c-0.7-1.1-1.9-1.7-3.1-1.7h-4.4
					c-0.5,0-0.9,0.4-0.9,1v13c0,0.4-0.3,0.8-0.7,0.8h-6.5c0.7,0.6,1.2,1.5,1.3,2.4h7.7c0.3-1.9,1.9-3.4,3.8-3.4
					c1.9,0,3.5,1.5,3.8,3.4h3.8c0.3,0,0.5-0.2,0.5-0.5v-1.5C39.7,17.8,39.5,17.6,39.3,17.6L39.3,17.6z M34.6,9.8h-5.9
					c-0.3,0-0.5-0.2-0.5-0.5V6c0-0.3,0.2-0.5,0.5-0.5h3.6c0.2,0,0.3,0.1,0.4,0.2L35,9C35.2,9.3,35,9.8,34.6,9.8L34.6,9.8z"/>
				<path id="Shape_18_" class="st2" d="M31.6,17.6c-1.6,0-2.9,1.3-2.9,3c0,1.7,1.3,3,2.9,3c1.6,0,2.9-1.3,2.9-3
					C34.6,18.9,33.3,17.6,31.6,17.6L31.6,17.6z M31.6,22.1c-0.8,0-1.5-0.7-1.5-1.5c0-0.8,0.7-1.5,1.5-1.5c0.8,0,1.5,0.7,1.5,1.5
					C33.1,21.4,32.4,22.1,31.6,22.1L31.6,22.1z"/>
				<path id="Shape_19_" class="st2" d="M7.3,17.6c-0.3,0-0.5,0.2-0.5,0.5v1.5C6.8,19.8,7,20,7.3,20h5.3c0.1-1,0.6-1.8,1.3-2.4
					L7.3,17.6L7.3,17.6z"/>
				<path id="Shape_20_" class="st2" d="M16.3,17.6c-1.6,0-2.9,1.3-2.9,3c0,1.7,1.3,3,2.9,3c1.6,0,2.9-1.3,2.9-3
					C19.3,18.9,17.9,17.6,16.3,17.6L16.3,17.6z M16.3,22.1c-0.8,0-1.5-0.7-1.5-1.5c0-0.8,0.7-1.5,1.5-1.5c0.8,0,1.5,0.7,1.5,1.5
					C17.8,21.4,17.1,22.1,16.3,22.1L16.3,22.1z"/>
			</g>
		</g>
		<g id="partnership" transform="translate(750.000000, 81.000000)" sketch:type="MSShapeGroup">
			<g id="Group_3_">
				<path id="Shape_21_" class="st2" d="M33.7,10.8c3,0,5.4-2.4,5.4-5.4c0-3-2.4-5.4-5.4-5.4c-3,0-5.4,2.4-5.4,5.4
					C28.3,8.4,30.7,10.8,33.7,10.8L33.7,10.8z"/>
				<path id="Shape_22_" class="st2" d="M38,11.7h-8.6c-1.3,0-2.4,1-2.7,2.3l-5.1,10.5c-0.1,0-0.1,0-0.2,0h-2c-0.1,0-0.1,0-0.2,0
					L14.1,14c-0.3-1.3-1.4-2.3-2.7-2.3H2.8c-1.5,0-2.8,1.4-2.8,3.2v16.7h14.2V22l3.1,5.8c0.3,1,1.1,1.7,2.1,1.7h2
					c1,0,1.8-0.7,2.1-1.7l3.1-5.8v9.5h14.2V14.8C40.8,13.1,39.5,11.7,38,11.7L38,11.7z"/>
				<path id="Shape_23_" class="st2" d="M7.1,10.8c3,0,5.4-2.4,5.4-5.4c0-3-2.4-5.4-5.4-5.4c-3,0-5.4,2.4-5.4,5.4
					C1.7,8.4,4.1,10.8,7.1,10.8L7.1,10.8z"/>
			</g>
		</g>
		<g id="group12" transform="translate(951.000000, 81.000000)" sketch:type="MSShapeGroup">
			<g id="Group_4_">
				<path id="Shape_24_" class="st2" d="M8.6,25.7V11.4c0,0,0-0.6,0.3-1.4H2.9c0,0-2.9,0-2.9,2.9v10c0,2.9,2.9,2.9,2.9,2.9V40h8.6
					V28.6C11.4,28.6,8.6,28.6,8.6,25.7L8.6,25.7z"/>
				<path id="Shape_25_" class="st2" d="M8.6,8.6c0.7,0,1.4-0.2,2-0.5c0.1-0.1,0.2-0.1,0.3-0.1c1.2-0.8,2-2.1,2-3.6
					c0-2.4-1.9-4.3-4.3-4.3S4.3,1.9,4.3,4.3S6.2,8.6,8.6,8.6L8.6,8.6z"/>
				<path id="Shape_26_" class="st2" d="M37.1,10h-6.1c0.3,0.8,0.3,1.4,0.3,1.4v14.3c0,2.9-2.9,2.9-2.9,2.9V40h8.6V25.7
					c0,0,2.9,0,2.9-2.9v-10C40,12.9,40,10,37.1,10L37.1,10z"/>
				<path id="Shape_27_" class="st2" d="M29.1,7.9c0.1,0,0.2,0.1,0.3,0.1c0.6,0.3,1.3,0.5,2,0.5c2.4,0,4.3-1.9,4.3-4.3
					S33.8,0,31.4,0s-4.3,1.9-4.3,4.3C27.1,5.8,27.9,7.1,29.1,7.9L29.1,7.9z"/>
				<circle id="Oval_1_" class="st2" cx="20" cy="4.3" r="4.3"/>
				<path id="Shape_28_" class="st2" d="M28.6,12.9c0,0,0-2.9-2.9-2.9H14.3c0,0-2.9,0-2.9,2.9v10c0,2.9,2.9,2.9,2.9,2.9V40h11.4
					V25.7c0,0,2.9,0,2.9-2.9V12.9L28.6,12.9z"/>
			</g>
		</g>
		<g id="files5" transform="translate(451.000000, 581.000000)" sketch:type="MSShapeGroup">
			<g id="Group_5_">
				<path id="Shape_29_" class="st2" d="M32.9,0.3H10.8L0.3,11.4V41h32.5V0.3L32.9,0.3z M9.8,5v4.9H5.2L9.8,5L9.8,5z M30.3,38.5H2.8
					v-26h9.5V2.8h18L30.3,38.5L30.3,38.5z"/>
				<rect id="Rectangle-path" x="5.9" y="19.5" class="st2" width="21.3" height="2.9"/>
				<rect id="Rectangle-path_1_" x="5.9" y="25.5" class="st2" width="21.3" height="2.9"/>
				<rect id="Rectangle-path_2_" x="5.9" y="31.5" class="st2" width="21.3" height="2.9"/>
				<path id="Shape_30_" class="st2" d="M34.2,7v2.5H37v35.6H9.5v-2.8H7v5.3h32.5V7H34.2z"/>
			</g>
		</g>
		<path id="Shape_31_" sketch:type="MSShapeGroup" class="st2" d="M989.8,581h-16.7c-0.7,0-1.2,0.5-1.2,1.2v7.6h-12.6
			c-1.3,0-2.3,0.8-2.3,1.8l-2.9,19.7h-0.8c-1.3,0-2.4,1.1-2.4,2.4v7.1c0,1.3,1.1,2.4,2.4,2.4h32.4c1.3,0,2.4-1.1,2.4-2.4v-7.1
			c0-1.3-1.1-2.4-2.4-2.4H985l-2.9-19.7c0-0.1,0-0.2,0-0.2h7.8c0.7,0,1.2-0.5,1.2-1.2v-7.9C991,581.5,990.5,581,989.8,581L989.8,581
			z M962.6,593c0-0.4,0.3-0.7,0.7-0.7h13.3c0.4,0,0.7,0.3,0.7,0.7v2.4c0,0.4-0.3,0.7-0.7,0.7h-13.3c-0.4,0-0.7-0.3-0.7-0.7V593
			L962.6,593z M974.1,604.1h-2.8c-0.6,0-1.1-0.5-1.1-1.1v-2.7c0-0.6,0.5-1.1,1.1-1.1h2.8c0.6,0,1.1,0.5,1.1,1.1v2.7
			C975.3,603.6,974.8,604.1,974.1,604.1L974.1,604.1z M975.3,606.5v2.7c0,0.6-0.5,1.1-1.1,1.1h-2.8c-0.6,0-1.1-0.5-1.1-1.1v-2.7
			c0-0.6,0.5-1.1,1.1-1.1h2.8C974.8,605.4,975.3,605.9,975.3,606.5L975.3,606.5z M967.7,604.2h-2.8c-0.6,0-1.2-0.5-1.2-1.1v-2.7
			c0-0.6,0.5-1.1,1.2-1.1h2.8c0.6,0,1.2,0.5,1.2,1.1v2.7C968.9,603.7,968.4,604.2,967.7,604.2L967.7,604.2z M968.9,606.5v2.7
			c0,0.6-0.5,1.1-1.2,1.1h-2.8c-0.6,0-1.2-0.5-1.2-1.1v-2.7c0-0.6,0.5-1.1,1.2-1.1h2.8C968.4,605.4,968.9,605.9,968.9,606.5
			L968.9,606.5z M985.2,613.1c0.7,0,1.2,0.5,1.2,1.2v1.7c0,0.7-0.5,1.2-1.2,1.2h-31.4c-0.7,0-1.2-0.5-1.2-1.2v-1.7
			c0-0.7,0.5-1.2,1.2-1.2H985.2L985.2,613.1z M988.9,588.2c0,0.7-0.5,1.2-1.2,1.2h-12.5c-0.7,0-1.2-0.5-1.2-1.2V584
			c0-0.7,0.5-1.2,1.2-1.2h12.5c0.7,0,1.2,0.5,1.2,1.2V588.2L988.9,588.2z"/>
		<g id="On" transform="translate(800.000000, 0.000000)">
			<rect id="Rectangle-5" sketch:type="MSShapeGroup" class="st0" width="200" height="30">
			</rect>
			<text transform="matrix(1 0 0 1 9 20)" class="st2 st3 st5">On:</text>
		</g>
		<g id="Author" transform="translate(596.000000, 0.000000)">
			<rect id="Rectangle-5_1_" sketch:type="MSShapeGroup" class="st0" width="200" height="66">
			</rect>
			<text transform="matrix(1 0 0 1 11 21.4)" class="st2 st3 st5">Author:</text>
		</g>
		<g id="Business-Model-Canvas-IDEA">
			<rect id="Rectangle-5_2_" sketch:type="MSShapeGroup" class="st0" width="591" height="66">
			</rect>
			<text transform="matrix(1 0 0 1 20.595 29)" class="st2 st3 st6">Business Model Canvas IDEA:</text>
		</g>
		<g id="Iteration" transform="translate(800.000000, 36.000000)">
			<rect id="Rectangle-6" sketch:type="MSShapeGroup" class="st0" width="200" height="30">
			</rect>
			<text transform="matrix(1 0 0 1 9 20)" class="st2 st3 st5">Iteration:</text>
		</g>
	</g>
</g>
</svg>
