<svg id="Vector_Graphics" data-name="Vector Graphics" xmlns="http://www.w3.org/2000/svg" viewBox="0 0 586.44 307.65"><defs><style>.cls-1{fill:#243e90;}.cls-2{fill:#72cde1;}.cls-3{fill:#9edae9;}</style></defs><title>vehicle</title><path class="cls-1" d="M203.81,396.34c-4.34-.43-8.91-2.61-12.82-4.34-4.56-3.26-4.56-3.26-9.34-7.17a127.55,127.55,0,0,1-9.34-14.56c-1.09-2.82-1.09-2.82-4.35-12.17-1.09-5.43-2.39-10.65-3.69-16.08-1.09-7.39-2-14.34-2.61-21.51-0.65-.65-0.65-0.65-37.59-35.63-1.3-1.52-1.3-1.52-29.12-28-1.3-1.09-1.3-1.09-3-.87-1.09,2.17-2.39,4.78-4.78,6.08-3,1.3-7,1.3-10.21,1.74-5.21.22-10.21,1.3-13.69-2.83a64.07,64.07,0,0,1-4.35-9.78c-0.43-2.39-1.09-5-1.52-7.39-0.65-3.91-.65-3.91-1.3-12.38-0.65-18.25-.65-18.25-0.65-18.47-1.09-.87-2-1.74-3-2.61-6.52-8.47-13-16.95-19.12-25.64L32,181.46c-0.87-4.35-.65-8.69-0.65-13a80.1,80.1,0,0,1,3.26-16.29,120.44,120.44,0,0,1,6.52-11.52c9.34-.43,18.47-0.43,28-1.3L73,138c8-9.78,15.86-19.56,24.33-29.12l7.82-6.52,7.17-2.61c3.48-.87,7.17-1.74,10.86-2.61C131,96.08,138.85,95,146.89,93.9c67.14-4.35,67.14-4.35,81.48-5,18.9-.43,37.59-0.22,56.71.65,13.47,1.09,13.47,1.09,25,2.17,7,1.3,14.12,2.39,21.07,4.35A136.34,136.34,0,0,1,344,101.94c2,1.52,3.91,3,5.87,4.35a265.21,265.21,0,0,1,28.9,29.55c2.61,0.65,5,1.09,5.87,4.13v3.26c3,3.91,6.3,8,9.34,12a48.89,48.89,0,0,0,6.73,3.48,13,13,0,0,0,1.74,1.74c30.2,6.08,60.4,12.6,90.38,19.34,15,3.48,29.77,7,44.54,10.65l34.55,9.13a6.91,6.91,0,0,0,2-.65c2.82,0,5-.22,7.39,1.74,0.43,0.65.65,1.3,1.09,2a55.21,55.21,0,0,1,8.91,3.69c6.52,2.39,13.47,4.56,17.38,10.86,0.43,0.87.87,2,1.3,2.82,0.87,13.25.43,26.29,0,39.54C611,261,611,261,614.45,265.55c2.17,3.69,2.17,3.69,3.26,5.87,0,3.91-1.3,7.82-2.17,11.73a77.93,77.93,0,0,1-8,13.69,34.67,34.67,0,0,0-2.82,2.82c-1.74.65-3.69,1.3-5.43,2-3.69,1.09-9.56,2.39-9.78,2.61,0,4.78-.22,9.34-0.22,14.12a12,12,0,0,0-1.3,1.74c-2.61,2.17-9.56,2.61-13,3-4.78.22-9.56,0.22-14.12,0.22-18,6.52-35.85,12.82-53.88,19.34-19.55,6.08-39.32,12.17-59.1,17.16-32.15,6.74-65,10.43-97.55,14.34l-69.53,5.21H265.3c-3.48-.65-3.48-0.65-7.39-1.3-4.78-2.17-4.78-2.17-7-3.26-2-1.09-3.69-2.39-5.65-3.48a5.38,5.38,0,0,0-3.26,1.74c-1.3,6.74-1.3,6.74-2,8.69-1.52,3.48-2.61,6.74-6.08,9.13-0.65.22-1.52,0.87-3.69,2-2,.65-3.91,1.52-5.65,2.17a77.6,77.6,0,0,1-9.56,1.3h-11.3Z" transform="translate(-31.28 -88.69)"/><path class="cls-2" d="M191.21,380.27a13.89,13.89,0,0,1-6.3-3.48c-7.39-7.17-11.73-18.25-14.56-27.81-3.69-17.16-5.65-34.55-3.69-51.93,1.09-4.78,1.09-4.78,2.17-8.69,0.43-.87.65-1.74,1.09-2.61,2.61-4.35,3.91-6.3,8.91-7.6V277.5c-4.35-5.43-15.21-18.69-23.47-17.38-5.21,3-5.21,11.08-5.65,16.51A70.3,70.3,0,0,0,158,308.35c1.74,2.17,3.48,4.56,5.21,7,0,3.26.43,2.17-1.52,1.74l-11.73-11.3c-24.77-22.81-49.76-45.63-73.66-69.31-2.17-1.74-4.13-3.48-6.08-5.21-1.3.22-.22,3.48-2.17,2.17a12.18,12.18,0,0,0-1.09-1.74c-2.17-1.3-1.52-1.74-1.74-4.13-0.43-1.52-1.3-2.82-.22-3.69,0.22-.87-3.48-6.73-4.13-7.82-1.09,0-.65,2.39-0.65,3.26,0.87,1.52,5.21,8.69,3,10.65H61.5c0,0.44,0,.44.43,4.56,1.09,6.08,2,11.95,5.87,16.95,0,1.74.22,2.39-2,2.39a8.5,8.5,0,0,1-1.74-2.17c-4.13-10.43-5-21.29-5.65-32.37v-7.39c-0.87-1.74-3-3.69-4.13-5-3.48-3-3.48-3-3.69-3.48,0-3.69,8.26,6.73,8.47,7,3.91,6.52,7.82,13.25,12,19.77,4.13,3.48,7.82,7.17,11.95,11.08L92.14,249c21.07,19.77,42.37,39.33,63.66,59.1a4.82,4.82,0,0,0-1.09-2.39c-2.17-5.43-2.17-5.43-3.26-8.47-0.87-3.48-1.74-7.17-2.61-10.65-0.22-2.39-.43-4.56-0.65-7,0-5.65-.44-20,7.17-21.29,7.82,0,13.9,6.08,19.34,11.3,2.61,3,2.61,3,6.08,7.39a142.68,142.68,0,0,1,6.3,14.34c0,0.43.22,0.87-.22,1.09-2,.43-1.3,3.48-3,4.78-0.22.65-.87,2.17,0.65,2,0.43-1.09,1.09-3.26,2-4.13,1.09,0,1.09,0,1.09,1.3-0.22.87-3,5.65-.65,5.21,0.43-.65,1.3-3,2.61-1.74,0,1.09-2.82,4.78,0,5.21,1.52-.87,2.39-1.09,2.39,1.09-1.74,2.39-.65,3.26,1.74,3.69,0.65,0.65.22,1.52-.22,2.17,0,2.17-.44,2.39,1.3,3.69,2.61,0.43,2.17,1.3.43,3,0,2.82.43,2.61,3.69,2.82,2,1.52-1.09,2-2,2.17a2.53,2.53,0,0,0,0,2.17c1.09,1.09,4.13-1.52,4.13,1.52-0.87,1.09-3,1.09-4.13,1.74,0,0.43.65,1.3,0.87,2.17,2.17,0.22,2.61.87,3.69-1.3,2-1.3,1.3,1.09,1.3,2,1.3,0.43,1.09.22,1.3,1.74a7.6,7.6,0,0,1,1.09,2.83,8.74,8.74,0,0,0,2,1.09c9.78,6.3,19.55,12.38,29.33,18.69h0.65c-0.87-2.83-2-5.43-2.83-8a111,111,0,0,0-5.21-15c0.22-2.17,0-2.39,2-2.39,2.61,3,7.6,5.21,11.3,7.39a29.72,29.72,0,0,0,4.35,2.83c0.87,1.52.43,5,.65,7,0.87,4.13.87,8,1.52,12.17,1.52,4.13,3.26,4.13,7.39,4.56h9.56c4.56,1.52-2.17,2.61-2.82,2.61-4.13.22-8,.43-12,0.43a18.85,18.85,0,0,0-2.39-.22c-0.22.87,5.65,2.82,3.91,4.56h-0.87c-15.21-10.86-30.42-21.73-45.84-32.81a0.67,0.67,0,0,1-.43-0.22c-0.43,7.82-.22,16.08-2.61,23.46a32.17,32.17,0,0,1-2.82,4.56c-5.65,3.91-10.21-1.52-13.47-5.65a18.76,18.76,0,0,0-2.17-3.48c-1.08-2.17-5.65-11.51-4.34-13,1.3,0,1.3.22,1.74,1.52,1.3,1.52,4.35,9.56,5.65,10,2.17,2.39,2.61,3.91,6.08,4.13,0.65,0.65-.44,2.61,1.09,2.61,1.09-1.52,1.74-.22,3,0l2.61-3c0.22-2,1.09-1.74,1.74-3.69,0-2.17-.22-3.48-2.17-4.56-0.87-.22-4.34-0.65-2.82-2.17,1.52,0,1.52,0,5.43.22,2-1.09-2.39-3-3-3.48-1.52-.22-1.52-0.22-1.74-0.43-1.52-2.39,4.35-1.09,5.43-2.83-0.43-3.26-3.26-2.17-5.65-3-1.09-2.17,2-2,3-2.17,2.17-.87,3.48-0.87,2.39-3.26-2-.87-4.34-0.65-6.3-1.74-1.52-.44-13.25-2.83-13.25-3.26a2,2,0,0,1-1.52-.65,14.29,14.29,0,0,0-3.69-8.69,12.78,12.78,0,0,0-1.09-1.3c0.43-5.21.65-9.78,2.17-14.77a35.25,35.25,0,0,0,2.17-3.91c0-.87-3.48-2.82-0.43-3,1.09,0.43.87,0.43,1.3-.65,0-1.52-1.52-2.83.87-2.83,0.87,0.87,1.74-2.39,2.17-3.26-0.43-.65-0.65-2-1.3-2.17-6.52,3.48-7.6,17.82-7.82,24.12,0.22,3.26.22,3.26,0.22,4.78a1,1,0,0,1-1.3,0c-0.87-4.56-.43-8.69,0-13.25,1.52-6.52,2.17-13.47,8.26-17.38,0-1.52-1.3-3.48-1.74-4.56-6.74-.22-8.69,6.52-10.21,11.95a35,35,0,0,0-1.09,4.56c-1.52,10.43-.87,21.08.22,31.72,1.09,5.43,2,10.86,3.26,16.3l3.26,10.43c3,6.3,6.08,12.6,11.73,17.82a8.47,8.47,0,0,0,6.08,1.3c2.82-.87,4.34-3.91,5.65-6.3,0.22-.43,1.52-5,2.39-3.91-0.43,2.83-.43,2.83-0.87,5.43C199.68,376.79,197.29,380,191.21,380.27Z" transform="translate(-31.28 -88.69)"/><path class="cls-2" d="M320.92,365.28c-1.09-1.3,4.35-2.82,5.21-3a8.12,8.12,0,0,0,2.61-4.34c1.09-.87.87-1.3,0.87-2.61-0.43-6.08-.22-3.26-2.17.43-2.61,3.48-6.08,5.21-10.21,4.35-2-1.3.65-3.26,1.52-3.91,2.39-2.82,3-6.08,4.13-9.34,1.09-3.91,1.52-8,2.17-11.73,0-2-.43-4.35-2-5.43-23.9,3.26-47.36,6.74-71,9.78a38.26,38.26,0,0,1-7.17-.65c-2-1.74-2.82-3.91-4.56-5.43a6.46,6.46,0,0,1-2.39-1.52c-0.22-2.17-.65-4.78-2-6.3-1.52-.65-4.35-1.09-3-3,1.52-.65,1.09-1.09,1.09-3,2.17,0,5.21,1.09,7.39,1.52a40,40,0,0,0,10.21-.22c28.9-4.34,57.79-9.12,86.69-13.91,1.74,0,3.26,2,1.52,3-29.55,4.78-59.1,9.34-88.43,13.91-0.65.22-5,.65-2.61,1.09,3.26-.43,6.3-0.87,9.34-1.09,28.68-4.35,56.27-8.69,82.35-12.38,1.3,0,4.13-.22,2.39,2C340,314,340,314,310.27,318.13c-19.55,3-38.89,6.08-58.23,9.13-4.78,1.52-3.91,1.52-.22,4.13,2,0.43,4.35-.65,6.3-1.3,5.87-1.3,11.73-2.17,17.38-3.26,2.83,0,2.17,1.74.65,3.26,0,1.74,3.26-.22,4.13-0.65,1.09-2.61,1.09-2.17,4.13-2.17a18.7,18.7,0,0,0,3.69.65c9.78-3,20-5.65,30.2-6.52H322a28,28,0,0,0,6.74,3.48h3c9.13-.87,9.78-0.65,10.21-1.3-0.65-.65-2.61-2-2.17-3,2.39-1.09,2.39-2.17,2.61-4.35a2.79,2.79,0,0,1,2.17.87c1.74-1.52,2.39-1.09,2.61,1.3,0.22,0,.22,0,67.57-8.47,16.29-2.17,32.81-4.56,49.32-7,34.33-8.69,34.33-8.69,63.66-16.08,3.69-1.09,7.39-2,10.65-4.13,1.3-1.74,1.74-2.83,4.13-2.17,1.3,1.09-1.52,1.09-1.74,2.39,5.65-.22,13-3.91,18-5.87,4.13-1.3,7-2.61,11.3-1.52a6.56,6.56,0,0,0,4.13,1.09c6.08-2.82,12.6-5.87,19.34-7.17h5c3.26,2,4.34-.43,5.87-3.48,0-1.09-1.74-.43-2.39-0.43-18.47,3.69-37.15,7.39-55.84,11.3-1.74,0-2.17-1.3-.87-2.39l53.45-11.08c0.43-1.52-5.21.43-5.43,0.43l-46.93,9.78c-1.74,0-1.74-.65-0.65-1.74,17.38-3.48,35-6.74,52.36-10.86,2,0,2.61.65,4.56,1.09a15.9,15.9,0,0,0,4.34-1.09h2.17c1.52,0.87,3.48,4.35,4.78,6.3a36,36,0,0,1,2.61,5c-0.22.43-.65,0.87-0.87,1.3-8.47,2-17.16,3.91-25.64,5.87a22.1,22.1,0,0,1-1.3,5.43c0,2.61,3.26,4.56-.65,5.65-1.3,0-1.74-.65-2.61-1.3-0.87,1.74-3.69,1.3-4.56,2.17v26.29a0.72,0.72,0,0,1-1.09,0c-0.22-8.69-.22-17.38-0.43-26.07a4.9,4.9,0,0,1-1.52-.43c-1.3-1.3-5.43-2.17-7.17-2.82-2.17-1.3.43-1.3,1.52-1.3,1.74,0.65,1.74.65,4.34,1.74h5.65c0.65,0,3,.87,2.61-0.43A29.31,29.31,0,0,1,579,284c-0.65,0-1.3.22-8.26,1.3-1.74.65-1.74,0.43-2.61,2-0.22,9.56-.43,19.12-0.65,28.9a1.7,1.7,0,0,1-2.39-.43c0-3.69.22-7.6,0.22-11.52-1.74,0-5,3-6.52.87,0-1.09.43-1.09,1.52-1.3,1.74-.87,3.48-2,5-2.82,0.22-4.56.43-8.91,0.43-13.47-1.09-.87-4.56-1.3-6.08-1.3-29.11,7.39-29.11,7.39-29.55,7.6a26.21,26.21,0,0,0-1.09,3.91c4.56-1.09,8.91-2.17,13.25-3.48,0.87,0,1.74.43,0.87,1.3L521,301.4c-1.09.43-.65,1.09-0.65,2.17h1.09L541,297.7c0.65,0,1.52.22,0.87,1.09-21.29,6.52-21.29,6.52-21.73,6.74,0,0.87-.22,1.3.65,1.3,6.08-2.17,12.17-4.13,18-6.08,0.87,0,1.74.22,0.87,1.09-19.12,6.52-19.12,6.52-19.55,6.74,0,0.87-.22,1.3.65,1.3,6.08-2,12-3.91,17.82-6.08,0.65,0,1.52.43,0.65,1.3-6.3,2.17-12.6,4.35-19.12,6.52,0,0.65,0,.43.65,0.43,3.69-1.3,7.17-2.39,10.65-3.69,0.22,0,5-1.09,3,.87-5,.87-9.78,3.48-14.56,4.34l-20.21,5.87h-0.87c-0.22-1.09-4.13,2-5.21.87,0-3,6.3-.87,5.43-4.56-1.52.43-3.48,1.3-5,1.09-1.52-1.52,3.91-2.17,5.21-3,1.09-3.69-2.82-.87-4.56-1.08-1.74-1.52,3.48-2,4.35-2.61-0.22-1.74-.22-3.26-0.44-5-1.74-1.09-.43-2.61.87-3.48h-0.87c-10.65,2.61-21.29,5-31.72,7.6-40.41,5.43-80.61,10.65-121,15.64a21.75,21.75,0,0,0-3,1.74,56.17,56.17,0,0,0-8.69.87,7.38,7.38,0,0,0-3,3.26,5.52,5.52,0,0,1-1.09.43c0,5.43-.22,10.86-0.22,16.29,0.65,9.34.65,9.34,0.87,9.78,0,2-.22,4.13-0.22,6.3C328.74,366.14,323.31,365.06,320.92,365.28Z" transform="translate(-31.28 -88.69)"/><path class="cls-2" d="M341.56,364.84a0.43,0.43,0,0,1-.22-0.43c-0.43-27.16-.43-27.16-0.43-27.38-2.61-1.52-5.65-2.61-8-4.35-0.65-1.52,1.09-2.61,2.39-2.61a12.32,12.32,0,0,0,2.82,1.74c3.91,0.65,7-.43,11.08-0.22,0.43,0.65.87,1.52,1.3,2.17,0.65,0.43,1.52.65,1.52,1.52a44.69,44.69,0,0,1-4.56.65,17.22,17.22,0,0,0-3.69.43c-0.65,9.34-1.09,18.9-1.52,28.25A1.07,1.07,0,0,0,341.56,364.84Z" transform="translate(-31.28 -88.69)"/><path class="cls-2" d="M436.94,353.54a3.27,3.27,0,0,1-1.74-.87c0-5.21.22-10.43,0.22-15.43a23.13,23.13,0,0,1-2.39,4.13,53,53,0,0,1-7.39,3c-22.81,3-45.62,4.34-68.44,6.74a40.41,40.41,0,0,0-5,.22c-1.74-1.74,2.39-1.52,2.82-1.52,17.38-1.74,35.2-3,53-4.56,5.87-.65,11.73-1.52,17.6-2.39,2.61-1.09,5.65-1.52,7.39-3.91,2-5,1.74-10,2-15.21,0.22-.43.65-0.43,1.09,0,0.22,2.61.65-1.09,1.52-2,13.91-2.83,28-5.65,41.93-8.47,3.91-1.3,8-2.61,12-3.69,1.52,0,1.52,0,2.17,1.52-0.22,3.91-.65,8-0.87,12.17,14.56-4.56,28.9-9.12,43.46-13.47a0.92,0.92,0,0,1,1.09.65c2.61-.22,5.21-4.13,6.3-6.3,0.22-1.74.65-3.69,1.09-5.65,0.43-4.35.43-4.35,0.65-5a0.77,0.77,0,0,1,1.08.22c0.22,3.48-.87,7.39-1.52,10.86-0.65,1.09-1.09,2.17-1.74,3.26-1.09,1.09-2.17,2-3.48,3-2.17,1.09-4.35,2.17-6.74,3.26-11.08,4.34-22.81,7.82-34.11,11.3-5,1.09-5,1.09-6.52,1.52,0,0.65-.22,1.09.65,1.09a317.7,317.7,0,0,0,48-15.64c1.3-1.09,2.39-2.17,3.69-3.26,2.17-4.56,2.17-4.56,2.39-5.43,0.22-1.74.65-3.48,0.87-5.21,0.22-4.56.22-6.74,1.52-5.43a34.32,34.32,0,0,1-1.74,13.25c-0.65,1.3-1.3,2.39-2,3.69-3,2.82-3,2.82-4.13,3.69-12.17,5.21-24.77,8.91-36.94,12.82-8.69,2.17-8.69,2.17-12.6,3.26a78.15,78.15,0,0,1-1.3,10,6.9,6.9,0,0,1-2.17,2.17c-16.08,3.69-32.16,7.82-48,11.51h-3.69Z" transform="translate(-31.28 -88.69)"/><path class="cls-1" d="M437.38,352.67a4.38,4.38,0,0,1-1.3-.43c-0.22-9.13.43-18.25,1.09-27.16a10.68,10.68,0,0,0,.87-2.39c0.43-.22.43-0.22,40.41-8.26l13-3.91c1.08,0,.87,0,1.52.87-0.65,7.6-1.3,15-2,22.38-0.44,2.61-.22,6.08-2.83,7.39-16.08,3.69-32.16,8-48,11.51h-2.82Z" transform="translate(-31.28 -88.69)"/><path class="cls-2" d="M189.25,352.46a22.26,22.26,0,0,1-2-2.82c-0.22,0-2.83-1.74-2.83-2.17-1.3-.65-1.74-0.87-1.74-2.17,2.83-3.48,2.39-7.6,2.39-11.73,0.87-.87,3,0.43,3.91.87,5.65,4.13,7.39,10.86,3,16.73A4.3,4.3,0,0,1,189.25,352.46Z" transform="translate(-31.28 -88.69)"/><path class="cls-2" d="M352.42,347.89a0.81,0.81,0,0,1,0-1.3c7.17-.43,14.56-0.87,21.73-1.52,15.64-.87,31.72-1.74,47.15-5,4.56-.87,7.39-1.3,8.91-6.08,0.87-4.35,2-8.91,2-13.25,1.52-1.52,1.3,1.74,1.3,2.39-0.65,4.56-1.09,9.56-2.83,13.91-1.52,2.39-3.91,3.26-6.3,3.91-10,1.74-19.77,3-29.77,4.35C377.19,346.37,355.47,347.89,352.42,347.89Z" transform="translate(-31.28 -88.69)"/><path class="cls-2" d="M369.15,344.63a0.82,0.82,0,0,1,0-1.3c18-2.17,36.07-4.13,54.1-6.3,0.65,0,2.17.22,1.09,1.3C406.09,340.29,387.62,342.46,369.15,344.63Z" transform="translate(-31.28 -88.69)"/><path class="cls-2" d="M353.29,344c-0.43-.43-0.65-0.65-0.22-1.09,5.65-.87,11.3-1.52,16.73-2.17a1.31,1.31,0,0,0,0-1.3c-15.42,2-16.95,2.39-17.38,1.74,0-.65-0.22-0.65.22-0.87,5.65-.87,11.3-1.52,16.95-2.39,0.65-.22.43-1.09,0.22-1.74-15,2-18.25,2.61-16.29.87,5.21-.87,10.65-1.52,15.86-2.17a1.12,1.12,0,0,0,.43-1.3c-5.65.43-11.3,1.09-16.73,1.74-0.43-.43-0.43-0.87,0-1.09,5.43-.87,10.86-1.52,16.3-2.17,0.22-.87.65-1.74,0.43-2-15.64,1.74-17.38,2.17-18,1.52a1.31,1.31,0,0,1,.22-0.87c24.55-2.82,48.89-5.65,73.22-8.69,0.43,0,2.17.22,1.09,1.3l-27.38,3.26c0.22,0.87.43,1.52,1.3,1.52l26.72-3.26c0.65,0,2,0,.87,1.09-9.34,1.3-18.69,2.39-28,3.69-1.3.43-.87,1.09,0.43,1.09,8.91-1.09,17.82-2.17,26.72-3.48,0.65,0,2,.22.87,1.3-9.34,1.3-18.9,2.61-28.46,3.69,0.22,1.52.22,1.52,0.43,1.74l26.51-3.26c0.65,0,2,0,.87,1.09-9.12,1.3-18,2.39-27.16,3.69-0.43.22-.22,0.87-0.22,1.52,8.26-.43,16.95-2,25.42-3,0.43,0,2.17,0,1.09,1.09C402,338.12,377.63,341.16,353.29,344Z" transform="translate(-31.28 -88.69)"/><path class="cls-2" d="M178.83,341.16c-2.82-1.09-3-2.17-4.13-5-0.22-1.3-1.52-6.3-.65-7.17,1.09,0,1.3-.22,1.74.87,0.43,2.82.65,4.78,2.39,7.17C179.48,338.55,183,340.94,178.83,341.16Z" transform="translate(-31.28 -88.69)"/><path class="cls-2" d="M180.35,336.6c-3.91-2.17-3.69-7.61-3.69-11.3,0.87-.65,1.08-1.74,2.39-1.09a28,28,0,0,1,2.39,12A1,1,0,0,1,180.35,336.6Z" transform="translate(-31.28 -88.69)"/><path class="cls-2" d="M217.5,327.9c-0.43-.43-4.35-2.61-5-3,0-1.3.22-3.91,0.87-4.56,0.87,0,2.17.87,3.26,1.3,0.43,1.09-.22,2.61.22,3.91C217.5,325.95,219.24,327.47,217.5,327.9Z" transform="translate(-31.28 -88.69)"/><path class="cls-1" d="M492.78,325.3c-0.22-1.74,0-.87,1.09-0.87,8-2.61,16.08-5,24.12-7.6,4.56-2,10.21-3,15-4.56,0.65,0.22.22,0.22-.22,0.65-11.3,4.13-22.81,7.6-34.33,11.3C496.69,324.43,494.74,324.86,492.78,325.3Z" transform="translate(-31.28 -88.69)"/><path class="cls-2" d="M209,323.12a10.5,10.5,0,0,1-4.35-3,42.09,42.09,0,0,1,.43-5.21c0.65-.65,2.61,1.52,3.69,2,0.65,1.08-.65,3,0.43,4.56C210.55,322,211.2,322.91,209,323.12Z" transform="translate(-31.28 -88.69)"/><path class="cls-2" d="M218.8,321.6c-5.65-3.69-11.08-7.17-16.51-10.65-0.87-1.52,0-1.52.87-1.52,5.65,3.48,11.08,7,16.51,10.65C220.33,321.17,219.67,321.39,218.8,321.6Z" transform="translate(-31.28 -88.69)"/><path class="cls-2" d="M338.3,320.3c-1.52-.65-0.87-1.52-0.22-2.61,0.22-2.17,0-2.17,2-2C340.69,317.91,341.13,320.08,338.3,320.3Z" transform="translate(-31.28 -88.69)"/><path class="cls-2" d="M255.52,317c-3.48-.65-5.43-1.74-7.17-4.78a5.53,5.53,0,0,0-.43-1.52c-2.17-10.43-3.91-22.81,1.52-32.59,3.48-5,8.47-5.87,14.34-7.39a114.23,114.23,0,0,1,19.34-1.09c7,5,6.74,15.43,7.17,23.25,0,6.3,0,12.17-3.91,17.6-5,3.26-10.65,4.13-16.29,5.21C259.43,316.82,259.43,316.82,255.52,317Z" transform="translate(-31.28 -88.69)"/><path class="cls-1" d="M256.17,315.52c-3.48-.65-5-1.52-6.52-4.78-2-9.56-3.69-21.08.43-30.2,0.65-1.09,1.3-2,2-3,8.26-6.08,20.21-6.3,30.2-6.08,6.74,4.56,6.3,18,6.52,25.2-0.22,2.39-.43,4.56-0.87,7-1.09,0-1.09-.22-1.3-0.87a53.78,53.78,0,0,0-2.17-8.47c-1.52-2.82-1.52-3.26-2.39,0a42.2,42.2,0,0,1-2.82,6.52c-1.52,2.17-1.52,2.17-3.69,5a53.45,53.45,0,0,1-5.87,3.69l-1.74.65c0.43,0.22,3.26,0,8,0,0.87,0,4.56.43,4.78,1.3A118.35,118.35,0,0,1,256.17,315.52Z" transform="translate(-31.28 -88.69)"/><path class="cls-2" d="M257,312.26c-3.26-.65-6.08-1.52-7.17-4.56-0.22-.87-0.22-0.87-0.22-4.56,0.22,0.22.43,1.09,1.3,2.39a15,15,0,0,0,9.78,5.21c1.3,0.65,0,1.09-.87,1.52H257Z" transform="translate(-31.28 -88.69)"/><path class="cls-2" d="M346.34,310.74c-1.3-.87-0.43-1.74.65-2.17,35.42-4.56,70.83-9.12,106.25-13.91,10.21-2.17,20.42-4.13,30.63-6.3,18-4.35,36.07-8.69,54.32-13,1.09,0,2.39,0,1.52,1.52-3.91,1.09-3.91,1.09-57.36,13.91-9.34,2-18.69,3.91-28.25,6.08-21.29,2.82-42.8,5.65-64.31,8.47C347.65,310.52,347.65,310.52,346.34,310.74Z" transform="translate(-31.28 -88.69)"/><path class="cls-2" d="M300.93,310.09c-5.21-1.3-5.87-4.35-7.17-8.91a33.47,33.47,0,0,1-.87-4.56c-0.44-8.69-2-19.55,3.91-26.72,3.69-2.61,7-3.69,11.3-4.78,3.26-.43,6.52-0.87,9.78-1.09,3.26,0,8.91-.65,11.95,1.3,3.69,4.56,3.91,11.08,4.35,16.95,0,6.3.65,14.34-3.26,20a23,23,0,0,1-5.65,4.35C317.88,309.44,308.75,309.65,300.93,310.09Z" transform="translate(-31.28 -88.69)"/><path class="cls-2" d="M260.08,309a13.47,13.47,0,0,1-9.56-6.74c0-.87,0-1.74,1.3-0.87,1.52,2.61,3.91,4.13,7,5.43a18.69,18.69,0,0,0,8.47-.22,29.73,29.73,0,0,0,9.12-7.39,40.34,40.34,0,0,0,2.17-4.35,30.62,30.62,0,0,0,1.09-7.6c-0.87,1.3-.87,3.48-1.09,4.78a33.27,33.27,0,0,1-2.83,7c-2.17,2-4.13,3.48-7,5.87-2.17,1.3-9.78,3-11.51.65-3.69-2.82-4.13-4.13-5.65-8.47-2.61-2.82-2.39-2.61,0-5.43,1.09,0,1.09,2.17,2.17,1.74,0.43-.65.65-1.3,1.09-2a6.73,6.73,0,0,1,4.13.22c0.65,2.17.65,4.78,1.3,7.17,0.43,0.65,1.09.65,2,.65,0.22-2-1.3-5-.65-6.3a9.77,9.77,0,0,1,5-.87c1.3-.65,2.39-1.09,3.69-1.74,1.74-.43,3.48-0.65,5.65-1.3,1.09-2,.22-4.13-0.22-6.08-0.87-.87-7.17,1.3-8.69,1.74a7.36,7.36,0,0,0-1.3,1.3c-0.22,2-.22,3.48-2.39,2.17-3.69-.87-3.69-0.65-2.83-4.13,3-5,7-4.56,12.17-4.78,0.87-.22,1.52-0.43.43-0.87-10.21-.87-12-0.43-11.08-2,3-1.74,6.73-1.52,10.21-1.52,6.08,0.87,7.17,6.3,7.6,11.95a0.91,0.91,0,0,1,1.52,0,37.47,37.47,0,0,1-1.09,8.26c-0.87,1.74-1.74,3.69-2.61,5.65a38.37,38.37,0,0,1-10.21,7.39A42.33,42.33,0,0,1,260.08,309Z" transform="translate(-31.28 -88.69)"/><path class="cls-1" d="M279.2,308.57c-0.87-.22-1.09,0-0.65-0.65,3-2,4.13-3.69,5.43-6.74a12.5,12.5,0,0,1-.22,6.3A8.37,8.37,0,0,1,279.2,308.57Z" transform="translate(-31.28 -88.69)"/><path class="cls-1" d="M302.24,307.26c-0.65,0-2,0-1.74-.87,5.87-.65,11.73-1.52,17.6-2.39,1.52,0,3.26-.43,3.26,1.52a3.25,3.25,0,0,1-1.52.65C314,306.39,307.88,307,302.24,307.26Z" transform="translate(-31.28 -88.69)"/><path class="cls-2" d="M341.34,305.31c-0.43-.22-0.87-0.22-1.3-0.43-0.22-16.95-.22-16.95,0-30.42,0.65-.22,2.17.87,3,1.3,0,29.33,0,29.33-.22,29.55h-1.52Z" transform="translate(-31.28 -88.69)"/><path class="cls-2" d="M344.39,305.31c-0.87-1.09-.65-17.16-0.65-20.64,0-1.3-.22-5.87.65-6.74,1.74,0,1.52-.22,1.74,1.74a0.21,0.21,0,0,1,.22.22c35.41-3.91,70.61-7.82,106-11.51l84.73-18.25c0.65,0,1.74.22,0.87,1.09-28.24,6.08-56.27,12.17-84.3,18.25C347,281.19,347,281.19,346.12,281.41v1.3c33-3.48,66-7,99.29-10.65,2.61-.22,5.43-0.65,8.26-0.87,27.59-6.3,55.41-12.38,83.21-18.47,0.65,0,1.74.22,0.87,1.3-28.25,6.08-56.71,12.38-85,18.69-35.41,3.69-70.83,7.6-106.24,11.52-0.87.22-.43,0.65-0.43,1.52,35.41-3.69,70.83-7.39,106-11.3l85.39-18.9c0.65,0,1.74.22,0.87,1.09-13.47,3-13.47,3-13.69,3.26,0,0.43-.22.87,0.22,1.09,3.91-.87,8-1.74,12.17-2.61,0.65,0,1.74.22,0.87,1.3-12.82,2.83-13.9,2.61-13,3.69l12.38-2.61c0.65,0,1.74.22,0.87,1.09-28.24,6.52-56.71,13.25-85,19.77-35.63,4.13-71,8.26-106.46,12.38-0.87.22-.65,0.87-0.43,1.74,35.63-3.91,71.48-8,107.33-12.17,27.81-6.74,55.84-13.47,83.87-20.21,0.65,0,2,.22.87,1.09-28.24,7-56.49,13.69-85,20.64h-1.3c-104.72,11.95-104.72,11.95-105.81,12.17v1.52L453,286.41,537.1,266.2c0.65,0,2,.22.87,1.3-28,6.74-56.27,13.47-84.52,20.21-35.63,4.13-71.26,8.47-106.9,12.6-0.43.43-.43,1.3,0.22,1.3,35.2-3.91,70.18-8,105.38-12,28.46-7,56.93-13.91,85.6-21.07,0.65,0,1.74.43,0.87,1.3-28.68,7-57.36,14.12-86,21.08-105.16,12-105.16,12-106.25,12.17C346.34,304.87,345.91,305.09,344.39,305.31Z" transform="translate(-31.28 -88.69)"/><path class="cls-2" d="M338.3,304.66a0.21,0.21,0,0,1-.22-0.22v-31.5c0.43-.22.43-0.22,1.09,0.22v31.5H338.3Z" transform="translate(-31.28 -88.69)"/><path class="cls-1" d="M308.75,303.79l-7.82-1.3a13.76,13.76,0,0,1-6.3-5.87c-0.22-.65-0.22-0.65-0.22-3.91,0-7.17-1.3-15.64,3.69-21.51,7.39-5.21,16.08-5.65,25-5.65,1.52,0.22,3.91.22,5.43,1.09,4.56,5.87,4.13,16.08,4.13,23.47a48.54,48.54,0,0,1-.87,5,4.78,4.78,0,0,1-1.74-.22c-0.22-.87-0.43-10.86-2.61-9.12C325.48,295.1,318.75,303.14,308.75,303.79Z" transform="translate(-31.28 -88.69)"/><path class="cls-2" d="M307.45,302.48c-3.91-.65-7.39-1.74-10.21-4.35-1.52-2.39-3.91-8.26-.65-10,1.09-1.3,2.39-3.91,4.35-3,0.43,1.52,1.09,3.26,1.09,2-0.65-1.52-1.09-4.56,1.52-3.48a14.55,14.55,0,0,0,3.48,2.61,15.62,15.62,0,0,0,7.6-1.74c1.74-1.74,1.74-1.3,4.35-.87,1.3,0,2.61-.22,3.91-0.22,1.74,1.3-.43,7.17-1.74,8.47-1.74.65-2.61,1.09-3.48,2.61-1.52.65-3.26-.43-4.78,0,0.22,1.74,2.83.22,4.13,1.3,0,1.52-.87,1.52-2.17,2,0.65,2.39,7.17-5.87,7.61-6.3,0.65-1.52,1.52-3,2.17-4.56,2.82-1.52-1.52,6.73-1.74,7.17-2.39,4.13-7.39,7.39-12,8.47h-3.48Z" transform="translate(-31.28 -88.69)"/><path class="cls-1" d="M520.16,300.09c-0.87-1.3,2.61-.87,3.48-0.87C522.33,299.44,521.24,299.88,520.16,300.09Z" transform="translate(-31.28 -88.69)"/><path class="cls-1" d="M304.41,296.62c-2.39-1.3-2.61-3.91-2.82-6.3,0.87-2.17,1.74-.22,2.17,1.09v1.52C304.41,294,306.36,296,304.41,296.62Z" transform="translate(-31.28 -88.69)"/><path class="cls-1" d="M346.12,292.49v-2c35.41-3.91,70.83-7.82,106-11.73,16.29-3.48,32.37-7.17,48.67-10.86,0.65,0,.44.22,0.44,1.09l-48.45,11.3C417.17,284.45,381.76,288.36,346.12,292.49Z" transform="translate(-31.28 -88.69)"/><path class="cls-2" d="M250.53,291c-1.3-1.3,2.82-7,3.91-8a6.15,6.15,0,0,0,1.3-2c0.65-.87,3.91-3.48,3.91-1.3a4.56,4.56,0,0,0-1.74,1.3c-2,2.82-5.65,4.56-5.43,8.26C254.22,291.4,252,291,250.53,291Z" transform="translate(-31.28 -88.69)"/><path class="cls-1" d="M346.12,289.23c-0.43-.22-0.22-2,0-2.17L452.59,276c16.08-3.69,31.94-7.17,47.8-10.86,1.09,0,.87,0,0.87,1.3-16.08,3.69-32.16,7.39-48.23,10.86C450.63,277.71,449.33,277.93,346.12,289.23Z" transform="translate(-31.28 -88.69)"/><path class="cls-2" d="M234.45,287.71a14.1,14.1,0,0,1-1.52-.43c-32.37-17.82-32.37-17.82-47.58-26.29-15.64-9.78-31.07-19.55-46.71-29.11-12.82-8.69-12.82-8.69-60.18-40.2-0.22-.43-0.22-0.65.43-0.65,58.23,38.46,58.23,38.46,61.27,40.63,16.08,10,32.16,20,48,30,14.77,8.26,29.77,16.3,44.54,24.55,0.65,0.22,1.3.65,1.3-.43l-52.14-30C135.37,226.22,88.66,196.89,43,166.26c-2.82-1.74-5.43-3.48-8-5-0.87-1.3,0-1.52.87-1.52,2.39,1.52,4.78,2.82,7.17,4.35,45.63,30.64,92.34,60,138.83,89.73,17.6,10.21,35.42,20.42,53.23,30.63,0.65,0.87,1.52,2.17.43,3.26h-1.09Z" transform="translate(-31.28 -88.69)"/><path class="cls-2" d="M283.77,286c-0.22-.22-0.65-2.39-1.74-5a26.62,26.62,0,0,0-5.21-6.74c0-1.52,4.13,1.09,4.78,1.09,1.09-.65,3-0.65,3,1.09-0.87.43-1.52,0.22-1.52,1.09C284,279.24,285.51,285.1,283.77,286Z" transform="translate(-31.28 -88.69)"/><path class="cls-1" d="M563.39,282.71c-1.3-.22-3.69-1.09-3.69-2.17,2.17-.43,4.35-0.65,6.52-1.3,1.09,0,7.39.65,7,1.74A84.61,84.61,0,0,1,563.39,282.71Z" transform="translate(-31.28 -88.69)"/><path class="cls-2" d="M306.36,281.41c-1.09-.87-1.09-1.3-0.65-2.39,1.74-1.52,3.48-3,5.21-4.78,1.3-.43,2.61-1.09,3.91-1.52,1.74-2-4.56-.65-4.78-0.65-3.48,1.09-6.3,3-9.56,4.78-0.87,0-.87.22-0.87-0.87,1.52-2.82,5.43-5.21,8.47-6.52,3.48-1.09,4.78-.87,8.47-0.43,5,1.52,7,4.78,7.39,9.78,0.43,2,0,2.17-1.52,1.3-1.74-2.61-1.74-4.13-4.56-4.78a14.45,14.45,0,0,0-7.39,2c0,0.22-.22.22,0.22,0.65C314.62,279.45,307.88,281.41,306.36,281.41Z" transform="translate(-31.28 -88.69)"/><path class="cls-2" d="M347,277.93c-0.43-.65-0.43-0.87,0-1.3,81-8.69,81-8.69,105.16-11.3,28.25-5.87,56.49-12,84.74-17.82,0.65,0,1.74.22,0.87,1.09-28,6.08-56.06,11.95-84.08,18C418,270.54,382.41,274.24,347,277.93Z" transform="translate(-31.28 -88.69)"/><path class="cls-2" d="M327,277.06a71.62,71.62,0,0,1-3.48-7.17c-1.08-1.09-2.61-1.09-2.61-2.39,3.69-.44,5.87.22,7,3.69C327.87,272.5,328.31,276.85,327,277.06Z" transform="translate(-31.28 -88.69)"/><path class="cls-2" d="M345.25,277.06c-2.82-2,1.52-5.21,3-6.08a20.29,20.29,0,0,1,8.69-2,1.45,1.45,0,0,1,.87,1.52c-2,.87-7.82.65-8.69,2.61,82.34-8.47,82.34-8.47,104.07-10.65,27.81-5.87,55.4-11.73,83.21-17.82,0.65,0,2,.44.87,1.3-27.81,5.87-55.84,12-83.65,17.82-83.87,8.69-83.87,8.69-106.46,11.08C346.56,276,346.56,276.41,345.25,277.06Z" transform="translate(-31.28 -88.69)"/><path class="cls-2" d="M342.87,274.46c-3-1.09-3.26-1.74-2.17-4.78,2.82-4.34,7-4.56,11.95-5.43,0.87-.22,2.83-0.65,3.69-0.22,0.43,1.3,1.3,2.61.43,3.91-2.61.43-4.78,0.65-7.17,1.09-3,1.3-4.13,2.39-5.87,5.21A1.31,1.31,0,0,0,342.87,274.46Z" transform="translate(-31.28 -88.69)"/><path class="cls-2" d="M338.08,271.63c-1.52-1.74,1.52-5.21,2.39-6.52a28.91,28.91,0,0,1,14.77-3.91c0.65,0.65.65,1.3-.43,1.74-4.78.87-8.69,1.52-13,3.69-1.09,1.52-2.39,3-2.61,5h-1.09Z" transform="translate(-31.28 -88.69)"/><path class="cls-2" d="M544.06,271.42c-1.3-.22-1.3-0.22-1.74-1.09a17,17,0,0,1,.87-5.65,162.9,162.9,0,0,0,.87-17.82c-0.87-3.69-2.82-3.48-6.08-3.69-25.85,5.65-51.49,11.08-77.35,16.51l-3.91.65c-82.35,8.47-82.35,8.47-96.9,10.21-1.3-.22-1.09-0.87-0.87-1.74,33.46-4.13,67.14-7.6,100.81-11.08,26.29-5.43,52.36-11.08,78.65-16.51,3.69,0,5,.22,7.39,3.48,1.08,0.22-.65-3-0.87-3.26-1.74-1.09-4.56-1.09-6.52-1.09-10.86,2-10.86,2-76.7,15.86-34.33,3.69-68.44,7.17-102.55,11.3-2,0-1.52-2.17-1.52-3.48v-0.43c0.65,0,19.77-2.17,94.73-10.65,2.39-.43,5-0.65,7.39-1.09,26.29-5,52.8-10.21,79.09-15.21a29.76,29.76,0,0,1,6.08.43c-0.65-1.3-3.69-1.3-5-1.3-78,15-78,15-81.48,15.43-99.51,11.3-100.81,11.52-101.25,11.52A1.16,1.16,0,0,1,357,261c34.33-4.13,68.87-7.6,103.42-11.73l79.52-15.64c4.56,0.22,6.08.87,7.39,6.08,0.65,4.35.43,8.91,0.43,13.47-0.65,9.13-.65,9.13-0.87,11.51C546.45,266.2,545.8,271,544.06,271.42Z" transform="translate(-31.28 -88.69)"/><path class="cls-2" d="M539.93,269.68c-0.87-.65.22-6.08,0.44-7,0-2.39-.22-4.78-0.44-7a83,83,0,0,0,0-10.43c0.65-1.09,1.3-.43,2.17.22,0.43,0.65.43,0.65,0.65,2.61,0.22,3,.22,3,0.22,11.51-1.09,9.13-1.09,9.13-1.3,9.56C541,269.46,540.58,269.46,539.93,269.68Z" transform="translate(-31.28 -88.69)"/><path class="cls-2" d="M553.83,266.63a10.06,10.06,0,0,1-2.17-1.09c-2.39-4.35-2.61-7.82-2.82-12.6,0.22-9.78.22-9.78,0.22-12.6,0.87-3.69,1.52-6.73,4.34-9.12,0.87-.65,1.74-1.09,2.61-1.74,4.78-1.52,16.08-4.56,20.42-.22a7.74,7.74,0,0,1,.87,2,153.05,153.05,0,0,1,0,20c-0.65,4.78-.65,8.26-4.56,11.52C566.65,264.68,560.13,266.42,553.83,266.63Z" transform="translate(-31.28 -88.69)"/><path class="cls-1" d="M554.7,264.68c-1.08-.43-1.52-0.65-0.65-1.74,0.87-.22,10.65-1.74,9.78-0.22C560.79,264,557.75,264.24,554.7,264.68Z" transform="translate(-31.28 -88.69)"/><path class="cls-1" d="M552.53,261c-2.82-2.39,3.26-1.52,4.13-1.3,3.48-.65,4.13-1.09,7-3.26,3.69-5,6.52-12.6,4.56-18.68-2.39-4.35-4.13-5.65-9.13-5.65-3.48,1.09-4.56,2.61-6.3,5.43,0.87,3,3.26.44,4.35-.87,2-1.3,4.56-1.3,7-.87,0,1.52-4.13,1.3-5,3.26,0.87,1.3,3.91.22,5.65,1.09,0.87,2.17.43,2.82-1.3,4.35-1.52.65-2.82,1.52-4.35,2.17-0.87.65-2.61,2.39-3.69,1.3,0-3,.65-5-3-3.91l-0.65.65c-0.22.22-.43,2.17-1.09,2,0.22-4.35,0-9.78,3-13.25a19.61,19.61,0,0,1,3.48-2.39c3.26-1.09,15.43-4.56,18.25-.22a1.64,1.64,0,0,0,.43.87c0.44,7.17.65,14.56-.43,21.73-4.78,2.39-3.26-4.13-5.21-5.65a1.23,1.23,0,0,0-1.3.43c-1.3,3.91-2.61,8-5.87,10.86C559.92,260.77,556,260.55,552.53,261Z" transform="translate(-31.28 -88.69)"/><path class="cls-2" d="M583.6,261c-3.26-.87-3.48-2.61-3.91-5.21-0.65-8.69-.65-17.38,1.09-25.86a12.28,12.28,0,0,1,4.78-5.21,43.81,43.81,0,0,1,14.12-2.39c5,1.09,7,1.09,7.6,6.74a159.23,159.23,0,0,1-2.39,24.55,8.52,8.52,0,0,1-1.74,3A77,77,0,0,1,583.6,261Z" transform="translate(-31.28 -88.69)"/><path class="cls-1" d="M583.82,258.81c-3.26-1.09,2.61-1.3,3.69-1.52a35.27,35.27,0,0,1,5.21.22C592.73,258.38,584.9,258.81,583.82,258.81Z" transform="translate(-31.28 -88.69)"/><path class="cls-1" d="M555.14,257.51c-0.65-1.09-1.09-5.43,0-6.52,2.39,0-.65,3.91,2.17,4.56,2.17,0,3.69-1.74,5.87-1.52C562.74,256,557.09,257.07,555.14,257.51Z" transform="translate(-31.28 -88.69)"/><path class="cls-1" d="M584,256c-1.3-.22-3.26.22-2.83-1.74a55,55,0,0,0,6.08.22A18.55,18.55,0,0,0,597.5,243c0.22-.43.22-0.43,0.65-0.43,0.22,3-2.17,6.52-3.91,8.91a21.7,21.7,0,0,1-6.3,4.35C586.64,255.77,585.34,256,584,256Z" transform="translate(-31.28 -88.69)"/><path class="cls-2" d="M251.18,253.38c-2.39-.87-4.78-1.52-7.17-2.17-1.09-.87-0.22-2.82.43-3.69,1.09-.43,1.3-1.52,2.61-1.52a21.18,21.18,0,0,0,3.69,3.91C251,251,254.87,252.95,251.18,253.38Z" transform="translate(-31.28 -88.69)"/><path class="cls-2" d="M213.16,251.64c-2.61-1.52-5.43-2.82-8-4.34-18.25-12.6-36.5-25.2-54.32-37.81-7.6-5.65-15.21-11.3-22.6-16.73-0.65-1.3-1.09-.87-2.39-0.87-0.44-.22-0.44-0.22-3.91-3C113,181,104.74,173.21,96.48,165.17c-0.43-.44-3-3.26-0.65-3.26,11.3,5.43,22.6,11.52,33.9,17.6,0.87,0.87,4.13,2.82,2,4.34-0.65,1.09-1.09,2-1.74,3,0.65,1.09,2.61-1.3,3-2.17a2.35,2.35,0,0,1,1.3-.22c4.56,2.17,9.13,4.35,13.91,6.52,6.73,4.13,13.47,8.26,20.42,12.38,0.87,1.74-3.91,1.09-4.13,2,6.52,5.87,13.69,11.52,20.64,17.6,0.87,1.74,1.74,2.82-.87,2-3.26-2-9.34-6.3-20.86-13.69a7.59,7.59,0,0,0-2.83-1.09,14.79,14.79,0,0,0,2.61,2.61c6.08,4.35,12.38,8.91,18.68,13.25,7.6,6.08,15.21,12,23,18C211.2,248.38,215.76,251,213.16,251.64Z" transform="translate(-31.28 -88.69)"/><path class="cls-2" d="M258.35,251.64c-2-.87-3-2.82-4.35-4.34-16.29-13-34.33-23-52.14-33.24l-5.21-3.26c-1.52-3.69,22.16-2,23.25-2l2,0.65c11.73,6.52,23.25,13.91,34.76,21.29,3.69,3,7.39,5.87,10.86,8.91,0,1.09-2.17,2.17-3.26,2.82-2,2.17-2,2.17-2.17,2.17,0,1.09-5.21,1.09-5,3.26C257.91,248.82,261.82,251.21,258.35,251.64Z" transform="translate(-31.28 -88.69)"/><path class="cls-1" d="M591.64,249.69c-1.09-.22-2-0.43-2.82-0.65,0.22-.87,2.82-0.65,3.91-0.65C593.59,249.25,591.86,249.69,591.64,249.69Z" transform="translate(-31.28 -88.69)"/><path class="cls-1" d="M601.63,248.6c-2-1.52-2.17-3.91-2.17-6.08,2.61-.43,3,3.91,3,5.87C602.29,248.6,602.29,248.6,601.63,248.6Z" transform="translate(-31.28 -88.69)"/><path class="cls-2" d="M241.4,247.3c-0.87-.65-1.09-2.17-1.3-3-1.52-1.52-3.26-3.69-3.91-.65-6.74-2.17-12.82-5.87-18.9-9.56-13-8.47-26.07-16.51-39.11-24.55-1.09-.65-1.74-1.09-0.43-1.09,5.87,2.17,11.73,4.13,18,5.87,15.86,6.52,30.2,16.51,45,25.64,4.78,3.91,4.78,3.91,5,4.13,0,2.61-.44,1.74-2.61,3A4.78,4.78,0,0,1,241.4,247.3Z" transform="translate(-31.28 -88.69)"/><path class="cls-2" d="M68.45,246.21c-2.39-1.09-3.69-7.39-4.13-9.13v-2.61H65c2.61,3.26,6.74,7.17,3.91,11.52C68.67,246,68.67,246.21,68.45,246.21Z" transform="translate(-31.28 -88.69)"/><path class="cls-1" d="M587.51,242.52c-1.74-.65-4.35-3.26-5.87-0.65h-0.43a91.13,91.13,0,0,1,1.09-11.08,9.85,9.85,0,0,1,4.35-4.56c5-1.74,9.78-2.82,15-1.74,3.48,1.3,3.48,1.3,3.91,5.21,0,3-.65,8.26-3.26,10.43-1.52,0-3.48.43-4.56-.65-0.22-3.48-.43-7.17-3.26-9.56-3.48-2-6.52-2.39-9.34.87-0.65,2-1.08,3.69-2.61,5-1.3,3.48,1.3,2.39,3.48,1.3,2.17-.65,5.65-1.09,7.82,0,0,2.39-1.3,2.39-3.48,3C589.25,240.78,588.6,242.3,587.51,242.52Z" transform="translate(-31.28 -88.69)"/><path class="cls-2" d="M274.21,240.78c-6.74-3.69-12.38-8.26-18.69-12.82-0.65-.43-1.52-0.65-2.17-1.09l-31.29-18.25c0-.87-0.22-0.65.43-0.87a159.88,159.88,0,0,0,25-2.82c0.87-.44,1.74-0.65,1.3-1.52-4.35-4.13-9.12-7-13.91-10.21-0.65-1.3,0-1.09,1.3-1.09,9.12,4.35,17.38,9.78,26.29,15l15,8.47c5.21,2.82,10.21,5.87,15.43,8.47,1.09,0.87,2.39,1.52,3.48,2.39,0.43,0,8.91,3,5.65,4.13-5-.44-10.43-1.09-15.64-0.44-3.26,1.52-3.26,1.09-4.13,4.56-1.09,1.3-3,1.52-4.56,2.39-0.65,1.74,1.74,2.61-1.09,3.48A8.15,8.15,0,0,1,274.21,240.78Z" transform="translate(-31.28 -88.69)"/><path class="cls-2" d="M599.46,237.09a2.53,2.53,0,0,1-1.3-1.3c-0.22-3.26-.22-6.08-2.61-8-0.65-.43-3-2-1.3-2.17l3.91,0.65c3.69,0.22,6.74-.22,3.26,3.69a38,38,0,0,0-1.09,3.91C600.33,234.7,600.76,236.87,599.46,237.09Z" transform="translate(-31.28 -88.69)"/><path class="cls-2" d="M568.61,234.26c-1.3-.87-3-2.82-3-3.91,2,0,3.91.22,5.87,0.22,2,0.87-.87,1.52-1.74,2.17C569.48,233.61,569.7,233.83,568.61,234.26Z" transform="translate(-31.28 -88.69)"/><path class="cls-2" d="M341.13,233.39c-4.35-.43-9.34-0.65-13.25-1.74C317.45,227.53,307.23,223,297,218.4c-13.69-5.65-27.38-11.08-40.63-17.6-0.87-.65-1.3-0.65-1.3-1.52,28.9-2,57.58-5.21,86-9.56,0.87-.22,5.87-0.87,4.56-2.61-0.65-.43-3-1.52-1.52-2.17,1.09,0.22,2.17.43,3.48,0.65,21.29,8.69,42.58,17.6,63.88,26.29,1.09-.22,1.3-0.65.43-1.3-20.42-8.47-40.85-16.95-61.27-25.2,0-.65-0.22-0.65.22-1.09a160,160,0,0,0,23.46-12.17c2.61-2.17,5.43-4.56,7.17-7.39-0.22-.87-2-0.87-2.61-1.09-8.91-.43-18.25-1.09-26.73.65v0.43c3.48,0.65,7,.65,10.43,1.74,0.43,0.87-.22,1.3-0.87,2-5.43,4.13-11.08,8-16.51,12.17a21.54,21.54,0,0,1-3.48,2.82c-3,1.52-5.65.22-8-1.52-1.09-2.17,2.82-3,3.91-3.69a11.07,11.07,0,0,0,4.78-5.65,4.56,4.56,0,0,0-.87-2.39c-1.09-.87-1.3-0.87-1.3-2,0.65-1.09,4.13-2.61,4.13-3.48-5.21-.22-10.21-0.22-15.21-0.22-7.17-.87-7.17-0.87-9.56-0.87-38.46,2.39-76.91,6.08-115.15,9.56-19.12,1.52-38,3-56.92,4.56-3.26,0-6.52,0-9.78.22a2.32,2.32,0,0,1-1.09-.65c0-3.69,0-7.17.22-10.86q1-10.1,2-20.21c1.3-7.82,2.61-15.43,4.34-23.25l2-5.87a15.61,15.61,0,0,1,4.35-3c8.91-2.61,18.25-3.48,27.38-4.78,23.25-2.17,23.25-2.17,48.89-4.35,15.43-.65,30.85-1.52,46.28-2,23.9,0,47.8-.65,71.7,1.74a8.57,8.57,0,0,1,3,1.09c10.21,8.26,19.12,18,28.25,27.81a38,38,0,0,1,2.61,3c2.83,1.52,5,.43,5.87,4.13a10.77,10.77,0,0,0,.43,3.69c3,3.91,6.08,7.82,9.12,11.51v0.65c-3.48.65-2.61,0.22-1.3,2.82,0.65,0.65,2.17,1.74,1.09,2.82-2.39.22-5,.65-7.39,0.87,0.43,1.3,5.21.22,3.69,2.39a20,20,0,0,1-2.17.65c0,0.22,7.82,2.39,14.77,4.78,0.65,0.22.65,0.22,11.3,3,0.87-.22.43-0.87,1.09-1.52,6.52-2.39,13,3.48,20.21,1.74,1.09,0.22,2,.22,3,0.43,0.65,0.22,6.3,2.17,6.3.22-13.47-4.78-27.38-8-41.06-11.52-1.52-.65-2.39-0.65-1.74-2.17,14.12,2.82,28,5.65,42.15,8.47,43.24,9.56,86.47,18.9,129.28,31.07v1.3c0.65,0.87,1.52,1.52-.22,1.52-9.56-2.61-19.34-5.65-28.9-8.47-15.86-4.35-15.86-4.35-32.37-8.47-11.08-2.61-22.38-5.21-33.46-7.82-8-.87-16.51-3.26-24.55-5-1.52.22,0,.43,0.87,0.87,15,4.35,15,4.35,31.07,8.47,20.64,6.52,41.28,12.82,61.7,19.34,8.69,3,17.17,5.87,25.64,8.91,0.43,0.43.22,0.65-.22,0.87-2.39.43-5,.87-7.6,1.3,0-.22-0.22-0.43-0.22-0.65-15-4.78-29.77-10.65-44.54-16.08-12.17-3.48-24.33-7-36.72-10.65-9.78-2.61-19.56-5-29.33-7.6-0.87,0-1.08,0-.65.87,7.82,2.17,7.82,2.17,23.68,6.3,28,8.47,56.27,16.95,83.21,28.46a0.21,0.21,0,0,0,.22.22c-10.21,2.39-19.77,3.26-30,3.91H518.2c0-1.52.65-2.61,0.65-3.91-2-3.91-3.48-4.56-6.74-2.39-4.13,1.74-8,3.26-11.95,5-13.69,5.21-27.59,9.34-41.72,13.25a10.23,10.23,0,0,1-3.69.87c0.43-.87.43-1.09-0.22-1.74-12.38-5-24.77-10.21-37.15-15.43-1.3,0-1.52.65-.43,1.3,12.17,5.21,24.55,10.21,36.94,15.43,0,0.87-1.52.65-10.86,1.09L392,233.39H341.13Z" transform="translate(-31.28 -88.69)"/><path class="cls-1" d="M455.41,228.61c-0.44-.43-2.61-2-1.74-2.82C454.11,225.79,457.37,228.18,455.41,228.61Z" transform="translate(-31.28 -88.69)"/><path class="cls-1" d="M449.33,226.87c-0.22-.22-0.22-0.22-0.44-1.3-1.09-.87-2.17-1.3-3-2-0.43-1.09-1.3-4.35-.43-5h1.3c0.22,1.74-.43,4.13,1.52,5C448.46,224,451.28,226.44,449.33,226.87Z" transform="translate(-31.28 -88.69)"/><path class="cls-1" d="M453.24,224.92c-0.87-.87.65-1.09,1.09-1.3,0.87-.65,2-2,2.39-2.17a0.61,0.61,0,0,1,.65.22C457.37,223.18,454.54,224.7,453.24,224.92Z" transform="translate(-31.28 -88.69)"/><path class="cls-1" d="M450,223.18c-1.3-1.74,2.39-2.39.87-.22A1.31,1.31,0,0,1,450,223.18Z" transform="translate(-31.28 -88.69)"/><path class="cls-1" d="M451.72,219.92c-1.52-.87,0-5.87-1.09-6.08-2,1.3-1.52,2.39-1.74,4.78-1.3,1.09-.43-3.48-0.43-3.91a5.12,5.12,0,0,0,1.3-2c-3,.43-3,1.09-4.34,3.69-1.74,0,.43-3,1.09-3.48,3.48-1.52,5.21-1.3,8.26.22,1.74,1.52,3.48,3.69,2.39,6.3-1.52.65-1.3-1.74-1.3-2.39a8.65,8.65,0,0,0-2.61-3.48c-2.83-.87.43,4.56-0.65,6.3h-0.87Z" transform="translate(-31.28 -88.69)"/><path class="cls-2" d="M594.68,211c-2.82-.87-5.21-1.3-7.82-2.17-1.52-1.52,5.21-1.3,6.3-.22l3.26,1.3C596.42,211.45,596,211,594.68,211Z" transform="translate(-31.28 -88.69)"/><path class="cls-2" d="M581.21,207.32c-3-.65-1.3-1.3-1.3-3-2-1.3-4.13-2.39-6.08-3.48-0.65-2.17,4.56-.43,5.21-0.22a10.24,10.24,0,0,1,2.39,2.82l6.52,2.61C588.6,207.54,582.3,207.32,581.21,207.32Z" transform="translate(-31.28 -88.69)"/><path class="cls-2" d="M34.12,183.85c-0.87-2.17-.87-2.17-1.52-3.69-0.22-4.35-.65-8.69,0-12.82,2.82,0,1.3,7.6,2.17,9.56,2.82,1.74,2.39,3,2,6.52C36.3,183.85,34.78,183.85,34.12,183.85Z" transform="translate(-31.28 -88.69)"/><path class="cls-3" d="M130.81,178.42C117.34,170.82,104.52,163,91.7,155c-0.44-.65-0.22-0.87.43-0.87q18.58,11.73,37.8,22.81a0.43,0.43,0,0,1,.44-0.22c0.65-9.56,1.74-19.12,2.82-28.68-8.26,0-17.16,1.3-25.2,2.17-11.52,1.52-11.52,1.52-15.43,2a3.93,3.93,0,0,1-.43-2.17c1.74-5.87,1.74-5.87,2-6.08,13.25-1.09,26.72-2.17,40.19-3.26,0.43-.87,1.09-2.39-0.22-2.61-35.63,2.61-38.46,3-38.89,2.61,0-.43-0.22-0.87.22-1.09,13-1.09,26.29-2,39.54-2.82,0.65-.65,3.26-18.9,3.69-21.07-0.22-4.56-.43-4.56-4.78-6.08-6.3-1.74-6.3-1.74-7.82-2-2.39,0-4.78-.22-7-0.43-4.13.22-8,.65-12,1.09-1.3.65-2.82,1.09-4.13,1.74a32.21,32.21,0,0,0-5.43,5.43c-3.48,7-6.52,14.12-9.56,21.29-2.17,6.3-3.91,11.73-4.13,12.6-1.74.87-1.74-.44-1.74-1.52,1.3-4.35,2.61-8.47,4.13-12.82,4.35-10,4.35-10,8.69-19.34a20.83,20.83,0,0,1,5.65-6.74c7.6-4.56,18.69-3.91,27.38-3,3.91,1.09,7.39,1.74,11.3,3.69,0.43,0.65.87,1.52,1.3,2.17v4.78c-2.61,16.73-5.65,33.24-7.39,50.19-0.87,11.08-.87,11.08-0.87,11.52A5.73,5.73,0,0,0,130.81,178.42Z" transform="translate(-31.28 -88.69)"/><path class="cls-1" d="M141.24,175.82c-0.65-2-.43-4.78-0.65-6.73,1.52-16.73,3.26-33.89,8-50,2-2.17,3.48-2.17,6.3-3,4.13-.87,8-1.74,12-2.61,28.46-3.69,57.14-6.08,85.82-7.6,24.55-.87,49.1-1.09,73.65-0.43,8.26,0.43,8.26.43,16.51,1.3a6.34,6.34,0,0,0,2,.43c13.47,9.56,25,23.25,36.28,35.2v1.74c1.3,1.52,1.3,1.52,8.91,10.65,0,0.65-1.09.65-1.74,0.87-9.34,1.09-18.9,2.17-28.46,3.26-20.64,1.3-41.28,2.82-61.92,4.13-50.41,4.13-100.81,8.69-151.22,12.82h-5.43Z" transform="translate(-31.28 -88.69)"/><path class="cls-2" d="M86.7,174.29c-2-.22-8.47-2.17-7-5.43,0.65-.43,4.56-0.65,5.21.22,0,2-2.83,1.52-.43,3a33.13,33.13,0,0,0,3.91.43C90.4,173.86,87.79,174.29,86.7,174.29Z" transform="translate(-31.28 -88.69)"/><path class="cls-3" d="M384.36,151.48c-2.39-.22-5-0.65-7.39-0.87a256.45,256.45,0,0,0-25.85-.22c-3.26-.65-6.74-1.52-10.21-2.17-3.48-.22-6.74-0.65-10.21-1.09-2.82-.87-5.21-2.82-7.82-4.13-4.78-2-13.69-2.61-17.82.65-1.52,2-3,.43-4.34-0.65-1.52-2-2.83-3.91-4.35-6.08-2.82-9.13-6.3-18-9.56-27.16-0.22-1.09-.87-2.17-0.65-3.26,17.6-.65,35.63-1.3,53.23.43a33.61,33.61,0,0,1,4.56.87c5.43,4.35,11.08,8.91,16.3,13.69,5.43,5.87,10.86,11.95,16.3,18,6.74,8.91,6.74,8.91,8.91,11.52C385.23,151.7,385,151.48,384.36,151.48Z" transform="translate(-31.28 -88.69)"/><path class="cls-3" d="M315.27,146.92c-9.13-.43-9.13-0.43-9.34-0.43,0.43-1.09,2.17-2,3-2.61,5-.65,10.86-0.87,15.43,1.74C325.48,147.35,322.66,146.7,315.27,146.92Z" transform="translate(-31.28 -88.69)"/><path class="cls-2" d="M80.4,146.27c-2.82-1.3-5.43-2.61-8-4.13-0.43-.65-0.22-0.65.43-0.65A76.77,76.77,0,0,0,80,145.18C80.84,145.4,82.14,146,80.4,146.27Z" transform="translate(-31.28 -88.69)"/><path class="cls-3" d="M194.9,144.31a6.2,6.2,0,0,1-1.74-3c-0.43-.65-2.17-3.26-1.52-3.91,20.21-.87,40.85-2.39,61.27-2.17,0.65,0.65-1.09,3.26-1.3,4.13a3,3,0,0,1-.65,1.3C232.28,141.27,213.59,142.57,194.9,144.31Z" transform="translate(-31.28 -88.69)"/><path class="cls-3" d="M96.26,137.79c-0.43-4.78,2.61-10.21,4.13-14.56,1.3-2.61,2.61-5,3.91-7.6a24.88,24.88,0,0,1,5-2.17,101.5,101.5,0,0,1,28,1.74c-2.17,12.38-2.17,12.38-3.48,19.55-1.3.22-17.82,1.3-30.42,2.17C101,137.36,98.65,137.58,96.26,137.79Z" transform="translate(-31.28 -88.69)"/><path class="cls-3" d="M147.32,137.58a1.44,1.44,0,0,1-.22-1.3c1.09-5.65,1.52-11.95,3.69-17.16,0.43-.22.65-0.43,1.09-0.65,11.73-2.61,23.9-3.69,35.85-5.43,16.51-1.3,33-2.17,49.76-3.69,10.43-.44,10.43-0.44,16.08-0.65,2.17,1.09,4.56,7.82,4.56,10.65a12.16,12.16,0,0,0-2.17.44l-11.73.65c-3.91.87-3.91,0.43-4.13,4.35,0.65,2.61.65,2.61,0.87,2.82,4.78,1.3,10.43-1.74,15,.43,0.22,0.87-1.09,4.13-1.52,4.56-13.91,0-27.59.65-41.28,1.09-23.25,1.09-23.25,1.09-25,1.09a41.53,41.53,0,0,0-3.69-2.82c-9.12-2.61-20-1.74-29.11.22-3.48,1.3-3.48,1.3-3.91,1.74C150.58,135,148.63,137.14,147.32,137.58Z" transform="translate(-31.28 -88.69)"/><path class="cls-2" d="M258.78,124.32c-1.3-.87-0.22-1.74.43-2.82,0-1.74.22-2.82,0.22-4.13-0.65-2.61-1.74-5.43-1.74-7.82,0.87-1.09,2.61-1.52,3.48-.22,0.22,1.52.22,1.52,1.09,9.13a55,55,0,0,0,8.47,0c3.26,0.65,2.61,2,2.61,5-2.39,0-.65-1.52-2-2.61-4.13-.22-4.13-0.22-8.47-0.22-1.74,1.09-1.74.87-2,2.82A2.22,2.22,0,0,1,258.78,124.32Z" transform="translate(-31.28 -88.69)"/></svg>