<svg id="Layer_1" data-name="Layer 1" xmlns="http://www.w3.org/2000/svg" viewBox="0 0 249.31 319.26"><defs><style>.cls-1{fill:#fa3d5e;}.cls-2{fill:#fff2e3;}</style></defs><title>become-logo</title><path class="cls-1" d="M244.36,169.69C233.94,110.74,238.22,9.64,157.9,1,118.43-3.25,75,5.85,43.78,31.23,25.22,46.34,2.81,68.8.21,93.88c-3.42,33,35.15,37.5,39.48,66.45,4.14,27.69-13.76,53.07-7.55,81.36,10.11,46.16,60.26,77.92,105.68,77.56,39.11-.3,80.38-13.82,99.48-50.21,16.44-31.32,13.07-65.36,7.06-99.36"/><path class="cls-2" d="M102.48,69.15c2.91,0,5.71.15,8.48,0a4.75,4.75,0,0,0,4.69-4,22.52,22.52,0,0,0,.07-6.22A4.21,4.21,0,0,0,112.17,55c-3.18-.44-6.41-0.43-9.7-0.62V69.15Zm0,27.92c3,0,5.92.13,8.79,0,3.17-.18,5.41-2,5.88-4.88a22.61,22.61,0,0,0,.13-6.24c-0.38-3.16-1.92-4.82-5-5.21s-6.46-.32-9.76-0.45V97.07Zm19.95-23.64a56.4,56.4,0,0,1,5.82,3.69,12.19,12.19,0,0,1,4,7.33,26.41,26.41,0,0,1-.7,13.42,14,14,0,0,1-11,9.8,43,43,0,0,1-8.42,1c-6.42.14-12.84,0.05-19.27,0-2.93,0-4.38-1.47-4.38-4.43q0-28.47,0-56.93c0-2.82,1.38-4.37,4-4.37,7.29,0,14.58-.07,21.86.07a22.89,22.89,0,0,1,6.27,1.13,12.83,12.83,0,0,1,8.86,9.49,24,24,0,0,1,.14,11.86,10.69,10.69,0,0,1-6.1,7.33l-1.18.59"/><path class="cls-2" d="M157.36,54.93V68.62c0.48,0,.91.07,1.35,0.07,3.67,0,7.33,0,11,0,2.84,0,4.32,1.5,4.34,4.35,0,1.07,0,2.14,0,3.21a3.86,3.86,0,0,1-4.16,4.06c-4.11,0-8.23,0-12.46,0V96.6h17.93c3.15,0,4.5,1.37,4.51,4.51,0,1.16,0,2.31,0,3.46-0.05,2.63-1.53,4.1-4.19,4.13-3.33,0-6.67,0-10,0H147.75c-3.19,0-4.59-1.41-4.59-4.61q0-28.29,0-56.57c0-3.19,1.39-4.57,4.6-4.57h25.94c3.17,0,4.56,1.42,4.56,4.63,0,1.07,0,2.14,0,3.21,0,2.64-1.52,4.14-4.15,4.14-5.11,0-10.21,0-15.32,0h-1.44Z"/><path class="cls-2" d="M92.11,222.57c0.19,3.93.49,7.88,0.53,11.82,0.14,11.9.2,23.8,0.24,35.7a3.73,3.73,0,0,1-4,3.94c-1.32,0-2.64,0-4,0-2.79,0-4.26-1.5-4.26-4.3q0-12.66,0-25.32,0-15.69,0-31.37c0-3.43,1.33-4.75,4.79-4.75,3.25,0,6.51,0,9.76,0a5,5,0,0,1,5.26,4.09c2.31,9.13,4.7,18.25,6.86,27.41,0.86,3.63,1.2,7.38,1.71,10.67,0.34-2.48.55-5.43,1.16-8.29,2-9.49,4.24-18.95,6.38-28.41a20.24,20.24,0,0,1,.53-2.16,4.26,4.26,0,0,1,4-3.22c4.36-.13,8.73-0.11,13.09,0a3.53,3.53,0,0,1,3.45,3.41,12.56,12.56,0,0,1,0,1.36q0,28,0,56.08a7.31,7.31,0,0,1-.46,2.76,3.43,3.43,0,0,1-3.26,2.06c-2,.06-4,0.07-6.05,0a3.74,3.74,0,0,1-3.79-3.77c-0.07-1.52,0-3,0-4.57,0.13-12.15.24-24.29,0.41-36.43,0-2.67.29-5.33,0.35-8-0.62,3.49-1,7-1.89,10.45-2.28,9.22-4.71,18.4-7.15,27.58a4.9,4.9,0,0,1-5.08,3.87c-1.56,0-3.13,0-4.69,0a5.06,5.06,0,0,1-5.29-4.1c-1.67-6-3.51-12-4.95-18.09s-2.47-12.25-3.68-18.36"/><path class="cls-2" d="M165.26,245.64v16.29h1.51c5.52,0,11,0,16.55,0,3,0,4.4,1.4,4.41,4.37,0,1.2,0,2.39,0,3.58,0,2.63-1.51,4.12-4.17,4.15s-5.35,0-8,0H155.65c-3.19,0-4.61-1.41-4.61-4.59q0-28.29,0-56.59c0-3.18,1.41-4.58,4.61-4.58h25.94c3.15,0,4.58,1.45,4.6,4.62,0,1.07,0,2.14,0,3.21-0.05,2.64-1.54,4.14-4.17,4.15-5.11,0-10.21,0-15.32,0h-1.41v13.69c0.43,0,.86.06,1.3,0.06,3.67,0,7.33,0,11,0,2.85,0,4.33,1.49,4.36,4.33,0,1,0,2.06,0,3.09-0.06,2.68-1.59,4.19-4.27,4.2-3.67,0-7.33,0-11,0h-1.4Z"/><path class="cls-2" d="M170.21,158.42l-0.43,0c0-1.89.07-3.79,0-5.68-0.18-3.91-.45-7.82-2-11.5-1-2.32-2.47-4.18-5-4.76-7.6-1.74-11.4,1-13,7.14-0.09.35-.17,0.72-0.24,1.08a76.3,76.3,0,0,0-.89,18.71,65.68,65.68,0,0,0,1.47,10.85c0.84,3.7,3.14,6.35,7.23,6.75,3.67,0.36,7.23.06,9.39-3.46a13.89,13.89,0,0,0,2-5.14c0.66-4.63,1-9.31,1.46-14m15,1.91a54.65,54.65,0,0,1-2.27,16c-1.66,5.33-4.44,9.9-9.35,12.88a23.19,23.19,0,0,1-9.92,3.14,35.3,35.3,0,0,1-13.58-1c-7.47-2.2-12.14-7.37-14.29-14.62a63.3,63.3,0,0,1,0-36.15,21.13,21.13,0,0,1,9.71-12.91c4.45-2.59,9.34-3.29,14.39-3.23,4.76,0.05,9.35.83,13.5,3.32,5,3,7.85,7.62,9.55,13,1.64,5.26,2.31,10.79,2.28,19.52"/><path class="cls-2" d="M83.27,158.61c0-6.23.34-12.43,2.31-18.41,2.1-6.36,5.78-11.33,12.2-13.89A30.17,30.17,0,0,1,109,124.44a29,29,0,0,1,13.53,2.79,3.78,3.78,0,0,1,1.84,5.57q-0.93,1.88-2,3.71a3.64,3.64,0,0,1-5,1.67,18.14,18.14,0,0,0-10.71-1.51,7.21,7.21,0,0,0-6.36,5.44A36.69,36.69,0,0,0,99,149.37a84,84,0,0,0,.63,21.06,24.89,24.89,0,0,0,2,6,6.86,6.86,0,0,0,5.32,3.81,15.08,15.08,0,0,0,10.28-1.55c2.9-1.64,4.66-1.17,6.38,1.67q0.73,1.22,1.43,2.45c1.45,2.59.87,4.73-1.71,6.27a22.84,22.84,0,0,1-9.53,3.16c-5.88.59-11.68,0.33-17.18-2.18a20.06,20.06,0,0,1-10.26-11c-2.22-5.24-2.91-10.78-3.16-16.4-0.06-1.35,0-2.72,0-4.07"/></svg>