<svg xmlns="http://www.w3.org/2000/svg" width="43.994" height="46" viewBox="0 0 43.994 46">
  <path id="email" d="M26.43,2A23.48,23.48,0,0,0,3.006,25.217v.045A23,23,0,0,0,25.951,48c7.719,0,14.248-2.313,19.586-8.719a2,2,0,1,0-3.074-2.563C37.8,42.313,32.945,44,25.951,44A18.942,18.942,0,0,1,7.008,25.238,19.421,19.421,0,0,1,26.43,6a18.018,18.018,0,0,1,11.578,4.063A13.837,13.837,0,0,1,43,20.988v.387a13.454,13.454,0,0,1-3.783,8.949C37.027,32.673,34.223,34,32.566,34c-.367,0-.352-.046-.381-.078A1.491,1.491,0,0,1,32,33v-.051l0-.051a14.067,14.067,0,0,1,1.207-5.605s0-.008,0-.012l4.645-11.533a2,2,0,1,0-3.709-1.5l-.258.643a7.341,7.341,0,0,0-1.225-1.172A9.7,9.7,0,0,0,26.713,12c-2.895,0-6.062,1.645-8.83,4.492a17.557,17.557,0,0,0-4.988,12.316A9.2,9.2,0,0,0,28.488,35.42a4.3,4.3,0,0,0,.707,1.158A4.531,4.531,0,0,0,32.566,38c3.4,0,6.814-1.986,9.576-4.949A17.323,17.323,0,0,0,47,21.375v-.387A18.072,18.072,0,0,0,40.6,7.014,21.909,21.909,0,0,0,26.43,2Zm.283,14a5.787,5.787,0,0,1,3.549.922,4.665,4.665,0,0,1,1.631,2.92l-2.381,5.914L28.164,29.1l-.006.01a18.449,18.449,0,0,1-2.326,3.324A4.807,4.807,0,0,1,22.07,34a5.154,5.154,0,0,1-5.176-5.191,13.426,13.426,0,0,1,3.858-9.527C22.9,17.069,25.645,16,26.713,16Z" transform="translate(-3.006 -2)" fill="#d94244"/>
</svg>
