<svg xmlns="http://www.w3.org/2000/svg" width="270.881" height="29.164" viewBox="0 0 270.881 29.164">
  <g id="General_Assembly_logo" transform="translate(-64.106 -166.152)">
    <g id="g425" transform="translate(64.107 166.152)">
      <path id="path50" d="M73.124,168.419a7.085,7.085,0,0,0-1.757,5.022v13.177A6.865,6.865,0,0,0,72.99,191.6q1.624,1.663,5.175,1.663a6.77,6.77,0,0,0,4.909-1.679,6.559,6.559,0,0,0,1.736-4.93v-8.27H78.393v4.494H79.9v4.04a1.275,1.275,0,0,1-.48,1.039,2,2,0,0,1-1.272.4c-.638,0-1.22-.164-1.394-.492a2.173,2.173,0,0,1-.256-1.018v-13.4a3.233,3.233,0,0,1,.073-.624,2.033,2.033,0,0,1,.259-.66,1.646,1.646,0,0,1,.5-.511,1.491,1.491,0,0,1,.831-.2,1.394,1.394,0,0,1,1.237.773,4.007,4.007,0,0,1,.5,1.944l4.984-.869a7.429,7.429,0,0,0-.247-2.683,5.209,5.209,0,0,0-1.208-2.15,5.759,5.759,0,0,0-2.153-1.418,8.448,8.448,0,0,0-3.076-.509,6.589,6.589,0,0,0-5.079,1.889m25.923,24.62v-4.911H92.135v-5.964h6.044v-4.911H92.135v-5.587h6.913v-4.909H87V193.04ZM110.186,180.4l-4.871-13.638h-4.5V193.04h5.137V179.174h.188l4.888,13.865H115.4V166.758h-5.022V180.4ZM130.2,193.04v-4.911h-6.913v-5.964h6.044v-4.911h-6.044v-5.587H130.2v-4.909H118.153V193.04Zm1.885-26.281V193.04h5.137V182.8h1.018l3.1,10.235h5.248l-3.774-11.4a6.12,6.12,0,0,0,2.19-2.72,11.339,11.339,0,0,0,.719-4.379,10.657,10.657,0,0,0-.549-3.644,6.18,6.18,0,0,0-1.528-2.415,5.692,5.692,0,0,0-2.344-1.322,10.63,10.63,0,0,0-2.982-.4Zm6.082,4.909a2.652,2.652,0,0,1,1.9.7,2.927,2.927,0,0,1,.737,2.21,4.913,4.913,0,0,1-.226,1.642,2.572,2.572,0,0,1-.624,1,2.074,2.074,0,0,1-.886.511,4.145,4.145,0,0,1-1.058.131h-.792v-6.191Zm19.106,21.372h5.4l-5.022-26.281h-6.268L146.4,193.04h5.437l.794-5.137h3.851Zm-2.832-19.487h.226l.566,5.326.492,4.19h-2.379l.528-4.19Zm21.6,19.487v-4.911h-6.911V166.758h-5.133V193.04Zm17.747,0h5.4l-5.022-26.28H187.9l-4.986,26.281h5.439l.792-5.137h3.851Zm-2.833-19.487h.226l.567,5.326.492,4.19h-2.377l.527-4.19ZM213.4,182.6a5.835,5.835,0,0,0-.711-2.134,5.925,5.925,0,0,0-1.6-1.738,12.383,12.383,0,0,0-2.855-1.51,10.758,10.758,0,0,1-1.637-.775,3.386,3.386,0,0,1-.883-.737,1.8,1.8,0,0,1-.377-.792,5.4,5.4,0,0,1-.075-.942,7.154,7.154,0,0,1,.057-.872,2.745,2.745,0,0,1,.224-.812,1.762,1.762,0,0,1,.465-.6,1.259,1.259,0,0,1,.822-.243,1.471,1.471,0,0,1,.876.226,1.577,1.577,0,0,1,.506.62,2.878,2.878,0,0,1,.241.888,8.913,8.913,0,0,1,.057,1.058l5.06-1.1a9.067,9.067,0,0,0-.3-2.264,5.946,5.946,0,0,0-1.037-2.134,5.561,5.561,0,0,0-2.019-1.585,7.438,7.438,0,0,0-3.248-.624,7.9,7.9,0,0,0-3.154.567,5.524,5.524,0,0,0-2.115,1.545A6.213,6.213,0,0,0,200.507,171a11.32,11.32,0,0,0-.377,3,13.619,13.619,0,0,0,.188,2.358,5.425,5.425,0,0,0,.812,2.033,7,7,0,0,0,1.793,1.811,15.169,15.169,0,0,0,3.1,1.639,11.449,11.449,0,0,1,1.208.584,2.564,2.564,0,0,1,.773.662,2.225,2.225,0,0,1,.4.9,6.343,6.343,0,0,1,.115,1.317q0,.565-.057,1.133a3.633,3.633,0,0,1-.223.98,1.722,1.722,0,0,1-.488.68,1.33,1.33,0,0,1-.874.262,1.343,1.343,0,0,1-1.328-.716,5.727,5.727,0,0,1-.429-2.153l-5.175.98a8.947,8.947,0,0,0,.379,2.633,5.788,5.788,0,0,0,1.19,2.167,5.467,5.467,0,0,0,2.115,1.467,8.256,8.256,0,0,0,3.114.532,8.485,8.485,0,0,0,3.323-.565,5.012,5.012,0,0,0,2.1-1.606,6.462,6.462,0,0,0,1.1-2.513,15.594,15.594,0,0,0,.322-3.286,18.964,18.964,0,0,0-.172-2.7m15.179,0a5.833,5.833,0,0,0-.712-2.134,5.911,5.911,0,0,0-1.6-1.738,12.368,12.368,0,0,0-2.857-1.51,10.843,10.843,0,0,1-1.637-.775,3.386,3.386,0,0,1-.883-.737,1.779,1.779,0,0,1-.377-.792,5.413,5.413,0,0,1-.073-.942,7.148,7.148,0,0,1,.057-.872,2.566,2.566,0,0,1,.222-.812,1.726,1.726,0,0,1,.467-.6,1.254,1.254,0,0,1,.822-.243,1.475,1.475,0,0,1,.876.226,1.569,1.569,0,0,1,.5.62,2.893,2.893,0,0,1,.245.888,10.133,10.133,0,0,1,.054,1.058l5.06-1.1a9.058,9.058,0,0,0-.3-2.264,5.924,5.924,0,0,0-1.039-2.134,5.54,5.54,0,0,0-2.021-1.585,7.429,7.429,0,0,0-3.246-.624,7.9,7.9,0,0,0-3.154.566,5.536,5.536,0,0,0-2.115,1.545,6.216,6.216,0,0,0-1.19,2.355,11.382,11.382,0,0,0-.377,3,13.763,13.763,0,0,0,.19,2.358,5.467,5.467,0,0,0,.813,2.033A6.971,6.971,0,0,0,218.1,180.2a15.04,15.04,0,0,0,3.095,1.639,11.139,11.139,0,0,1,1.208.584,2.51,2.51,0,0,1,.775.662,2.253,2.253,0,0,1,.4.9,6.618,6.618,0,0,1,.111,1.317c0,.377-.02.754-.054,1.133a3.5,3.5,0,0,1-.226.98,1.692,1.692,0,0,1-.483.68,1.592,1.592,0,0,1-2.205-.453,5.717,5.717,0,0,1-.429-2.153l-5.173.98a8.995,8.995,0,0,0,.377,2.633,5.839,5.839,0,0,0,1.19,2.167,5.493,5.493,0,0,0,2.115,1.467,8.249,8.249,0,0,0,3.114.532,8.486,8.486,0,0,0,3.323-.565,5.017,5.017,0,0,0,2.1-1.606,6.459,6.459,0,0,0,1.095-2.513,15.47,15.47,0,0,0,.32-3.286,18.981,18.981,0,0,0-.17-2.7m14.331,10.44V188.13H236v-5.964h6.044v-4.911H236v-5.587h6.913v-4.909H230.866V193.04Zm12.393-5.137,2.407-9.568h.3v14.7h5.135V166.759h-4.8l-2.567,6.909-1.814,5.326h-.226l-1.774-5.213-2.607-7.022h-4.794V193.04h5.137V178.224h.34l2.443,9.679Zm16.3-11.026h-.878v-5.608h.765a2.661,2.661,0,0,1,1.812.511c.379.339.568,1.091.568,2.454q0,2.646-2.268,2.643m2.417,9.305a3.371,3.371,0,0,1-.322,1.136,1.968,1.968,0,0,1-.681.782,2.089,2.089,0,0,1-1.15.282h-1.142v-6.748h1.18a2.035,2.035,0,0,1,1.642.645,3.517,3.517,0,0,1,.547,2.242c0,.507-.025,1.229-.075,1.661m1.889-7.078a3.5,3.5,0,0,0,1.3-.792,4.563,4.563,0,0,0,.888-1.208,6.335,6.335,0,0,0,.507-1.453,7.228,7.228,0,0,0,.17-1.569,7.682,7.682,0,0,0-1.755-5.476,6.944,6.944,0,0,0-5.27-1.849h-5.926V193.04h5.814a7.193,7.193,0,0,0,5.514-1.983q1.848-1.981,1.849-6.212a10.248,10.248,0,0,0-.151-1.776,6,6,0,0,0-.509-1.6,4.624,4.624,0,0,0-.944-1.3,3.849,3.849,0,0,0-1.491-.869ZM292.88,193.04v-4.911h-6.494V166.758h-5.133V193.04Zm5.267-16.691-2.212-9.59h-5.47l5.135,15.594V193.04h5.135V182.353l5.1-15.594H300.4l-2.063,9.59Z" transform="translate(-34.95 -165.317)" fill="#fff"/>
      <g id="g419" transform="translate(0)">
        <path id="path54" d="M68.642,169.218a1.3,1.3,0,1,0,1.284,1.3,1.293,1.293,0,0,0-1.284-1.3" transform="translate(-50.692 -154.766)" fill="#fff"/>
        <path id="path58" d="M83.153,189.391l-.527-4.143h-1.4l-.526,4.143H78.244L80.5,172.342h2.826l2.264,17.049Zm-5.462-11.422H75.373v-2.575a1.309,1.309,0,0,0-.035-.285.992.992,0,0,0-.116-.3.728.728,0,0,0-.228-.233.665.665,0,0,0-.374-.1.329.329,0,0,0-.034,0v0a.684.684,0,0,0-.375.1.744.744,0,0,0-.226.233.953.953,0,0,0-.115.3,1.313,1.313,0,0,0-.034.285v11.17a1.017,1.017,0,0,0,.116.467c.076.149.263.224.549.224a.819.819,0,0,0,.547-.183.584.584,0,0,0,.217-.473v-3.227h-.511V181.32h2.829v5.156a2.714,2.714,0,0,1-3,3.02,3.125,3.125,0,0,1-2.335-.759,3.172,3.172,0,0,1-.733-2.276V175.393a3.253,3.253,0,0,1,.8-2.294,3.474,3.474,0,0,1,4.581,0,3.259,3.259,0,0,1,.794,2.294Zm13.678,2.9a1.769,1.769,0,0,1,1.769-1.767l-.436-2.181a1.766,1.766,0,1,1-1.35-3.263L90.115,171.8a1.766,1.766,0,0,1-2.5-2.5l-1.851-1.236a1.766,1.766,0,1,1-3.263-1.352l-2.181-.434a1.767,1.767,0,1,1-3.535,0l-2.181.434a1.766,1.766,0,0,1-3.263,1.352l-1.852,1.237a1.766,1.766,0,1,1-2.5,2.5l-1.236,1.851a1.766,1.766,0,0,1-1.352,3.263l-.433,2.181a1.766,1.766,0,0,1,0,3.533l.433,2.183a1.767,1.767,0,0,1,1.352,3.265l1.236,1.849a1.766,1.766,0,0,1,2.5,2.5l1.852,1.234a1.766,1.766,0,0,1,3.263,1.352l2.181.434a1.767,1.767,0,0,1,3.535,0l2.181-.434a1.766,1.766,0,0,1,3.263-1.352l1.851-1.234a1.766,1.766,0,1,1,2.5-2.5l1.237-1.852a1.766,1.766,0,1,1,1.352-3.263l.434-2.183a1.769,1.769,0,0,1-1.769-1.765" transform="translate(-63.974 -166.284)" fill="#fff"/>
      </g>
    </g>
  </g>
</svg>
