<svg xmlns="http://www.w3.org/2000/svg" width="260.763" height="162.227" viewBox="0 0 260.763 162.227">
  <path id="quote-bg" d="M219.68-19.6q-28.649,0-41.512,20.424a73.648,73.648,0,0,0-9.355,21.591,101.39,101.39,0,0,0-3.508,26.843q0,30.344,15.494,54.854t45.9,38.514l5.262-10.5a77.866,77.866,0,0,1-29.526-21.591q-12.57-14.589-14.909-29.761a55.225,55.225,0,0,1-1.754-13.422,34.77,34.77,0,0,1,1.754-11.087q12.863,14.005,33.911,14.005,20.463,0,33.326-11.963t12.863-32.97q0-19.841-13.447-32.387T219.68-19.6Zm-158.446,0Q32.585-19.6,19.723.824a73.65,73.65,0,0,0-9.355,21.591A101.39,101.39,0,0,0,6.86,49.259q0,30.344,15.494,54.854t45.9,38.514l5.262-10.5a77.866,77.866,0,0,1-29.526-21.591Q31.416,95.943,29.077,80.77a55.223,55.223,0,0,1-1.754-13.422,34.769,34.769,0,0,1,1.754-11.087Q41.94,70.266,62.988,70.266q20.463,0,33.326-11.963t12.863-32.97q0-19.841-13.447-32.387T61.234-19.6Z" transform="translate(-6.86 19.6)" fill="#f1f1f1"/>
</svg>
