<svg width="100" height="35" viewBox="0 0 100 35" fill="none" xmlns="http://www.w3.org/2000/svg">
<g clip-path="url(#clip0_474_101)">
<path d="M79.26 2.17008H81.88V1.21008H72.74V2.17008H75.38V20.5701H72.74V21.5301H81.88V20.5701H79.26V2.17008Z" fill="white"/>
<path d="M95.9 21.53V20.53H93.1V1.99999C97.38 1.77999 98.1 2.69999 98.66 6.58999H99.6L99.27 1.23999H83L82.67 6.58999H83.67C84.19 2.66999 84.91 1.74999 89.2 1.99999V20.6H86.4V21.6H95.9" fill="white"/>
<path d="M34.58 9.92004V2.17004H37.22C39.93 2.17004 40.94 2.85004 40.94 6.26004C40.94 8.99004 39.81 9.92004 37.07 9.92004H34.58ZM71 2.17004V1.17004H63.5L59.09 15.1L54.84 1.21004H47.37V2.21004H50V20.61H47.16C46.8012 20.6533 46.4372 20.6146 46.0954 20.4969C45.7537 20.3792 45.4431 20.1855 45.1871 19.9304C44.931 19.6753 44.7361 19.3655 44.6171 19.0242C44.4981 18.6829 44.4581 18.319 44.5 17.96C44.5 12.96 43.43 11.21 38.68 10.47V10.41C41.51 10.11 45.13 9.30004 45.13 5.87004C45.13 1.64004 41.19 1.25004 37.86 1.25004H28.06V2.25004H30.68V20.65H28.06V21.65H37.2V20.65H34.58V10.95C36.128 10.8146 37.6783 11.1829 39 12C39.79 12.67 40.22 14.76 40.22 17.27C40.22 20.38 41.82 21.56 44.9 21.56H53.71V20.56H51.16V2.48004H51.23L57.23 21.53H58.23L64.32 2.53004H64.41V20.57H61.87V21.57H71V20.57H68.38V2.17004H71Z" fill="white"/>
<path d="M30.68 27.6801C30.6857 27.6509 30.6852 27.621 30.6785 27.5921C30.6719 27.5631 30.6591 27.536 30.6412 27.5124C30.6232 27.4888 30.6005 27.4692 30.5744 27.455C30.5483 27.4408 30.5196 27.4323 30.49 27.4301H30V26.4301H31.14C31.65 26.4301 31.86 26.6401 31.86 27.1501V31.5601C31.86 32.0666 32.0612 32.5524 32.4194 32.9106C32.7776 33.2688 33.2634 33.4701 33.77 33.4701C34.2766 33.4701 34.7624 33.2688 35.1206 32.9106C35.4788 32.5524 35.68 32.0666 35.68 31.5601V27.1601C35.68 26.6501 35.9 26.4401 36.41 26.4401H37.54V27.4401H37C36.9716 27.4359 36.9427 27.4375 36.915 27.4449C36.8873 27.4523 36.8614 27.4653 36.8389 27.4831C36.8164 27.5009 36.7978 27.5232 36.7842 27.5484C36.7707 27.5737 36.7624 27.6015 36.76 27.6301C36.7547 27.6392 36.752 27.6495 36.752 27.6601C36.752 27.6706 36.7547 27.6809 36.76 27.6901V31.6901C36.7748 32.0844 36.7067 32.4774 36.5601 32.8437C36.4135 33.21 36.1917 33.5415 35.9089 33.8167C35.6262 34.0919 35.2888 34.3048 34.9186 34.4414C34.5485 34.5781 34.1538 34.6355 33.76 34.6101C33.3666 34.634 32.9726 34.5754 32.6031 34.4382C32.2337 34.301 31.8969 34.0881 31.6145 33.8132C31.3321 33.5383 31.1102 33.2075 30.963 32.8419C30.8159 32.4763 30.7467 32.0839 30.76 31.6901L30.68 27.6801Z" fill="white"/>
<path d="M38.25 33.4501H38.74C38.7697 33.4543 38.7999 33.4523 38.8288 33.4444C38.8578 33.4365 38.8847 33.4228 38.9082 33.404C38.9316 33.3853 38.9509 33.362 38.965 33.3355C38.9791 33.309 38.9876 33.28 38.99 33.2501V26.4601H39.99L43.53 31.4601C43.83 31.8901 44.2 32.5501 44.2 32.5501C44.2 32.1901 44.13 31.8201 44.12 31.4601V27.1801C44.12 26.6701 44.34 26.4601 44.86 26.4601H46V27.4601H45.51C45.4811 27.4559 45.4516 27.4575 45.4233 27.4648C45.395 27.4721 45.3684 27.4849 45.3451 27.5026C45.3219 27.5203 45.3023 27.5425 45.2877 27.5678C45.2731 27.5931 45.2637 27.6211 45.26 27.6501V34.4501H44.26L40.7 29.4501C40.41 29.0201 40.05 28.3701 40.05 28.3701C40.05 28.3701 40.11 29.0101 40.11 29.4501V33.7001C40.11 34.2101 39.9 34.4201 39.39 34.4201H38.25V33.4501Z" fill="white"/>
<path d="M47.25 33.4501H48V27.4501H47.22V26.4501H49.85V27.4501H49.1V33.4501H49.88V34.4501H47.25V33.4501Z" fill="white"/>
<path d="M51.11 27.6801C51.0931 27.5984 51.0449 27.5265 50.9758 27.4798C50.9067 27.4332 50.8221 27.4153 50.74 27.4301H50.58V26.4301H51.21C51.77 26.4301 51.97 26.5501 52.15 27.0801L53.9 32.0001C54.04 32.4301 54.2 33.1001 54.2 33.1001C54.29 32.7301 54.39 32.3601 54.51 32.0001L56.26 27.0901C56.45 26.5601 56.63 26.4401 57.19 26.4401H57.83V27.4401H57.67C57.46 27.4401 57.36 27.4401 57.3 27.6901L54.79 34.4301H53.59L51.11 27.6801Z" fill="white"/>
<path d="M59.23 27.4301H58.5V26.4301H63.19C63.69 26.4301 63.91 26.6401 63.91 27.1501V28.1501H62.91V27.6501C62.9142 27.6211 62.9126 27.5916 62.9053 27.5633C62.898 27.535 62.8851 27.5085 62.8675 27.4852C62.8498 27.4619 62.8276 27.4424 62.8023 27.4278C62.777 27.4132 62.749 27.4037 62.72 27.4001H60.37V29.8901H63.15V30.8901H60.37V33.2101C60.3658 33.2392 60.3677 33.2689 60.3757 33.2973C60.3837 33.3257 60.3976 33.352 60.4165 33.3746C60.4354 33.3973 60.4588 33.4157 60.4852 33.4287C60.5117 33.4417 60.5406 33.449 60.57 33.4501H62.94C62.9697 33.4542 62.9999 33.4523 63.0288 33.4444C63.0578 33.4365 63.0847 33.4227 63.1082 33.404C63.1316 33.3853 63.1509 33.362 63.165 33.3355C63.1791 33.309 63.1876 33.2799 63.19 33.2501V32.7001H64.19V33.7001C64.19 34.2101 63.98 34.4201 63.47 34.4201H60C59.49 34.4201 59.27 34.2101 59.27 33.7001L59.23 27.4301Z" fill="white"/>
<path d="M65.81 27.4301H65.07V26.4301H68.55C68.8646 26.4053 69.1808 26.4481 69.4774 26.5557C69.7741 26.6634 70.0442 26.8333 70.2697 27.054C70.4952 27.2748 70.6708 27.5412 70.7847 27.8355C70.8986 28.1298 70.9481 28.445 70.93 28.7601C70.9817 29.228 70.8666 29.6992 70.605 30.0906C70.3434 30.4821 69.9521 30.7687 69.5 30.9C69.644 30.9837 69.7591 31.1093 69.83 31.2601L70.83 33.16C70.95 33.4 71.13 33.42 71.4 33.42H71.55V34.42H71C70.38 34.42 70.16 34.3501 69.9 33.8301L68.81 31.6801C68.61 31.3101 68.46 31.2501 68.02 31.2501H67.02V34.42H65.8L65.81 27.4301ZM68.4 30.2801C68.589 30.2914 68.7781 30.2613 68.9542 30.1919C69.1303 30.1226 69.2892 30.0156 69.4197 29.8784C69.5501 29.7413 69.6491 29.5773 69.7096 29.398C69.7701 29.2186 69.7907 29.0282 69.77 28.84C69.791 28.655 69.771 28.4675 69.7114 28.291C69.6519 28.1145 69.5542 27.9532 69.4254 27.8187C69.2966 27.6841 69.1397 27.5796 68.966 27.5124C68.7922 27.4452 68.6058 27.4171 68.42 27.4301H66.93V30.2801H68.4Z" fill="white"/>
<path d="M73 32.5701C73.2502 32.8612 73.556 33.0996 73.8994 33.2713C74.2428 33.443 74.6169 33.5446 75 33.5701C75.1685 33.588 75.3389 33.5712 75.5006 33.5207C75.6623 33.4702 75.812 33.3871 75.9404 33.2766C76.0688 33.166 76.1731 33.0303 76.247 32.8778C76.3209 32.7253 76.3628 32.5593 76.37 32.3901C76.37 30.7201 72.52 30.9801 72.52 28.4901C72.5364 28.1833 72.614 27.883 72.7484 27.6068C72.8827 27.3306 73.071 27.0841 73.3022 26.8818C73.5333 26.6796 73.8026 26.5256 74.0942 26.4292C74.3858 26.3327 74.6938 26.2956 75 26.3201C75.85 26.3201 77.27 26.7101 77.27 27.7901V28.4401H76.27V28.0701C76.27 27.6501 75.68 27.3501 75.04 27.3501C74.19 27.3501 73.64 27.8201 73.64 28.4201C73.64 30.0401 77.48 29.6701 77.48 32.2901C77.4744 32.609 77.4032 32.9234 77.2706 33.2135C77.1381 33.5037 76.9471 33.7634 76.7097 33.9764C76.4723 34.1895 76.1935 34.3512 75.8907 34.4517C75.5879 34.5521 75.2677 34.589 74.95 34.5601C74.451 34.5584 73.958 34.4515 73.5031 34.2465C73.0483 34.0414 72.6417 33.7428 72.31 33.3701L73 32.5701Z" fill="white"/>
<path d="M78.63 33.4501H79.41V27.4501H78.63V26.4501H81.27V27.4501H80.49V33.4501H81.27V34.4501H78.63V33.4501Z" fill="white"/>
<path d="M84.85 27.4301H83.25C83.2211 27.4259 83.1916 27.4275 83.1633 27.4348C83.135 27.4421 83.1084 27.4549 83.0851 27.4726C83.0619 27.4903 83.0423 27.5125 83.0277 27.5378C83.0131 27.5631 83.0037 27.5911 83 27.6201V28.1801H82V27.1301C82 26.6301 82.17 26.4601 82.68 26.4601H88.16C88.67 26.4601 88.84 26.6301 88.84 27.1301V28.1801H87.84V27.6801C87.8457 27.651 87.8452 27.621 87.8385 27.5921C87.8319 27.5632 87.8191 27.536 87.8012 27.5124C87.7832 27.4888 87.7605 27.4692 87.7344 27.455C87.7083 27.4409 87.6796 27.4323 87.65 27.4301H86V34.4301H84.86L84.85 27.4301Z" fill="white"/>
<path d="M92.05 31.0001L90.05 27.7601C90.0115 27.6675 89.9437 27.59 89.8571 27.5394C89.7704 27.4889 89.6696 27.468 89.57 27.4801H89.34V26.4801H89.86C90.0824 26.4454 90.31 26.4867 90.506 26.5974C90.702 26.7081 90.8549 26.8817 90.94 27.0901L92.14 29.0901C92.4 29.5301 92.63 29.9801 92.63 29.9801C92.63 29.9801 92.85 29.5301 93.12 29.0901L94.31 27.0901C94.3947 26.8836 94.546 26.7114 94.7399 26.6008C94.9338 26.4903 95.1592 26.4478 95.38 26.4801H95.9V27.4801H95.69C95.5876 27.4668 95.4837 27.4869 95.3936 27.5373C95.3036 27.5877 95.2322 27.6659 95.19 27.7601L93.19 31.0001V34.4701H92.05V31.0001Z" fill="white"/>
<path d="M11.89 0H8.89V2.47H3.89V7.61H0V15.15H3.8V20.29H8.85V22.75H11.53C17.78 22.75 23.29 17.75 23.29 11.4C23.2742 8.38139 22.0681 5.49091 19.9336 3.3564C17.7991 1.22189 14.9086 0.0157633 11.89 0Z" fill="white"/>
</g>
<defs>
<clipPath id="clip0_474_101">
<rect width="100" height="34.56" fill="white"/>
</clipPath>
</defs>
</svg>
