<?xml version="1.0" encoding="UTF-8"?>
<!-- Generator: Adobe Illustrator 19.1.0, SVG Export Plug-In . SVG Version: 6.00 Build 0)  -->
<svg xmlns="http://www.w3.org/2000/svg" xmlns:xlink="http://www.w3.org/1999/xlink" xmlns:dc="http://purl.org/dc/elements/1.1/" xmlns:cc="http://creativecommons.org/ns#" xmlns:rdf="http://www.w3.org/1999/02/22-rdf-syntax-ns#" version="1.1" id="DESIGNS" x="0px" y="0px" width="32px" height="32px" viewBox="0 0 32 32" style="enable-background:new 0 0 32 32;" xml:space="preserve">
<title property="dc:title">to build</title><desc property="dc:description">An icon for "build" from the Isometric series on to [icon]. Downloaded from http://www.toicon.com/icons/isometric_build by 60.241.40.50 on 2019-02-21. Licensed CC-BY, see http://toicon.com/license/ for details.</desc>
<g>
	<line class="isometric_twaalf" x1="10" y1="20.356" x2="16" y2="16.923" style="fill: #569080;"/>
	<polygon class="isometric_acht" points="4,16.915 10,13.466 16,16.923 10,20.356  " style="fill: #F05A28;"/>
	<polygon class="isometric_negen" points="10,28 16,24.536 16,16.923 10,20.356  " style="fill: #BE1E2D;"/>
	<line class="isometric_twaalf" x1="10" y1="20.356" x2="16" y2="16.923" style="fill: #569080;"/>
	<polygon class="isometric_acht" points="4,16.915 10,13.466 16,16.923 10,20.356  " style="fill: #F05A28;"/>
	<polygon class="isometric_negen" points="10,28 16,24.536 16,16.923 10,20.356  " style="fill: #BE1E2D;"/>
	<polygon class="isometric_zeven" points="10,28 4,24.536 4,16.915 10,20.356  " style="fill: #FF7344;"/>
	<line class="isometric_twaalf" x1="22" y1="20.379" x2="27.962" y2="16.915" style="fill: #569080;"/>
	<polygon class="isometric_zes" points="16,16.923 21.962,13.456 27.962,16.915 22,20.379  " style="fill: #F28103;"/>
	<polygon class="isometric_vijf" points="22,28 16,24.536 16,16.923 22,20.379  " style="fill: #F29227;"/>
	<polygon class="isometric_acht" points="22,28 27.962,24.536 27.962,16.915 22,20.379  " style="fill: #F05A28;"/>
	<line class="isometric_twaalf" x1="16" y1="9.323" x2="21.962" y2="5.865" style="fill: #569080;"/>
	<polygon class="isometric_elf" points="10,5.865 16.037,2.406 21.962,5.865 16,9.323  " style="fill: #72C0AB;"/>
	<polygon class="isometric_twaalf" points="16,16.923 21.962,13.456 21.962,5.865 16,9.323  " style="fill: #569080;"/>
	<polygon class="isometric_tien" points="16,16.923 10,13.466 10,5.865 16,9.323  " style="fill: #7BD6C4;"/>
</g>
<metadata><work rdf:about=""><format>image/svg+xml</format><type rdf:resource="http://purl.org/dc/dcmitype/StillImage"/><license rdf:resource="http://creativecommons.org/licenses/by/4.0/"/><attributionname>Jo Szczepanska</attributionname><attributionurl>http://www.toicon.com/icons/isometric_build</attributionurl></work></metadata></svg>
