<svg xmlns="http://www.w3.org/2000/svg" xmlns:xlink="http://www.w3.org/1999/xlink" viewBox="0 0 46.94 70.87"><defs><style>.cls-1{fill:none;}.cls-2{isolation:isolate;}.cls-3{opacity:0.15;mix-blend-mode:multiply;fill:url(#Degradado_sin_nombre_2);}.cls-4{fill:#a6c0d1;}.cls-5{fill:#b8d1e4;}.cls-6{fill:#afcbe1;}.cls-7{fill:#c7dbeb;}.cls-8{clip-path:url(#clip-path);}.cls-9{fill:#dedcd9;}.cls-10{fill:#47475e;}</style><linearGradient id="Degradado_sin_nombre_2" x1="73.22" y1="83.25" x2="60.69" y2="62" gradientUnits="userSpaceOnUse"><stop offset="0" stop-opacity="0"/><stop offset="1"/></linearGradient><clipPath id="clip-path" transform="translate(-33.53 -10)"><path class="cls-1" d="M41.23,38.69l-.41-.27V7.22H71.17V39.48C62.43,43.83,49.29,43.54,41.23,38.69Z"/></clipPath></defs><title>skill-surveyy</title><g class="cls-2"><g id="Layer_1" data-name="Layer 1"><polygon class="cls-1" points="7.16 41.76 7.15 41.76 7.15 41.77 7.15 41.76 7.15 41.77 7.15 41.85 7.16 41.85 7.16 41.84 7.16 41.84 7.16 41.83 7.16 41.76"/><path class="cls-3" d="M56.09,69.11h0L76,80.88l3.46-1.94L63,69.1A6.69,6.69,0,0,0,56.09,69.11Z" transform="translate(-33.53 -10)"/><path class="cls-3" d="M56.09,69.11h0L76,80.88l3.46-1.94L63,69.1A6.69,6.69,0,0,0,56.09,69.11Z" transform="translate(-33.53 -10)"/><polygon class="cls-1" points="7.31 41.83 7.3 41.83 7.3 41.84 7.29 41.83 7.3 41.84 7.3 41.91 7.31 41.91 7.31 41.91 7.31 41.91 7.31 41.9 7.31 41.83"/><path class="cls-4" d="M59.07,55.08a1,1,0,0,1-.62.84,3.1,3.1,0,0,1-2.36.16v13a3.18,3.18,0,0,0,2.47-1.74,3.07,3.07,0,0,0,.55-1.72Z" transform="translate(-33.53 -10)"/><path class="cls-5" d="M55.63,55.89a1,1,0,0,1-.56-.79l0,12.55a1.36,1.36,0,0,0,.55,1.29,2.63,2.63,0,0,0,.42.17v-13A1.71,1.71,0,0,1,55.63,55.89Z" transform="translate(-33.53 -10)"/><g class="cls-2"><path class="cls-6" d="M61.17,17.46a40.86,40.86,0,0,0-8.42,0l.29,0a38,38,0,0,1,7.84,0Z" transform="translate(-33.53 -10)"/><path class="cls-6" d="M36.86,37.88c-5.51-5.31-4.16-12.32,3.89-16.81C50.1,15.85,65,16,73.94,21.41L58.51,54.29a3.08,3.08,0,0,0-2.82,0c-.69.38-.81,1-.34,1.43Q46.11,46.78,36.86,37.88Z" transform="translate(-33.53 -10)"/><path class="cls-6" d="M60.88,17.43l.29,0a31.15,31.15,0,0,1,12.77,3.95l-1.17-.31A29.23,29.23,0,0,0,60.88,17.43Z" transform="translate(-33.53 -10)"/><path class="cls-4" d="M57.07,54.57l-1.88-1.81-.95-.91c-.56-.55-1.31-1.27-1.88-1.81l-1.88-1.82-.94-.9L47.66,45.5l-1.89-1.81c-.28-.27-.65-.64-.94-.91L43,41c-.56-.55-1.32-1.27-1.88-1.81l-.94-.91-1.88-1.81C33.12,31.49,34.37,25,41.87,20.79c8.71-4.85,22.54-4.71,30.9.31Z" transform="translate(-33.53 -10)"/><path class="cls-6" d="M58.79,55.68c.45-.44.36-1-.28-1.39L73.94,21.41c7.47,4.5,8.51,11.22,3.24,16.36Z" transform="translate(-33.53 -10)"/><path class="cls-6" d="M75.78,36.33l-9.36,9.12-9.35,9.12L72.77,21.1C79.73,25.29,80.69,31.55,75.78,36.33Z" transform="translate(-33.53 -10)"/><path class="cls-6" d="M38.25,36.44a16.82,16.82,0,0,0,3,2.25c8.35,5,22.19,5.17,30.9.31a17.14,17.14,0,0,0,3.65-2.67l-9.36,9.12-9.35,9.12-1.88-1.81-.95-.91c-.56-.55-1.31-1.27-1.88-1.81l-1.88-1.82-.94-.9L47.66,45.5l-1.89-1.81c-.28-.27-.65-.64-.94-.91L43,41c-.56-.55-1.32-1.27-1.88-1.81l-.94-.91Z" transform="translate(-33.53 -10)"/><path class="cls-7" d="M52.75,17.48l.29,0a29.75,29.75,0,0,0-11.17,3.34c-8.71,4.86-9,12.87-.64,17.9s22.19,5.17,30.9.31,9-12.87.64-17.9l1.17.31c9,5.4,8.66,14-.69,19.22S49,45.7,40.06,40.29s-8.66-14,.69-19.22A32.16,32.16,0,0,1,52.75,17.48Z" transform="translate(-33.53 -10)"/></g><path class="cls-5" d="M40.06,40.29a18.44,18.44,0,0,1-3.2-2.41q9.26,8.9,18.49,17.81a1.55,1.55,0,0,0,.28.2L48.07,43.43A28,28,0,0,1,40.06,40.29Z" transform="translate(-33.53 -10)"/><path class="cls-6" d="M73.25,40.63c-6.92,3.86-16.84,4.77-25.18,2.8l7.56,12.46a3.08,3.08,0,0,0,2.82,0,1.47,1.47,0,0,0,.34-.24L77.18,37.77A19,19,0,0,1,73.25,40.63Z" transform="translate(-33.53 -10)"/><g class="cls-8"><path class="cls-9" d="M42,28.33v37.5c0,2.08,1.68,2.79,3.75,1.59l20.5-11.84A7.76,7.76,0,0,0,70,49.67V12.17c0-2.07-1.68-2.78-3.75-1.59L45.75,22.42A7.76,7.76,0,0,0,42,28.33Z" transform="translate(-33.53 -10)"/><polygon class="cls-10" points="12.47 18.27 32.47 6.72 32.47 4.72 12.47 16.27 12.47 18.27"/><polygon class="cls-10" points="12.47 24.27 32.47 12.72 32.47 10.72 12.47 22.27 12.47 24.27"/><polygon class="cls-10" points="12.47 30.27 32.47 18.73 32.47 16.73 12.47 28.27 12.47 30.27"/><polygon class="cls-10" points="12.47 36.27 32.47 24.73 32.47 22.73 12.47 34.27 12.47 36.27"/><polygon class="cls-10" points="12.47 42.27 32.47 30.73 32.47 28.73 12.47 40.27 12.47 42.27"/></g></g></g></svg>