<svg xmlns="http://www.w3.org/2000/svg" xmlns:xlink="http://www.w3.org/1999/xlink" viewBox="0 0 78.86 75.82"><defs><style>.cls-1{fill:#47475e;}.cls-15,.cls-2{fill:#bcd676;}.cls-2,.cls-4,.cls-6{clip-rule:evenodd;}.cls-3{fill:#93c1cf;}.cls-25,.cls-4{fill:#9487a3;}.cls-5{fill:#de7047;}.cls-29,.cls-6{fill:#85ded8;}.cls-7{isolation:isolate;}.cls-8{fill:none;}.cls-10,.cls-11,.cls-19,.cls-9{opacity:0.15;}.cls-10,.cls-11,.cls-9{mix-blend-mode:multiply;}.cls-9{fill:url(#linear-gradient);}.cls-10{fill:url(#linear-gradient-2);}.cls-11{fill:url(#linear-gradient-3);}.cls-12{clip-path:url(#clip-path);}.cls-13{opacity:0.2;}.cls-14,.cls-21{fill:#fff;}.cls-15,.cls-21,.cls-22,.cls-25,.cls-29{fill-rule:evenodd;}.cls-16{clip-path:url(#clip-path-2);}.cls-17,.cls-22{opacity:0.1;}.cls-18,.cls-23{fill:#231f20;}.cls-20{clip-path:url(#clip-path-3);}.cls-21{opacity:0.3;}.cls-22{fill:#6e6768;}.cls-23{fill-opacity:0.6;}.cls-24{clip-path:url(#clip-path-4);}.cls-26{clip-path:url(#clip-path-5);}.cls-27{clip-path:url(#clip-path-6);}.cls-28{clip-path:url(#clip-path-7);}.cls-30{clip-path:url(#clip-path-8);}.cls-31{clip-path:url(#clip-path-9);}</style><linearGradient id="linear-gradient" x1="56.68" y1="67.99" x2="51.31" y2="58.88" gradientUnits="userSpaceOnUse"><stop offset="0" stop-opacity="0"/><stop offset="0.05" stop-opacity="0.1"/><stop offset="1"/></linearGradient><linearGradient id="linear-gradient-2" x1="42.57" y1="76.56" x2="28.89" y2="53.35" xlink:href="#linear-gradient"/><linearGradient id="linear-gradient-3" x1="68.09" y1="61.99" x2="51.18" y2="33.3" xlink:href="#linear-gradient"/><clipPath id="clip-path" transform="translate(-22.18 -14.64)"><path class="cls-1" d="M75.92,54.38C75.73,52,75.54,51,75,50a10.89,10.89,0,0,0-1.08-1.41l-4.75-5.45a14,14,0,0,0-2.71-2.45A16.8,16.8,0,0,0,58,38.12a7,7,0,0,0-2.87.44c-.5.18-2.15.74-2.65,1a47.63,47.63,0,0,0-5.07,2.9h0c-.41.14-.65.46-.83,1.13a6.13,6.13,0,0,0,3,6.78l7.89,4.53,6.56,3.77a9.72,9.72,0,0,0,9.65,0A4.46,4.46,0,0,0,75.92,54.38ZM47.81,42.33h0Z"/></clipPath><clipPath id="clip-path-2" transform="translate(-22.18 -14.64)"><path class="cls-2" d="M58.25,47.13c-3-2.46-3-4.42-3-7.37v-5.9H67.09v5.9C67.09,42.71,63.41,44.9,58.25,47.13Z"/></clipPath><clipPath id="clip-path-3" transform="translate(-22.18 -14.64)"><path class="cls-2" d="M61.19,15c8.22,0,10.33,5.91,10.33,10.32v6.35c0,4.66-4.41,10.72-10.33,10.72S50.87,36.33,50.87,31.67V25.32C50.87,20.91,53,15,61.19,15Z"/></clipPath><clipPath id="clip-path-4" transform="translate(-22.18 -14.64)"><path class="cls-3" d="M78.92,74.38C78.73,72,78.54,71,78,70a11.62,11.62,0,0,0-1.08-1.41l-4.75-5.45a14,14,0,0,0-2.71-2.45A16.8,16.8,0,0,0,61,58.12a7,7,0,0,0-2.87.44c-.5.18-2.15.74-2.65,1a47.63,47.63,0,0,0-5.07,2.9h0c-.41.14-.65.46-.83,1.13a6.13,6.13,0,0,0,3,6.78l7.89,4.53,6.56,3.77a9.72,9.72,0,0,0,9.65,0A4.46,4.46,0,0,0,78.92,74.38Zm-28.11-12h0Z"/></clipPath><clipPath id="clip-path-5" transform="translate(-22.18 -14.64)"><path class="cls-4" d="M61.25,67.13c-3-2.46-3-4.42-3-7.37v-5.9H70.09v5.9C70.09,62.71,66.41,64.9,61.25,67.13Z"/></clipPath><clipPath id="clip-path-6" transform="translate(-22.18 -14.64)"><path class="cls-4" d="M64.19,35c8.22,0,10.33,5.91,10.33,10.32v6.35c0,4.66-4.41,10.72-10.33,10.72S53.87,56.33,53.87,51.67V45.32C53.87,40.91,56,35,64.19,35Z"/></clipPath><clipPath id="clip-path-7" transform="translate(-22.18 -14.64)"><path class="cls-5" d="M53.92,72.38C53.73,70,53.54,69,53,68a10.89,10.89,0,0,0-1.08-1.41l-4.75-5.45a14,14,0,0,0-2.71-2.45A16.8,16.8,0,0,0,36,56.12a7,7,0,0,0-2.87.44c-.5.18-2.15.74-2.65,1a47.63,47.63,0,0,0-5.07,2.9h0c-.41.14-.65.46-.83,1.13a6.13,6.13,0,0,0,3,6.78l7.89,4.53,6.56,3.77a9.72,9.72,0,0,0,9.65,0A4.46,4.46,0,0,0,53.92,72.38Zm-28.11-12h0Z"/></clipPath><clipPath id="clip-path-8" transform="translate(-22.18 -14.64)"><path class="cls-6" d="M36.25,65.13c-3-2.46-3-4.42-3-7.37v-5.9H45.09v5.9C45.09,60.71,41.41,62.9,36.25,65.13Z"/></clipPath><clipPath id="clip-path-9" transform="translate(-22.18 -14.64)"><path class="cls-6" d="M39.19,33c8.22,0,10.33,5.91,10.33,10.32v6.35c0,4.66-4.41,10.72-10.33,10.72S28.87,54.33,28.87,49.67V43.32C28.87,38.91,31,33,39.19,33Z"/></clipPath></defs><title>skill-collab</title><g class="cls-7"><g id="Layer_1" data-name="Layer 1"><polygon class="cls-8" points="0.31 47.93 0.33 47.93 0.33 47.92 0.33 47.84 0.31 47.84 0.31 47.93"/><polygon class="cls-8" points="18.65 37.2 18.64 37.2 18.64 37.2 18.64 37.2 18.64 37.2 18.64 37.28 18.65 37.28 18.65 37.27 18.66 37.28 18.65 37.27 18.65 37.2"/><polygon class="cls-8" points="0.51 48.23 0.51 48.28 0.55 48.28 0.55 48.28 0.55 48.23 0.51 48.23 0.51 48.23"/><polygon class="cls-8" points="0 47.91 0.02 47.91 0.02 47.91 0.02 47.82 0 47.82 0 47.91"/><polygon class="cls-8" points="18.51 37.13 18.5 37.13 18.5 37.13 18.49 37.13 18.5 37.14 18.5 37.21 18.51 37.21 18.51 37.21 18.51 37.21 18.51 37.2 18.51 37.13"/><polygon class="cls-8" points="0.19 48.22 0.19 48.26 0.24 48.26 0.24 48.26 0.24 48.21 0.19 48.21 0.19 48.22"/><polygon class="cls-9" points="54.69 58.77 45.73 64.46 53.71 69.36 63.13 63.91 54.69 58.77"/><polyline class="cls-10" points="21.35 62.7 42.64 75.82 51.92 70.28 30.62 57.13"/><polyline class="cls-11" points="42.66 44.38 69.57 60.26 78.86 54.72 51.93 38.8"/><path class="cls-1" d="M75.92,54.38C75.73,52,75.54,51,75,50a10.89,10.89,0,0,0-1.08-1.41l-4.75-5.45a14,14,0,0,0-2.71-2.45A16.8,16.8,0,0,0,58,38.12a7,7,0,0,0-2.87.44c-.5.18-2.15.74-2.65,1a47.63,47.63,0,0,0-5.07,2.9h0c-.41.14-.65.46-.83,1.13a6.13,6.13,0,0,0,3,6.78l7.89,4.53,6.56,3.77a9.72,9.72,0,0,0,9.65,0A4.46,4.46,0,0,0,75.92,54.38ZM47.81,42.33h0Z" transform="translate(-22.18 -14.64)"/><g class="cls-12"><g class="cls-13"><path class="cls-14" d="M51.16,43,55,47.74a11.28,11.28,0,0,1,2.51,7.11h0L46.08,48.29c.47-5.47.48-6,2.31-6h1.24A2,2,0,0,1,51.16,43Z" transform="translate(-22.18 -14.64)"/></g></g><path class="cls-15" d="M58.25,47.13c-3-2.46-3-4.42-3-7.37v-5.9H67.09v5.9C67.09,42.71,63.41,44.9,58.25,47.13Z" transform="translate(-22.18 -14.64)"/><g class="cls-16"><g class="cls-17"><polygon class="cls-18" points="34.11 26.1 47.38 16.97 47.39 18.42 47.39 33.74 40.76 29.91 40.74 29.93 34.11 26.1"/></g><g class="cls-19"><rect class="cls-18" x="32.5" y="19.96" width="13.4" height="14.5"/></g></g><path class="cls-15" d="M61.19,15c8.22,0,10.33,5.91,10.33,10.32v6.35c0,4.66-4.41,10.72-10.33,10.72S50.87,36.33,50.87,31.67V25.32C50.87,20.91,53,15,61.19,15Z" transform="translate(-22.18 -14.64)"/><g class="cls-20"><path class="cls-21" d="M62,15s-7.43,1.42-7.43,9V35.28s0,7.13,7.41,7.13H46.44V14.64Z" transform="translate(-22.18 -14.64)"/><path class="cls-22" d="M66.88,15.64C69.28,17,71,18.7,71.52,20.46c1.35,4.76-7.7,9.41-17,6.75,0,4.73,0,5.71,0,8.07,0,0,0,7.13,7.41,7.13H75.82V14.64Z" transform="translate(-22.18 -14.64)"/></g><path class="cls-23" d="M57.8,31.18c0-1,.49-1.84,1.09-1.84S60,30.16,60,31.18,59.49,33,58.89,33,57.8,32.2,57.8,31.18Z" transform="translate(-22.18 -14.64)"/><path class="cls-23" d="M51.27,28.87c0-.91.42-1.64.93-1.64s.92.73.92,1.64-.41,1.63-.92,1.63S51.27,29.77,51.27,28.87Z" transform="translate(-22.18 -14.64)"/><path class="cls-3" d="M78.92,74.38C78.73,72,78.54,71,78,70a11.62,11.62,0,0,0-1.08-1.41l-4.75-5.45a14,14,0,0,0-2.71-2.45A16.8,16.8,0,0,0,61,58.12a7,7,0,0,0-2.87.44c-.5.18-2.15.74-2.65,1a47.63,47.63,0,0,0-5.07,2.9h0c-.41.14-.65.46-.83,1.13a6.13,6.13,0,0,0,3,6.78l7.89,4.53,6.56,3.77a9.72,9.72,0,0,0,9.65,0A4.46,4.46,0,0,0,78.92,74.38Zm-28.11-12h0Z" transform="translate(-22.18 -14.64)"/><g class="cls-24"><g class="cls-13"><path class="cls-14" d="M54.16,63,58,67.74a11.28,11.28,0,0,1,2.51,7.11h0L49.08,68.29c.47-5.47.48-6,2.31-6h1.24A2,2,0,0,1,54.16,63Z" transform="translate(-22.18 -14.64)"/></g></g><path class="cls-25" d="M61.25,67.13c-3-2.46-3-4.42-3-7.37v-5.9H70.09v5.9C70.09,62.71,66.41,64.9,61.25,67.13Z" transform="translate(-22.18 -14.64)"/><g class="cls-26"><g class="cls-17"><polygon class="cls-18" points="37.11 46.1 50.38 36.97 50.39 38.42 50.39 53.74 43.76 49.91 43.74 49.93 37.11 46.1"/></g><g class="cls-19"><rect class="cls-18" x="35.5" y="39.96" width="13.4" height="14.5"/></g></g><path class="cls-25" d="M64.19,35c8.22,0,10.33,5.91,10.33,10.32v6.35c0,4.66-4.41,10.72-10.33,10.72S53.87,56.33,53.87,51.67V45.32C53.87,40.91,56,35,64.19,35Z" transform="translate(-22.18 -14.64)"/><g class="cls-27"><path class="cls-21" d="M65,35s-7.43,1.42-7.43,9V55.28s0,7.13,7.41,7.13H49.44V34.64Z" transform="translate(-22.18 -14.64)"/><path class="cls-22" d="M69.88,35.64C72.28,37,74,38.7,74.52,40.46c1.35,4.76-7.7,9.41-17,6.75,0,4.73,0,5.71,0,8.07,0,0,0,7.13,7.41,7.13H78.82V34.64Z" transform="translate(-22.18 -14.64)"/></g><path class="cls-23" d="M60.8,51.18c0-1,.49-1.84,1.09-1.84S63,50.16,63,51.18,62.49,53,61.89,53,60.8,52.2,60.8,51.18Z" transform="translate(-22.18 -14.64)"/><path class="cls-23" d="M54.27,48.87c0-.91.42-1.64.93-1.64s.92.73.92,1.64-.41,1.63-.92,1.63S54.27,49.77,54.27,48.87Z" transform="translate(-22.18 -14.64)"/><path class="cls-5" d="M53.92,72.38C53.73,70,53.54,69,53,68a10.89,10.89,0,0,0-1.08-1.41l-4.75-5.45a14,14,0,0,0-2.71-2.45A16.8,16.8,0,0,0,36,56.12a7,7,0,0,0-2.87.44c-.5.18-2.15.74-2.65,1a47.63,47.63,0,0,0-5.07,2.9h0c-.41.14-.65.46-.83,1.13a6.13,6.13,0,0,0,3,6.78l7.89,4.53,6.56,3.77a9.72,9.72,0,0,0,9.65,0A4.46,4.46,0,0,0,53.92,72.38Zm-28.11-12h0Z" transform="translate(-22.18 -14.64)"/><g class="cls-28"><g class="cls-13"><path class="cls-14" d="M29.16,61,33,65.74a11.28,11.28,0,0,1,2.51,7.11h0L24.08,66.29c.47-5.47.48-6,2.31-6h1.24A2,2,0,0,1,29.16,61Z" transform="translate(-22.18 -14.64)"/></g></g><path class="cls-29" d="M36.25,65.13c-3-2.46-3-4.42-3-7.37v-5.9H45.09v5.9C45.09,60.71,41.41,62.9,36.25,65.13Z" transform="translate(-22.18 -14.64)"/><g class="cls-30"><g class="cls-17"><polygon class="cls-18" points="12.11 44.1 25.38 34.97 25.39 36.42 25.39 51.74 18.76 47.91 18.75 47.93 12.11 44.1"/></g><g class="cls-19"><rect class="cls-18" x="10.5" y="37.96" width="13.4" height="14.5"/></g></g><path class="cls-29" d="M39.19,33c8.22,0,10.33,5.91,10.33,10.32v6.35c0,4.66-4.41,10.72-10.33,10.72S28.87,54.33,28.87,49.67V43.32C28.87,38.91,31,33,39.19,33Z" transform="translate(-22.18 -14.64)"/><g class="cls-31"><path class="cls-21" d="M40,33s-7.43,1.42-7.43,9V53.28s0,7.13,7.41,7.13H24.44V32.64Z" transform="translate(-22.18 -14.64)"/><path class="cls-22" d="M44.88,33.64C47.28,35,49,36.7,49.52,38.46c1.35,4.76-7.7,9.41-17,6.75,0,4.73,0,5.71,0,8.07,0,0,0,7.13,7.41,7.13H53.82V32.64Z" transform="translate(-22.18 -14.64)"/></g><path class="cls-23" d="M35.8,49.18c0-1,.49-1.84,1.09-1.84S38,48.16,38,49.18,37.49,51,36.89,51,35.8,50.2,35.8,49.18Z" transform="translate(-22.18 -14.64)"/><path class="cls-23" d="M29.27,46.87c0-.91.42-1.64.93-1.64s.92.73.92,1.64-.41,1.63-.92,1.63S29.27,47.77,29.27,46.87Z" transform="translate(-22.18 -14.64)"/></g></g></svg>