<?xml version="1.0" encoding="UTF-8"?>
<!-- Generator: Adobe Illustrator 19.1.0, SVG Export Plug-In . SVG Version: 6.00 Build 0)  -->
<svg xmlns="http://www.w3.org/2000/svg" xmlns:xlink="http://www.w3.org/1999/xlink" xmlns:dc="http://purl.org/dc/elements/1.1/" xmlns:cc="http://creativecommons.org/ns#" xmlns:rdf="http://www.w3.org/1999/02/22-rdf-syntax-ns#" version="1.1" id="DESIGNS" x="0px" y="0px" width="32px" height="32px" viewBox="0 0 32 32" style="enable-background:new 0 0 32 32;" xml:space="preserve">
<title property="dc:title">to watch</title><desc property="dc:description">An icon for "watch" from the Isometric series on to [icon]. Downloaded from http://www.toicon.com/icons/isometric_watch by 60.241.40.50 on 2019-02-21. Licensed CC-BY, see http://toicon.com/license/ for details.</desc>
<g>
	<path class="isometric_twee" d="M18.941,16.657c-1.992-0.888-3.547-2.031-4.932-3.483c0.042,1.991,0.817,3.97,2.336,5.489   c1.266,1.266,2.85,2.01,4.495,2.25c0-0.004-0.001-0.007-0.002-0.01C18.825,20.615,18.344,18.669,18.941,16.657z" style="fill: #F5DF89;"/>
	<path class="isometric_een" d="M18.941,16.657c0.877-2.954,3.911-5.949,6.881-6.745c2.026-0.543,3.497,0.079,4.011,1.448   c-0.307-1.472-1.027-2.874-2.17-4.016c-3.126-3.126-8.193-3.126-11.319,0c-1.606,1.606-2.381,3.725-2.336,5.829   C15.392,14.624,16.946,15.767,18.941,16.657z" style="fill: #F8F7C5;"/>
	<path class="isometric_twaalf" d="M21.804,17.613c-0.977-0.224-1.935-0.542-2.863-0.956c-0.567,1.913-0.181,3.719,1.638,4.219   c1.838,0.331,3.817,0.001,5.487-0.985C23.212,21.564,21.012,20.364,21.804,17.613z" style="fill: #569080;"/>
	<rect x="29.833" y="11.361" class="isometric_elf" width="0" height="0" style="fill: #72C0AB;"/>
	<path class="isometric_elf" d="M26.693,12.797c2.146-0.575,3.422,0.688,2.851,2.82c-0.046,0.173-0.119,0.345-0.186,0.518   c0.464-1.098,0.681-2.275,0.635-3.448c-0.001,0-0.002,0-0.002,0c-0.019-0.445-0.066-0.888-0.157-1.326l0-0.001   c-0.514-1.37-1.985-1.991-4.011-1.448c-2.97,0.796-6.004,3.791-6.881,6.745c0.928,0.414,1.886,0.733,2.863,0.956   C22.411,15.508,24.576,13.364,26.693,12.797z" style="fill: #72C0AB;"/>
	<path class="isometric_dertien" d="M26.693,12.797c-2.117,0.567-4.282,2.711-4.889,4.816c-0.644,2.238,0.69,3.476,2.82,2.906   c2.158-0.578,4.368-2.842,4.92-4.902C30.115,13.485,28.838,12.222,26.693,12.797z" style="fill: #225B49;"/>
	<path class="isometric_twee" d="M6.93,23.657c-1.992-0.888-3.547-2.031-4.932-3.483c0.042,1.991,0.817,3.97,2.336,5.489   c1.266,1.266,2.85,2.01,4.495,2.25c0-0.004-0.001-0.007-0.002-0.01C6.813,27.615,6.333,25.669,6.93,23.657z" style="fill: #F5DF89;"/>
	<path class="isometric_een" d="M6.93,23.657c0.877-2.954,3.911-5.949,6.881-6.745c2.026-0.543,3.497,0.079,4.011,1.448   c-0.307-1.472-1.027-2.874-2.17-4.016c-3.126-3.126-8.193-3.126-11.319,0c-1.606,1.606-2.381,3.725-2.336,5.829   C3.38,21.624,4.934,22.767,6.93,23.657z" style="fill: #F8F7C5;"/>
	<path class="isometric_twaalf" d="M9.793,24.613c-0.977-0.224-1.935-0.542-2.863-0.956c-0.567,1.913-0.181,3.719,1.638,4.219   c1.838,0.331,3.817,0.001,5.487-0.985C11.201,28.564,9.001,27.364,9.793,24.613z" style="fill: #569080;"/>
	<rect x="17.821" y="18.361" class="isometric_elf" width="0" height="0" style="fill: #72C0AB;"/>
	<path class="isometric_elf" d="M14.681,19.797c2.146-0.575,3.422,0.688,2.851,2.82c-0.046,0.173-0.119,0.345-0.186,0.518   c0.464-1.098,0.681-2.275,0.635-3.448c-0.001,0-0.002,0-0.002,0c-0.019-0.445-0.066-0.888-0.158-1.325l0-0.001   c-0.514-1.37-1.985-1.991-4.011-1.448c-2.97,0.796-6.004,3.791-6.881,6.745c0.928,0.414,1.886,0.733,2.863,0.956   C10.399,22.508,12.565,20.364,14.681,19.797z" style="fill: #72C0AB;"/>
	<path class="isometric_dertien" d="M14.681,19.797c-2.117,0.567-4.282,2.711-4.889,4.816c-0.644,2.238,0.69,3.476,2.82,2.906   c2.158-0.578,4.368-2.842,4.92-4.902C18.103,20.485,16.827,19.222,14.681,19.797z" style="fill: #225B49;"/>
</g>
<metadata><work rdf:about=""><format>image/svg+xml</format><type rdf:resource="http://purl.org/dc/dcmitype/StillImage"/><license rdf:resource="http://creativecommons.org/licenses/by/4.0/"/><attributionname>Jo Szczepanska</attributionname><attributionurl>http://www.toicon.com/icons/isometric_watch</attributionurl></work></metadata></svg>
