<svg xmlns="http://www.w3.org/2000/svg" xmlns:xlink="http://www.w3.org/1999/xlink" viewBox="0 0 72.32 83.35"><defs><style>.cls-1{fill:#de7047;}.cls-10,.cls-19,.cls-2{fill:#85ded8;}.cls-2{clip-rule:evenodd;}.cls-3{isolation:isolate;}.cls-4{fill:none;}.cls-5{fill:#ccc;}.cls-14,.cls-6{opacity:0.15;}.cls-6{mix-blend-mode:multiply;fill:url(#Degradado_sin_nombre_82);}.cls-7{clip-path:url(#clip-path);}.cls-17,.cls-8{opacity:0.2;}.cls-16,.cls-9{fill:#fff;}.cls-10,.cls-16,.cls-17{fill-rule:evenodd;}.cls-11{clip-path:url(#clip-path-2);}.cls-12{opacity:0.1;}.cls-13,.cls-18{fill:#231f20;}.cls-15{clip-path:url(#clip-path-3);}.cls-16,.cls-19{opacity:0.3;}.cls-17{fill:#6e6768;}.cls-18{fill-opacity:0.6;}.cls-20{fill:#5e6e73;}.cls-21{fill:#687b80;}.cls-22{fill:#65777c;}.cls-23{fill:#617277;}.cls-24{fill:#4c646c;}.cls-25{fill:#88b3c0;}.cls-26{fill:#a7c4cd;}.cls-27{fill:#7da4b0;}.cls-28{fill:#4f4f4f;}</style><linearGradient id="Degradado_sin_nombre_82" x1="64.15" y1="71.58" x2="50.16" y2="47.84" gradientUnits="userSpaceOnUse"><stop offset="0" stop-opacity="0"/><stop offset="1"/></linearGradient><clipPath id="clip-path" transform="translate(-22.18 -16.41)"><path class="cls-1" d="M70.86,69.14C70.68,66.94,70.5,66,70,65a9,9,0,0,0-1-1.33l-4.47-5.13a13.63,13.63,0,0,0-2.55-2.31A16,16,0,0,0,54,53.84a6.9,6.9,0,0,0-2.71.42c-.47.17-2,.7-2.49.9a45.06,45.06,0,0,0-4.77,2.73h0c-.38.14-.61.43-.77,1.07a5.76,5.76,0,0,0,2.79,6.38l7.42,4.26,6.17,3.55a9.16,9.16,0,0,0,9.09,0A4.21,4.21,0,0,0,70.86,69.14ZM44.4,57.81h0Z"/></clipPath><clipPath id="clip-path-2" transform="translate(-22.18 -16.41)"><path class="cls-2" d="M54.22,62.33c-2.83-2.32-2.77-4.17-2.77-6.94V49.84h11.1v5.55C62.55,58.16,59.08,60.23,54.22,62.33Z"/></clipPath><clipPath id="clip-path-3" transform="translate(-22.18 -16.41)"><path class="cls-2" d="M57,32.09c7.73,0,9.71,5.56,9.71,9.71v6c0,4.38-4.14,10.09-9.71,10.09s-9.71-5.71-9.71-10.09v-6C47.29,37.65,49.27,32.09,57,32.09Z"/></clipPath></defs><title>skill-personas</title><g class="cls-3"><g id="Layer_1" data-name="Layer 1"><polygon class="cls-4" points="0.31 46.15 0.33 46.15 0.33 46.15 0.33 46.06 0.31 46.06 0.31 46.15"/><polygon class="cls-4" points="18.65 35.42 18.64 35.42 18.64 35.42 18.64 35.42 18.64 35.42 18.64 35.5 18.65 35.5 18.65 35.5 18.66 35.5 18.65 35.49 18.65 35.42"/><polygon class="cls-4" points="0.51 46.45 0.51 46.5 0.55 46.5 0.55 46.5 0.55 46.45 0.51 46.45 0.51 46.45"/><g class="cls-3"><path class="cls-5" d="M54.23,90.1v3.27h0a6.35,6.35,0,0,0,5.7,0h0V90.1A6.31,6.31,0,0,1,54.23,90.1Z" transform="translate(-22.18 -16.41)"/></g><polygon class="cls-4" points="0 46.13 0.02 46.13 0.02 46.13 0.02 46.04 0 46.04 0 46.13"/><polygon class="cls-4" points="18.51 35.35 18.5 35.35 18.5 35.36 18.49 35.35 18.5 35.36 18.5 35.43 18.51 35.43 18.51 35.43 18.51 35.43 18.51 35.42 18.51 35.35"/><polygon class="cls-4" points="0.19 46.44 0.19 46.48 0.24 46.48 0.24 46.48 0.24 46.43 0.19 46.43 0.19 46.44"/><polygon class="cls-6" points="49.16 53.34 43.83 56.48 66.98 69.16 72.32 66.05 49.16 53.34"/><polygon class="cls-6" points="49.16 53.34 43.83 56.48 66.98 69.16 72.32 66.05 49.16 53.34"/><path class="cls-1" d="M70.86,69.14C70.68,66.94,70.5,66,70,65a9,9,0,0,0-1-1.33l-4.47-5.13a13.63,13.63,0,0,0-2.55-2.31A16,16,0,0,0,54,53.84a6.9,6.9,0,0,0-2.71.42c-.47.17-2,.7-2.49.9a45.06,45.06,0,0,0-4.77,2.73h0c-.38.14-.61.43-.77,1.07a5.76,5.76,0,0,0,2.79,6.38l7.42,4.26,6.17,3.55a9.16,9.16,0,0,0,9.09,0A4.21,4.21,0,0,0,70.86,69.14ZM44.4,57.81h0Z" transform="translate(-22.18 -16.41)"/><g class="cls-7"><g class="cls-8"><path class="cls-9" d="M47.55,58.47l3.6,4.43a10.57,10.57,0,0,1,2.36,6.69h0L42.78,63.42c.44-5.15.44-5.64,2.17-5.64h1.17A1.84,1.84,0,0,1,47.55,58.47Z" transform="translate(-22.18 -16.41)"/></g></g><path class="cls-10" d="M54.22,62.33c-2.83-2.32-2.77-4.17-2.77-6.94V49.84h11.1v5.55C62.55,58.16,59.08,60.23,54.22,62.33Z" transform="translate(-22.18 -16.41)"/><g class="cls-11"><g class="cls-12"><polygon class="cls-13" points="30.2 39.89 42.69 31.3 42.7 32.66 42.7 47.08 36.46 43.48 36.45 43.5 30.2 39.89"/></g><g class="cls-14"><rect class="cls-13" x="28.69" y="34.12" width="12.61" height="13.65"/></g></g><path class="cls-10" d="M57,32.09c7.73,0,9.71,5.56,9.71,9.71v6c0,4.38-4.14,10.09-9.71,10.09s-9.71-5.71-9.71-10.09v-6C47.29,37.65,49.27,32.09,57,32.09Z" transform="translate(-22.18 -16.41)"/><g class="cls-15"><path class="cls-16" d="M57.75,32.09s-7,1.34-7,8.5V51.17s0,6.71,7,6.71H43.11V31.74Z" transform="translate(-22.18 -16.41)"/><path class="cls-17" d="M62.35,32.69c2.26,1.23,3.89,2.88,4.36,4.53,1.28,4.49-7.24,8.86-15.95,6.36,0,4.45,0,5.37,0,7.59,0,0,0,6.71,7,6.71h13V31.74Z" transform="translate(-22.18 -16.41)"/></g><path class="cls-18" d="M53.81,47.32c0-1,.46-1.74,1-1.74s1,.78,1,1.74-.46,1.73-1,1.73S53.81,48.27,53.81,47.32Z" transform="translate(-22.18 -16.41)"/><path class="cls-18" d="M47.66,45.14c0-.86.39-1.55.87-1.55s.87.69.87,1.55-.39,1.54-.87,1.54S47.66,46,47.66,45.14Z" transform="translate(-22.18 -16.41)"/><path class="cls-19" d="M28.5,44.76c0,13.49,13,24.43,29.09,24.43S86.67,58.25,86.67,44.76s-13-24.43-29.08-24.43S28.5,31.27,28.5,44.76Z" transform="translate(-22.18 -16.41)"/><path class="cls-4" d="M48.93,25.72l.2-.08c-.62.22-1.22.47-1.81.74l.13-.05C47.93,26.11,48.43,25.91,48.93,25.72Z" transform="translate(-22.18 -16.41)"/><path class="cls-4" d="M43,72.3l.23.1L43,72.29Z" transform="translate(-22.18 -16.41)"/><polygon class="cls-4" points="20.78 55.88 20.78 55.89 20.78 55.88 20.78 55.88"/><path class="cls-4" d="M42.85,72.24h0l.11,0h0Z" transform="translate(-22.18 -16.41)"/><path class="cls-4" d="M49.21,25.61l-.08,0-.2.08Z" transform="translate(-22.18 -16.41)"/><path class="cls-4" d="M51.29,25l-.08,0c-.27.07-.53.16-.79.24C50.71,25.14,51,25,51.29,25Z" transform="translate(-22.18 -16.41)"/><polygon class="cls-4" points="23.08 56.9 23.08 56.9 23.08 56.9 23.08 56.9"/><path class="cls-4" d="M50.42,25.23c.26-.08.52-.17.79-.24-.66.17-1.3.37-1.93.59h0C49.68,25.44,50.05,25.34,50.42,25.23Z" transform="translate(-22.18 -16.41)"/><path class="cls-4" d="M53.38,24.52c-.69.11-1.37.26-2,.43.41-.1.82-.18,1.24-.26S53.11,24.56,53.38,24.52Z" transform="translate(-22.18 -16.41)"/><path class="cls-4" d="M42.59,72.11l.26.14h0Z" transform="translate(-22.18 -16.41)"/><path class="cls-4" d="M53.43,24.51h0c-.27,0-.53.11-.8.17C52.86,24.63,53.14,24.56,53.43,24.51Z" transform="translate(-22.18 -16.41)"/><path class="cls-4" d="M42.16,29.65l-.09.06-.18.15-.21.21Z" transform="translate(-22.18 -16.41)"/><path class="cls-4" d="M43.62,28.52l-.1.06c-.08.06-.14.12-.22.17Z" transform="translate(-22.18 -16.41)"/><path class="cls-4" d="M43.3,28.75c.08-.05.14-.11.22-.17-.5.36-1,.74-1.45,1.13l.09-.06Q42.72,29.19,43.3,28.75Z" transform="translate(-22.18 -16.41)"/><path class="cls-4" d="M39.48,70.32l-.12-.07.27.17h0Z" transform="translate(-22.18 -16.41)"/><path class="cls-4" d="M39.63,70.42l.15.1-.15-.1Z" transform="translate(-22.18 -16.41)"/><path class="cls-4" d="M46.92,26.58l.23-.12c-.59.27-1.15.57-1.7.88l.19-.09C46.06,27,46.48,26.79,46.92,26.58Z" transform="translate(-22.18 -16.41)"/><path class="cls-4" d="M53.21,75.39l.4,0-.4,0Z" transform="translate(-22.18 -16.41)"/><path class="cls-4" d="M42.08,71.85l-.07,0,.24.13h0Z" transform="translate(-22.18 -16.41)"/><path class="cls-4" d="M47.45,26.33l-.13.05-.17.08-.23.12Z" transform="translate(-22.18 -16.41)"/><path class="cls-4" d="M45.22,27.48l.05,0c-.54.31-1.06.65-1.57,1l0,0C44.22,28.1,44.71,27.78,45.22,27.48Z" transform="translate(-22.18 -16.41)"/><path class="cls-4" d="M45.64,27.25l-.19.09-.18.11-.05,0Z" transform="translate(-22.18 -16.41)"/><path class="cls-4" d="M52.92,75.35l.29,0h0Z" transform="translate(-22.18 -16.41)"/><path class="cls-4" d="M80.5,47.28a2.85,2.85,0,0,0,0-.29v-.14c0,.23,0,.47-.07.7C80.47,47.46,80.49,47.37,80.5,47.28Z" transform="translate(-22.18 -16.41)"/><path class="cls-4" d="M50.38,74.88h0l.22,0h0Z" transform="translate(-22.18 -16.41)"/><path class="cls-4" d="M50.38,74.88l-.27-.06.27.07h0Z" transform="translate(-22.18 -16.41)"/><polygon class="cls-4" points="28.2 58.46 28.2 58.47 28.2 58.47 28.2 58.46 28.2 58.46"/><path class="cls-4" d="M51.47,75.11l.44.08h0Z" transform="translate(-22.18 -16.41)"/><path class="cls-4" d="M50.6,74.94l.31.06-.31-.07Z" transform="translate(-22.18 -16.41)"/><polygon class="cls-4" points="29.73 58.77 29.73 58.78 29.73 58.77 29.73 58.77"/><polygon class="cls-4" points="31.03 58.97 31.03 58.97 31.03 58.97 31.02 58.98 31.03 58.97 31.03 58.97"/><path class="cls-4" d="M41.68,30.07l.21-.21c-.45.4-.89.81-1.31,1.24a1.29,1.29,0,0,0,.17-.16Q41.2,30.49,41.68,30.07Z" transform="translate(-22.18 -16.41)"/><path class="cls-4" d="M80.22,49v0a0,0,0,0,0,0,0A.13.13,0,0,0,80.22,49Z" transform="translate(-22.18 -16.41)"/><polygon class="cls-4" points="23.08 56.9 23.08 56.9 23.08 56.9 23.08 56.9"/><path class="cls-4" d="M51.91,75.19l.47.08-.47-.09Z" transform="translate(-22.18 -16.41)"/><path class="cls-4" d="M46.75,73.86l.06,0h0Z" transform="translate(-22.18 -16.41)"/><path class="cls-4" d="M46.81,73.88h0l.45.14-.09,0Z" transform="translate(-22.18 -16.41)"/><path class="cls-4" d="M45.26,73.32h0Z" transform="translate(-22.18 -16.41)"/><path class="cls-4" d="M55.65,24.24h0c-.24,0-.47.06-.71.09C55.16,24.3,55.4,24.26,55.65,24.24Z" transform="translate(-22.18 -16.41)"/><path class="cls-4" d="M55.62,24.24c-.72.06-1.44.15-2.14.26.47-.08,1-.12,1.43-.17C55.15,24.3,55.38,24.26,55.62,24.24Z" transform="translate(-22.18 -16.41)"/><path class="cls-4" d="M48,74.25l.16,0-.16,0Z" transform="translate(-22.18 -16.41)"/><path class="cls-4" d="M48.32,74.36h0l.22.06h0Z" transform="translate(-22.18 -16.41)"/><path class="cls-4" d="M48.17,74.32l.15,0h0Z" transform="translate(-22.18 -16.41)"/><path class="cls-4" d="M47.77,74.19l-.14,0,.33.1h0Z" transform="translate(-22.18 -16.41)"/><path class="cls-4" d="M75.62,57.87l.09-.1c.25-.29.5-.57.74-.86l.44-.6c.22-.31.44-.62.65-.94s.28-.45.41-.68.37-.63.54-.95.24-.49.35-.73.3-.65.43-1,.2-.51.29-.77.23-.68.33-1,.15-.52.21-.79.16-.72.22-1.08.1-.53.14-.8,0-.47.07-.7a19.91,19.91,0,0,0-6.58-14A24.22,24.22,0,0,0,57.83,26.6c-.77,0-1.53,0-2.28.08-.25,0-.49.06-.74.09-.49.05-1,.09-1.47.17-.29,0-.57.13-.86.19s-.86.16-1.28.27-.58.18-.88.27-.8.23-1.18.37c-.11,0-.2.08-.31.12-.5.18-1,.39-1.48.61l-.53.25c-.44.21-.87.43-1.29.67l-.42.23c-.53.32-1,.65-1.56,1l-.35.26c-.39.29-.78.59-1.15.9l-.48.42c-.31.28-.62.57-.92.87l-.45.46c-.31.33-.61.68-.89,1-.11.13-.23.25-.33.39-.37.46-.71,1-1,1.45l-.21.35c-.25.4-.49.81-.71,1.22l-.24.48c-.23.46-.43.93-.62,1.4,0,.09-.08.17-.11.26-.21.56-.39,1.13-.55,1.71,0,.15-.08.31-.12.47-.11.45-.21.9-.28,1.36l-.09.52c0,.27,0,.54-.08.8,0,.46,0,.92.09,1.37a19.23,19.23,0,0,0,.58,3.06l.15.5a19.64,19.64,0,0,0,2.69,5.52c.2.28.4.56.61.83s.43.54.66.81l.34.39c.46.51,1,1,1.46,1.49a22.9,22.9,0,0,0,2.48,2c.43.3.88.59,1.34.87A24.44,24.44,0,0,0,49.26,64a23.44,23.44,0,0,0,2.66.82,25,25,0,0,0,3.37.59c.77.08,1.55.13,2.34.14s1.57,0,2.34-.08a25,25,0,0,0,3.38-.5,24.29,24.29,0,0,0,6.54-2.47l.55-.32c.46-.27.9-.56,1.34-.86l.46-.33.77-.59.83-.69h0c.47-.42.93-.87,1.36-1.33C75.35,58.19,75.48,58,75.62,57.87Z" transform="translate(-22.18 -16.41)"/><path class="cls-4" d="M42.25,71.94l.21.11-.21-.11Z" transform="translate(-22.18 -16.41)"/><path class="cls-4" d="M29.79,60.2l.09.15,0-.05Z" transform="translate(-22.18 -16.41)"/><path class="cls-4" d="M35.12,42c-.08.6-.14,1.2-.17,1.8a16.41,16.41,0,0,1,.16-1.72A.22.22,0,0,0,35.12,42Z" transform="translate(-22.18 -16.41)"/><path class="cls-4" d="M69.49,71.32h.05l.12,0-.19.06-.15.06Z" transform="translate(-22.18 -16.41)"/><path class="cls-4" d="M29.05,58.82l.12.23,0-.08A1.09,1.09,0,0,0,29.05,58.82Z" transform="translate(-22.18 -16.41)"/><path class="cls-4" d="M69.49,71.32l-.17.06,0,0,.15-.05h0Z" transform="translate(-22.18 -16.41)"/><path class="cls-4" d="M70.09,71.1l0,0h0Z" transform="translate(-22.18 -16.41)"/><path class="cls-4" d="M76.89,67.55l.19-.12,0,0a2.31,2.31,0,0,0,.19-.14Z" transform="translate(-22.18 -16.41)"/><path class="cls-4" d="M75.24,68.62c.57-.34,1.11-.7,1.65-1.07l.42-.29.15-.11c-.71.51-1.44,1-2.2,1.45l0,0Z" transform="translate(-22.18 -16.41)"/><path class="cls-4" d="M77.66,67h0Z" transform="translate(-22.18 -16.41)"/><path class="cls-4" d="M77.63,67l0,0h0c-.77.56-1.57,1.09-2.4,1.58.76-.45,1.49-.94,2.2-1.45Z" transform="translate(-22.18 -16.41)"/><path class="cls-4" d="M30.61,61.54l.05.07,0,0Z" transform="translate(-22.18 -16.41)"/><path class="cls-4" d="M69.66,71.26l.43-.16.08,0h0l-.7.26Z" transform="translate(-22.18 -16.41)"/><path class="cls-4" d="M27.5,55c0-.07-.05-.14-.07-.21l.12.38h0C27.53,55.1,27.52,55.05,27.5,55Z" transform="translate(-22.18 -16.41)"/><path class="cls-4" d="M27.07,53.53l.09.32c0-.12-.06-.23-.09-.35Z" transform="translate(-22.18 -16.41)"/><path class="cls-4" d="M26.64,51.48a2.87,2.87,0,0,0,.05.31s0-.08,0-.12Z" transform="translate(-22.18 -16.41)"/><path class="cls-4" d="M27.55,55.16h0Z" transform="translate(-22.18 -16.41)"/><path class="cls-4" d="M28.4,57.42l0,.08v0Z" transform="translate(-22.18 -16.41)"/><path class="cls-4" d="M27.66,55.49h0l.07.18h0Z" transform="translate(-22.18 -16.41)"/><path class="cls-4" d="M27,53.23c0,.1,0,.2.07.3v0C27.05,53.41,27,53.32,27,53.23Z" transform="translate(-22.18 -16.41)"/><path class="cls-4" d="M27.07,53.48h0v0Z" transform="translate(-22.18 -16.41)"/><path class="cls-4" d="M28.43,57.48v0l.1.21s0-.07,0-.11Z" transform="translate(-22.18 -16.41)"/><polygon class="cls-4" points="6.25 41.07 6.25 41.08 6.25 41.07 6.25 41.07"/><path class="cls-4" d="M37.13,35.85a.57.57,0,0,0-.08.13l-.12.23a1.17,1.17,0,0,1,0,.11C37,36.16,37,36,37.13,35.85Z" transform="translate(-22.18 -16.41)"/><path class="cls-4" d="M36.88,68.43l.28.23-.08-.07Z" transform="translate(-22.18 -16.41)"/><polygon class="cls-4" points="13.13 50.67 13.13 50.67 13.13 50.68 13.13 50.67 13.13 50.67"/><path class="cls-4" d="M38,34.31l-.1.15-.09.16A3.21,3.21,0,0,1,38,34.31Z" transform="translate(-22.18 -16.41)"/><polygon class="cls-4" points="13.13 50.67 13.13 50.67 13.13 50.67 13.13 50.67"/><polygon class="cls-4" points="13.13 50.67 13.13 50.67 13.13 50.67 13.13 50.67"/><path class="cls-4" d="M40.3,31.41l.11-.13c-.41.43-.8.87-1.17,1.34a1.54,1.54,0,0,1,.17-.19C39.69,32.08,40,31.74,40.3,31.41Z" transform="translate(-22.18 -16.41)"/><path class="cls-4" d="M40.75,30.94a1.29,1.29,0,0,1-.17.16l-.17.18-.11.13Z" transform="translate(-22.18 -16.41)"/><path class="cls-4" d="M39.08,32.82h0c-.37.46-.71.94-1,1.43q.44-.66.93-1.29Z" transform="translate(-22.18 -16.41)"/><path class="cls-4" d="M38.87,69.92s.05,0,.08.06h0Z" transform="translate(-22.18 -16.41)"/><path class="cls-4" d="M39.41,32.43a1.54,1.54,0,0,0-.17.19l-.15.19h0Z" transform="translate(-22.18 -16.41)"/><path class="cls-4" d="M37.83,34.62l.09-.16c-.31.49-.6,1-.87,1.52a.57.57,0,0,1,.08-.13C37.35,35.43,37.58,35,37.83,34.62Z" transform="translate(-22.18 -16.41)"/><path class="cls-4" d="M33.29,65l-.38-.45.38.45Z" transform="translate(-22.18 -16.41)"/><path class="cls-4" d="M35.6,39.69s0,0,0,0-.05.17-.07.26a1.16,1.16,0,0,1,0,.18Z" transform="translate(-22.18 -16.41)"/><path class="cls-4" d="M35.48,40.16a1.16,1.16,0,0,0,0-.18,17.14,17.14,0,0,0-.36,1.73c0-.06,0-.12,0-.19C35.28,41.06,35.37,40.61,35.48,40.16Z" transform="translate(-22.18 -16.41)"/><path class="cls-4" d="M36.13,38.05a17.08,17.08,0,0,0-.54,1.67s0,0,0,0C35.75,39.13,35.93,38.59,36.13,38.05Z" transform="translate(-22.18 -16.41)"/><path class="cls-4" d="M35.2,41.52c0,.07,0,.13,0,.19s0,.18,0,.26a.22.22,0,0,1,0,.08Z" transform="translate(-22.18 -16.41)"/><polygon class="cls-4" points="11.11 48.63 11.11 48.63 11.11 48.63 11.11 48.63"/><path class="cls-4" d="M39,70h0l.32.21-.12-.09Z" transform="translate(-22.18 -16.41)"/><path class="cls-4" d="M36.88,36.32a1.17,1.17,0,0,0,0-.11c-.26.52-.49,1-.71,1.6a.59.59,0,0,1,0-.08C36.45,37.25,36.66,36.78,36.88,36.32Z" transform="translate(-22.18 -16.41)"/><path class="cls-4" d="M36.26,37.73a.59.59,0,0,0,0,.08l0,0Z" transform="translate(-22.18 -16.41)"/><path class="cls-4" d="M34.7,66.49h0c.2.2.4.4.61.59h0Z" transform="translate(-22.18 -16.41)"/><path class="cls-4" d="M34.54,66.35l.16.15h0Z" transform="translate(-22.18 -16.41)"/><polygon class="cls-4" points="46.3 57.65 46.3 57.66 46.3 57.65 46.3 57.65"/><polygon class="cls-4" points="47.37 57.28 47.37 57.28 47.37 57.29 47.37 57.28"/><path class="cls-4" d="M69.56,73.69l-.17.07.16-.06Z" transform="translate(-22.18 -16.41)"/><path class="cls-4" d="M45.53,29.69c.42-.24.85-.46,1.29-.67C46.38,29.23,46,29.45,45.53,29.69Z" transform="translate(-22.18 -16.41)"/><path class="cls-4" d="M43.64,30.86l-.09.07c.51-.36,1-.69,1.56-1C44.61,30.22,44.11,30.53,43.64,30.86Z" transform="translate(-22.18 -16.41)"/><path class="cls-4" d="M42.05,32.09c.37-.31.76-.61,1.15-.9C42.81,31.48,42.42,31.78,42.05,32.09Z" transform="translate(-22.18 -16.41)"/><path class="cls-4" d="M69.91,73.57l.16-.07-.16.06Z" transform="translate(-22.18 -16.41)"/><path class="cls-4" d="M69.91,73.56l-.32.12h0l.36-.13Z" transform="translate(-22.18 -16.41)"/><path class="cls-4" d="M72.16,72.63l.16-.07h0Z" transform="translate(-22.18 -16.41)"/><path class="cls-4" d="M72.32,72.56l.24-.12h0l-.24.12Z" transform="translate(-22.18 -16.41)"/><path class="cls-4" d="M66.35,74.68l.12,0h0Z" transform="translate(-22.18 -16.41)"/><path class="cls-4" d="M38.88,35.37c-.33.43-.64.88-.94,1.34.33-.5.67-1,1-1.45Z" transform="translate(-22.18 -16.41)"/><path class="cls-4" d="M40.65,33.38c.3-.3.61-.59.92-.87C41.26,32.79,41,33.08,40.65,33.38Z" transform="translate(-22.18 -16.41)"/><path class="cls-4" d="M37,38.28c.22-.41.46-.82.71-1.22C37.48,37.46,37.24,37.87,37,38.28Z" transform="translate(-22.18 -16.41)"/><path class="cls-4" d="M53.34,26.94c.49-.08,1-.12,1.47-.17C54.32,26.82,53.83,26.86,53.34,26.94Z" transform="translate(-22.18 -16.41)"/><path class="cls-4" d="M55.55,26.68c.75-.06,1.51-.09,2.28-.08C57.06,26.59,56.3,26.62,55.55,26.68Z" transform="translate(-22.18 -16.41)"/><polygon class="cls-4" points="44.29 58.24 44.29 58.24 44.29 58.24 44.29 58.24"/><path class="cls-4" d="M51.2,27.4c.42-.11.85-.19,1.28-.27C52.05,27.21,51.62,27.29,51.2,27.4Z" transform="translate(-22.18 -16.41)"/><path class="cls-4" d="M66.47,74.65h0Z" transform="translate(-22.18 -16.41)"/><path class="cls-4" d="M47.35,28.77c.48-.22,1-.43,1.48-.61C48.33,28.34,47.83,28.55,47.35,28.77Z" transform="translate(-22.18 -16.41)"/><path class="cls-4" d="M68.48,74.06h0l.34-.11-.3.09Z" transform="translate(-22.18 -16.41)"/><path class="cls-4" d="M49.22,28l-.08,0c.38-.14.78-.25,1.18-.37C50,27.78,49.58,27.88,49.22,28Z" transform="translate(-22.18 -16.41)"/><path class="cls-4" d="M68,74.24h0l.53-.17h0Z" transform="translate(-22.18 -16.41)"/><polygon class="cls-4" points="45.76 57.83 45.77 57.82 45.77 57.82 45.76 57.83"/><path class="cls-4" d="M27.55,55.17a.88.88,0,0,0,.05.15,1.42,1.42,0,0,1-.05-.16Z" transform="translate(-22.18 -16.41)"/><path class="cls-4" d="M39.31,34.87c.28-.35.58-.7.89-1C39.89,34.18,39.59,34.52,39.31,34.87Z" transform="translate(-22.18 -16.41)"/><path class="cls-4" d="M77.55,69.46h0Z" transform="translate(-22.18 -16.41)"/><path class="cls-4" d="M27.3,54.37l0,.13,0-.13Z" transform="translate(-22.18 -16.41)"/><path class="cls-4" d="M27.66,55.5h0a.58.58,0,0,1-.05-.14Z" transform="translate(-22.18 -16.41)"/><path class="cls-4" d="M77.55,69.46l0,0,0,0Z" transform="translate(-22.18 -16.41)"/><path class="cls-4" d="M40.88,71.19h0c-.16-.09-.32-.18-.47-.28Z" transform="translate(-22.18 -16.41)"/><path class="cls-4" d="M27.3,54.37h0s0-.1,0-.15A.83.83,0,0,0,27.3,54.37Z" transform="translate(-22.18 -16.41)"/><path class="cls-4" d="M64.58,75.08l.2,0-.2,0Z" transform="translate(-22.18 -16.41)"/><polygon class="cls-4" points="4.19 27.1 4.11 29.23 4.19 27.1 4.19 27.1"/><path class="cls-4" d="M77.36,55.66l0-.07.06-.11Z" transform="translate(-22.18 -16.41)"/><path class="cls-4" d="M40.88,71.19l.16.09-.16-.1Z" transform="translate(-22.18 -16.41)"/><polygon class="cls-4" points="23.08 56.9 23.08 56.9 23.07 56.9 23.08 56.9"/><polygon class="cls-4" points="52.91 54.67 52.91 54.67 52.91 54.67 52.91 54.67"/><path class="cls-4" d="M34.93,45.13v.15c0-.26,0-.53.08-.8C35,44.7,35,44.91,34.93,45.13Z" transform="translate(-22.18 -16.41)"/><path class="cls-4" d="M72.66,72.4l.14-.08-.14.07Z" transform="translate(-22.18 -16.41)"/><path class="cls-4" d="M83.61,61.25l.12-.16c-.28.37-.58.74-.88,1.1C83.11,61.88,83.36,61.57,83.61,61.25Z" transform="translate(-22.18 -16.41)"/><path class="cls-4" d="M72.56,72.43h0l.1,0h0Z" transform="translate(-22.18 -16.41)"/><path class="cls-4" d="M35.5,42.13c.16-.58.34-1.15.55-1.71C35.84,41,35.66,41.55,35.5,42.13Z" transform="translate(-22.18 -16.41)"/><path class="cls-4" d="M35.1,44c.07-.46.17-.91.28-1.36C35.27,43.05,35.17,43.5,35.1,44Z" transform="translate(-22.18 -16.41)"/><path class="cls-4" d="M75.09,71.09h0c.57-.34,1.13-.71,1.68-1.09C76.22,70.38,75.66,70.75,75.09,71.09Z" transform="translate(-22.18 -16.41)"/><path class="cls-4" d="M36.16,40.16c.19-.47.39-.94.62-1.4C36.55,39.22,36.35,39.69,36.16,40.16Z" transform="translate(-22.18 -16.41)"/><polygon class="cls-4" points="52.9 54.67 52.9 54.67 52.9 54.67 52.9 54.67"/><polygon class="cls-4" points="52.9 54.67 52.9 54.67 52.91 54.67 52.91 54.67 52.9 54.67"/><path class="cls-4" d="M55.68,24.24c.74-.06,1.49-.09,2.25-.08C57.17,24.15,56.42,24.18,55.68,24.24Z" transform="translate(-22.18 -16.41)"/><path class="cls-4" d="M55.13,75.6Z" transform="translate(-22.18 -16.41)"/><polygon class="cls-4" points="36.2 59.29 36.2 59.3 36.2 59.29 36.2 59.29"/><path class="cls-4" d="M58.39,75.71h0Z" transform="translate(-22.18 -16.41)"/><path class="cls-4" d="M79.22,52.15s0-.09,0-.13c-.13.34-.28.66-.43,1,0-.11.11-.21.15-.32S79.15,52.33,79.22,52.15Z" transform="translate(-22.18 -16.41)"/><path class="cls-4" d="M57.48,75.71h0c.31,0,.61,0,.91,0h0C58.09,75.71,57.79,75.72,57.48,75.71Z" transform="translate(-22.18 -16.41)"/><polygon class="cls-4" points="37.73 59.24 37.73 59.24 37.73 59.24 37.73 59.25 37.73 59.24 37.73 59.24"/><polygon class="cls-4" points="35.3 59.3 35.3 59.3 35.3 59.3 35.3 59.3"/><path class="cls-4" d="M80.21,49s0,0,0-.07c0-.18.06-.37.09-.55-.06.36-.13.73-.22,1.08h0C80.14,49.27,80.18,49.12,80.21,49Z" transform="translate(-22.18 -16.41)"/><path class="cls-4" d="M59.91,75.66l.59,0-.59,0Z" transform="translate(-22.18 -16.41)"/><path class="cls-4" d="M59.58,75.67h-.1l.43,0h0Z" transform="translate(-22.18 -16.41)"/><path class="cls-4" d="M79.8,50.56c0-.11,0-.22.09-.34-.1.35-.21.7-.33,1a1.12,1.12,0,0,1,0-.13C79.67,50.94,79.74,50.75,79.8,50.56Z" transform="translate(-22.18 -16.41)"/><path class="cls-4" d="M55.13,75.6h0l.4,0-.2,0Z" transform="translate(-22.18 -16.41)"/><path class="cls-4" d="M75.71,57.77l-.09.1h0Z" transform="translate(-22.18 -16.41)"/><path class="cls-4" d="M77.35,55.66a1.88,1.88,0,0,0,.12-.18l.07-.11c-.21.32-.43.63-.65.94.13-.19.28-.37.4-.56A.47.47,0,0,0,77.35,55.66Z" transform="translate(-22.18 -16.41)"/><path class="cls-4" d="M54.78,75.56h0Z" transform="translate(-22.18 -16.41)"/><polygon class="cls-4" points="35.3 59.3 35.3 59.3 35.3 59.3 35.3 59.3"/><path class="cls-4" d="M56.2,75.67l.41,0H56.2Z" transform="translate(-22.18 -16.41)"/><path class="cls-4" d="M78.48,53.75h0c-.17.32-.35.64-.54.95l.31-.51C78.34,54,78.41,53.89,78.48,53.75Z" transform="translate(-22.18 -16.41)"/><path class="cls-4" d="M56.61,75.69l.87,0-.87,0Z" transform="translate(-22.18 -16.41)"/><polygon class="cls-4" points="41.64 58.8 41.64 58.8 41.64 58.8 41.64 58.8"/><path class="cls-4" d="M63.82,75.22h0Z" transform="translate(-22.18 -16.41)"/><polygon class="cls-4" points="41.64 58.8 41.64 58.8 41.64 58.8 41.64 58.8"/><path class="cls-4" d="M60.7,75.61h0l.56-.06h0Z" transform="translate(-22.18 -16.41)"/><path class="cls-4" d="M60.64,75.61h0Z" transform="translate(-22.18 -16.41)"/><path class="cls-4" d="M63.82,75.22h0l.76-.14h0l-.54.1Z" transform="translate(-22.18 -16.41)"/><polygon class="cls-4" points="41.64 58.8 41.64 58.8 41.64 58.8 41.64 58.8 41.64 58.8"/><path class="cls-4" d="M62.27,75.45h-.08l.65-.1h0Z" transform="translate(-22.18 -16.41)"/><polygon class="cls-4" points="38.52 59.19 38.52 59.19 38.52 59.19 38.52 59.19"/><polygon class="cls-4" points="38.52 59.19 38.52 59.19 38.52 59.19 38.52 59.19"/><polygon class="cls-4" points="38.52 59.19 38.52 59.19 38.52 59.19 38.52 59.19 38.52 59.19 38.52 59.19"/><path class="cls-20" d="M80.63,45.52h0c0-.12,0-.24,0-.36h0C80.64,45.28,80.64,45.4,80.63,45.52Z" transform="translate(-22.18 -16.41)"/><path class="cls-20" d="M80.64,45.16c0,.12,0,.24,0,.36v-.36Z" transform="translate(-22.18 -16.41)"/><path class="cls-20" d="M80.63,45.74h0v-.22h0Z" transform="translate(-22.18 -16.41)"/><path class="cls-20" d="M80.63,45.74v-.06a1.48,1.48,0,0,1,0-.21v.27Z" transform="translate(-22.18 -16.41)"/><path class="cls-21" d="M89.11,47.71l0-.8c0,.27-.05.53-.07.8Z" transform="translate(-22.18 -16.41)"/><path class="cls-22" d="M89.15,46.91l0,.8h0c0,.15,0,.31,0,.46a26.21,26.21,0,0,1-1.53,6.19c-.25.66-.53,1.3-.84,1.94-.1.21-.2.42-.31.63a26.92,26.92,0,0,1-2.62,4.16l-.12.16c-.25.32-.5.63-.76.94a28.36,28.36,0,0,1-2.46,2.57l-.53.48-.1,2.44.53-.48a29.8,29.8,0,0,0,2.46-2.57c.26-.31.51-.63.75-.95l.13-.15a26.92,26.92,0,0,0,2.62-4.16c.11-.21.21-.42.31-.63.3-.64.58-1.28.83-1.94a25.75,25.75,0,0,0,1.54-6.19c.06-.48.1-1,.13-1.44l.1-2.44C89.16,46.79,89.15,46.85,89.15,46.91Z" transform="translate(-22.18 -16.41)"/><path class="cls-22" d="M79.2,68.17l.56-.49c-.18.16-.38.3-.56.45Z" transform="translate(-22.18 -16.41)"/><path class="cls-21" d="M89.06,49.17l0-.57.1-2.44a5.44,5.44,0,0,1,0,.57Z" transform="translate(-22.18 -16.41)"/><path class="cls-22" d="M77,69.83h0v0l.53-.37-.15.1Z" transform="translate(-22.18 -16.41)"/><path class="cls-22" d="M77.63,67h0Z" transform="translate(-22.18 -16.41)"/><path class="cls-22" d="M77.08,67.43h0l0,0,0,0Z" transform="translate(-22.18 -16.41)"/><path class="cls-22" d="M77.55,69.45l-.19.14.15-.1,0,0Z" transform="translate(-22.18 -16.41)"/><path class="cls-22" d="M77.55,69.45h0l.23-.18Z" transform="translate(-22.18 -16.41)"/><path class="cls-22" d="M79.2,68.13c-.46.39-.93.78-1.41,1.14l-.23.18h0c.56-.41,1.1-.84,1.63-1.28Z" transform="translate(-22.18 -16.41)"/><path class="cls-22" d="M78.62,66.28c-.13.11-.27.21-.41.31C78.35,66.49,78.49,66.39,78.62,66.28Z" transform="translate(-22.18 -16.41)"/><path class="cls-22" d="M77.64,67h0Z" transform="translate(-22.18 -16.41)"/><path class="cls-22" d="M78.62,66.28,79,66l-1,.78.22-.17C78.35,66.49,78.49,66.39,78.62,66.28Z" transform="translate(-22.18 -16.41)"/><path class="cls-23" d="M72.66,72.38l-.1,0h0l.1,0Z" transform="translate(-22.18 -16.41)"/><path class="cls-23" d="M72.61,71.22l0,1.2h0Z" transform="translate(-22.18 -16.41)"/><path class="cls-23" d="M73.51,69.58l-.13.07Z" transform="translate(-22.18 -16.41)"/><path class="cls-23" d="M72.66,72.38h0l.14-.07.13-.07Z" transform="translate(-22.18 -16.41)"/><path class="cls-23" d="M72.93,72.25l-.13.07.35-.17.78-.4c.39-.22.78-.43,1.16-.66l-.27.14Q73.89,71.77,72.93,72.25Z" transform="translate(-22.18 -16.41)"/><path class="cls-23" d="M72.32,72.54h0l.24-.12h0Z" transform="translate(-22.18 -16.41)"/><path class="cls-23" d="M72.58,70h0l.28-.15h0l-.64.31h0Z" transform="translate(-22.18 -16.41)"/><path class="cls-23" d="M72.42,70.12l.16-.08-.31.14Z" transform="translate(-22.18 -16.41)"/><path class="cls-23" d="M70.44,73.35c-.12.05-.24.11-.37.15l.36-.13c.47-.18.93-.38,1.38-.58l.35-.16-.25.1C71.43,73,70.94,73.15,70.44,73.35Z" transform="translate(-22.18 -16.41)"/><path class="cls-23" d="M71.37,70.58l.26-.11-.06,0Z" transform="translate(-22.18 -16.41)"/><path class="cls-23" d="M72.32,72.54l-.41.19.25-.1.16-.08Z" transform="translate(-22.18 -16.41)"/><path class="cls-23" d="M72.66,70h0l.1,0,.12-.07L72.6,70Z" transform="translate(-22.18 -16.41)"/><path class="cls-23" d="M69.91,73.56h0l.16-.06c.13,0,.25-.1.37-.15Z" transform="translate(-22.18 -16.41)"/><path class="cls-23" d="M75.46,68.48l-.2.13Z" transform="translate(-22.18 -16.41)"/><path class="cls-23" d="M75.13,71.06l0,0c.57-.34,1.13-.71,1.68-1.09l.21-.14v0C76.38,70.26,75.77,70.68,75.13,71.06Z" transform="translate(-22.18 -16.41)"/><path class="cls-23" d="M75.09,71.09h0l0,0,0,0Z" transform="translate(-22.18 -16.41)"/><path class="cls-23" d="M69.66,71.26l.15-.05,0,0,.24-.09Z" transform="translate(-22.18 -16.41)"/><path class="cls-23" d="M71.19,70.66l.18-.08.2-.08Z" transform="translate(-22.18 -16.41)"/><path class="cls-23" d="M75.24,68.62h0l.2-.13c.48-.29,1-.6,1.41-.91l0,0C76.35,67.92,75.81,68.28,75.24,68.62Z" transform="translate(-22.18 -16.41)"/><path class="cls-23" d="M76.89,67.55l0,0,.21-.14h0Z" transform="translate(-22.18 -16.41)"/><path class="cls-23" d="M75.09,71.08c-.09.06-.18.1-.27.15l.27-.14h0Z" transform="translate(-22.18 -16.41)"/><path class="cls-23" d="M69.85,71.19l.16-.06.12,0,0,0Z" transform="translate(-22.18 -16.41)"/><path class="cls-23" d="M69.91,73.56h0l-.32.12Z" transform="translate(-22.18 -16.41)"/><path class="cls-23" d="M69.54,71.31l.12,0h0l.15-.05-.15.05Z" transform="translate(-22.18 -16.41)"/><path class="cls-20" d="M39.58,67.88l.31.2.62.38c.21.13.42.26.64.38l.62.35C41,68.78,40.29,68.34,39.58,67.88Z" transform="translate(-22.18 -16.41)"/><path class="cls-20" d="M35.41,64.65h0c.51.47,1,.91,1.57,1.34l.2.16Q36.27,65.43,35.41,64.65Z" transform="translate(-22.18 -16.41)"/><path class="cls-20" d="M39.25,67.66,39,67.48l.08.06.32.21Z" transform="translate(-22.18 -16.41)"/><path class="cls-20" d="M37.91,66.7c.35.26.7.53,1.06.78l.28.18C38.79,67.36,38.35,67,37.91,66.7Z" transform="translate(-22.18 -16.41)"/><path class="cls-20" d="M37.44,66.36c.5.39,1,.76,1.53,1.12-.36-.25-.71-.52-1.06-.78C37.76,66.59,37.59,66.48,37.44,66.36Z" transform="translate(-22.18 -16.41)"/><polygon class="cls-20" points="6.25 41.07 6.25 41.07 6.25 41.06 6.25 41.06 6.25 41.07"/><path class="cls-20" d="M39.47,67.81l.26.17.16.1-.31-.2A1.05,1.05,0,0,1,39.47,67.81Z" transform="translate(-22.18 -16.41)"/><path class="cls-20" d="M27.07,53.48c0-.07,0-.14,0-.21l.09-2.18c0,.8-.07,1.59-.1,2.39Z" transform="translate(-22.18 -16.41)"/><path class="cls-20" d="M28.49,57.6l-.06-.12h0Z" transform="translate(-22.18 -16.41)"/><path class="cls-20" d="M37,66l.28.23-.08-.07Z" transform="translate(-22.18 -16.41)"/><path class="cls-20" d="M37,66c-.54-.43-1.06-.87-1.57-1.34C35.92,65.12,36.44,65.56,37,66Z" transform="translate(-22.18 -16.41)"/><path class="cls-20" d="M42.33,70.12c0-.13,0-.24,0-.38C42.34,69.88,42.33,70,42.33,70.12Z" transform="translate(-22.18 -16.41)"/><path class="cls-20" d="M56.3,73.23c.43,0,.85,0,1.28,0-.72,0-1.44,0-2.15-.1l.2,0Z" transform="translate(-22.18 -16.41)"/><path class="cls-20" d="M55,73.13h0Z" transform="translate(-22.18 -16.41)"/><path class="cls-20" d="M54.88,73.13,53.71,73Z" transform="translate(-22.18 -16.41)"/><path class="cls-20" d="M54.88,73.13h0c-.65-.06-1.31-.14-1.95-.23H53l.69.09Z" transform="translate(-22.18 -16.41)"/><path class="cls-20" d="M52.8,72.88l.22,0H53Z" transform="translate(-22.18 -16.41)"/><path class="cls-20" d="M53.71,73,53,72.91l.29,0c0,.8-.07,1.61-.1,2.42h0c0-.81.07-1.62.1-2.42Z" transform="translate(-22.18 -16.41)"/><path class="cls-20" d="M41,68.75h0l.16.09c-.22-.12-.43-.25-.64-.38Z" transform="translate(-22.18 -16.41)"/><path class="cls-20" d="M56.3,73.23l-.67,0Z" transform="translate(-22.18 -16.41)"/><path class="cls-20" d="M56.71,73.25l.87,0c-.43,0-.85,0-1.28,0Z" transform="translate(-22.18 -16.41)"/><path class="cls-20" d="M68.35,71.71l.09,0,.32-.11L68,71.8C68.14,71.76,68.25,71.74,68.35,71.71Z" transform="translate(-22.18 -16.41)"/><path class="cls-20" d="M41.15,68.84l.65.36h0Z" transform="translate(-22.18 -16.41)"/><path class="cls-20" d="M63.81,72.79l-.87.13Z" transform="translate(-22.18 -16.41)"/><path class="cls-20" d="M65,72.57l.71-.16c-.59.14-1.17.27-1.77.37h0C64.28,72.72,64.63,72.64,65,72.57Z" transform="translate(-22.18 -16.41)"/><path class="cls-20" d="M62.85,72.94l-.48.07Z" transform="translate(-22.18 -16.41)"/><path class="cls-20" d="M55.43,73.17h-.2l.4,0Z" transform="translate(-22.18 -16.41)"/><path class="cls-20" d="M40.51,68.46l-.62-.38Z" transform="translate(-22.18 -16.41)"/><path class="cls-20" d="M58.82,73.26h0Z" transform="translate(-22.18 -16.41)"/><path class="cls-20" d="M57.58,73.27s0,0-.1,2.44h0c0-.81.07-1.62.1-2.44h0q.45,0,.9,0h.38C58.44,73.27,58,73.28,57.58,73.27Z" transform="translate(-22.18 -16.41)"/><path class="cls-20" d="M45.26,73.3l.09-2.13c0-.1,0-.2,0-.29C45.33,71.68,45.29,72.49,45.26,73.3Z" transform="translate(-22.18 -16.41)"/><path class="cls-20" d="M67.12,72.06l-.55.15.18,0Z" transform="translate(-22.18 -16.41)"/><polygon class="cls-20" points="13.13 50.67 13.13 50.67 13.13 50.67 13.13 50.67"/><path class="cls-20" d="M42.18,69.41l.38.2.13.06.6.29.19.08C43,69.84,42.61,69.63,42.18,69.41Z" transform="translate(-22.18 -16.41)"/><path class="cls-20" d="M42.56,69.61l-.38-.2-.06,0,.23.13a1.77,1.77,0,0,1,0,.24,1.77,1.77,0,0,0,0-.24Z" transform="translate(-22.18 -16.41)"/><polygon class="cls-20" points="13.13 50.67 13.13 50.67 13.13 50.67 13.13 50.67 13.13 50.67"/><path class="cls-20" d="M43.29,70l.68.33L43.48,70Z" transform="translate(-22.18 -16.41)"/><path class="cls-20" d="M43,69.81l.11,0h0l.22.1-.6-.29Z" transform="translate(-22.18 -16.41)"/><polygon class="cls-20" points="11.11 48.63 11.11 48.63 11.11 48.62 11.11 48.63"/><polygon class="cls-20" points="9.32 46.41 9.32 46.41 9.31 46.4 9.32 46.41"/><path class="cls-20" d="M48.26,71.88l.17,0,.21.06h0Z" transform="translate(-22.18 -16.41)"/><path class="cls-20" d="M34.65,63.91c-.43-.43-.85-.86-1.25-1.31C33.8,63.05,34.22,63.48,34.65,63.91Z" transform="translate(-22.18 -16.41)"/><path class="cls-20" d="M42.56,69.61l.13.06Z" transform="translate(-22.18 -16.41)"/><path class="cls-20" d="M46.85,71.42l.42.14c-.64-.21-1.28-.44-1.91-.68l.07,0C45.9,71.08,46.37,71.26,46.85,71.42Z" transform="translate(-22.18 -16.41)"/><path class="cls-20" d="M46.85,71.42c-.48-.16-1-.34-1.42-.52C45.9,71.08,46.37,71.26,46.85,71.42Z" transform="translate(-22.18 -16.41)"/><path class="cls-20" d="M45.36,70.88h0l.07,0Z" transform="translate(-22.18 -16.41)"/><path class="cls-20" d="M46.91,71.45l.45.14-.09,0-.42-.14Z" transform="translate(-22.18 -16.41)"/><path class="cls-20" d="M48.26,71.88l0,0Z" transform="translate(-22.18 -16.41)"/><path class="cls-20" d="M48,72.45c0,.13,0,.28,0,.47C48,72.73,48,72.58,48,72.45Z" transform="translate(-22.18 -16.41)"/><polygon class="cls-20" points="13.23 48.23 13.23 48.23 13.23 48.23 13.23 48.23"/><path class="cls-20" d="M48.26,71.88l.35.09-.73-.22.34.11Z" transform="translate(-22.18 -16.41)"/><path class="cls-20" d="M48.06,71.81a2.26,2.26,0,0,0,0,.25,2.26,2.26,0,0,1,0-.25l.16,0-.34-.11-.15,0Z" transform="translate(-22.18 -16.41)"/><path class="cls-20" d="M27.36,51.78s0,.1,0,.15,0,.09,0,.13S27.39,51.87,27.36,51.78Z" transform="translate(-22.18 -16.41)"/><path class="cls-20" d="M37.16,68.66c.21.17.44.32.65.48l-.58-.43Z" transform="translate(-22.18 -16.41)"/><path class="cls-20" d="M39.15,70.1l.12.09.09.06.12.07Z" transform="translate(-22.18 -16.41)"/><path class="cls-20" d="M32.18,61.14c.39.5.79,1,1.22,1.46C33,62.13,32.57,61.64,32.18,61.14Z" transform="translate(-22.18 -16.41)"/><path class="cls-20" d="M27.53,52.35l.12.38a.58.58,0,0,0,.05.14c0-.1-.07-.21-.1-.31S27.55,52.42,27.53,52.35Z" transform="translate(-22.18 -16.41)"/><path class="cls-20" d="M27.1,50.76c-.06-.25-.11-.5-.17-.75s-.05-.2-.06-.3C26.94,50.06,27,50.41,27.1,50.76Z" transform="translate(-22.18 -16.41)"/><path class="cls-20" d="M37.08,68.59l.08.07.07,0Z" transform="translate(-22.18 -16.41)"/><path class="cls-20" d="M41.67,71.63a1.86,1.86,0,0,1,.19.11l.15.07-.22-.12Z" transform="translate(-22.18 -16.41)"/><path class="cls-20" d="M31.58,60.36v0q-.42-.57-.81-1.17C31,59.57,31.3,60,31.58,60.36Z" transform="translate(-22.18 -16.41)"/><path class="cls-20" d="M31.57,60.34c-.29-.39-.56-.79-.82-1.19v0Q31.15,59.77,31.57,60.34Z" transform="translate(-22.18 -16.41)"/><path class="cls-20" d="M48.54,74.42l.34.1.75.19.47.11c-.51-.12-1-.25-1.52-.39Z" transform="translate(-22.18 -16.41)"/><path class="cls-20" d="M41.79,71.69l.22.12.07,0Z" transform="translate(-22.18 -16.41)"/><path class="cls-20" d="M40.92,70.27c0,.3,0,.59,0,.89h0c0-.32,0-.63,0-.94Z" transform="translate(-22.18 -16.41)"/><path class="cls-20" d="M48.51,74.41h.07Z" transform="translate(-22.18 -16.41)"/><polygon class="cls-20" points="13.13 50.67 13.13 50.67 13.13 50.67 13.13 50.67 13.13 50.67"/><path class="cls-20" d="M27.28,51.5s0,0,0,0v0S27.27,51.48,27.28,51.5Z" transform="translate(-22.18 -16.41)"/><path class="cls-20" d="M27.26,51.43v0c-.13-.47-.23-1-.34-1.44.06.25.11.5.17.75S27.2,51.21,27.26,51.43Z" transform="translate(-22.18 -16.41)"/><path class="cls-20" d="M26.74,49l0,.18c-.11-.6-.2-1.21-.27-1.82,0,0,0,0,0,0C26.57,48,26.64,48.5,26.74,49Z" transform="translate(-22.18 -16.41)"/><path class="cls-20" d="M26.74,49c-.1-.53-.17-1.07-.23-1.6C26.57,48,26.64,48.5,26.74,49Z" transform="translate(-22.18 -16.41)"/><path class="cls-20" d="M55.23,73.16c0,.81-.06,1.62-.1,2.43h0C55.17,74.78,55.2,74,55.23,73.16Z" transform="translate(-22.18 -16.41)"/><path class="cls-20" d="M54.8,75.57h.06l.23,0h0Z" transform="translate(-22.18 -16.41)"/><path class="cls-20" d="M59.47,75.68h0Z" transform="translate(-22.18 -16.41)"/><polygon class="cls-20" points="13.13 50.67 13.13 50.67 13.13 50.67 13.13 50.67"/><path class="cls-20" d="M26.74,49c0,.11,0,.21.05.32,0,0,0-.09,0-.13Z" transform="translate(-22.18 -16.41)"/><polygon class="cls-20" points="13.13 50.67 13.13 50.67 13.13 50.67 13.13 50.67 13.13 50.67"/><polygon class="cls-20" points="13.23 48.23 13.23 48.23 13.23 48.23 13.23 48.23"/><path class="cls-20" d="M58.76,75.7h.34l.38,0h0Z" transform="translate(-22.18 -16.41)"/><path class="cls-20" d="M55.13,75.59h.2Z" transform="translate(-22.18 -16.41)"/><path class="cls-20" d="M29.16,56.38a2.4,2.4,0,0,0,.11.23l0-.08A1.09,1.09,0,0,1,29.16,56.38Z" transform="translate(-22.18 -16.41)"/><path class="cls-20" d="M29.89,57.76l.09.15,0,0Z" transform="translate(-22.18 -16.41)"/><path class="cls-20" d="M50.48,72.45l.22,0,.31.06-.8-.18Z" transform="translate(-22.18 -16.41)"/><polygon class="cls-20" points="11.11 48.63 11.11 48.63 11.11 48.63 11.11 48.63 11.11 48.63"/><path class="cls-20" d="M68.82,74l.2-.07.2-.07-.16.05Z" transform="translate(-22.18 -16.41)"/><path class="cls-20" d="M28.5,55l0,.08a2,2,0,0,1,.1.21s0-.07,0-.11Z" transform="translate(-22.18 -16.41)"/><polygon class="cls-20" points="4.31 30.92 4.31 30.92 4.31 30.93 4.31 30.92 4.31 30.92"/><path class="cls-20" d="M30.71,59.1l.05.07v0Z" transform="translate(-22.18 -16.41)"/><path class="cls-20" d="M34.65,63.91l.15.15c.2.2.4.4.61.59C35.15,64.41,34.9,64.16,34.65,63.91Z" transform="translate(-22.18 -16.41)"/><path class="cls-20" d="M27.17,51.09l.09.32c-.06-.21-.11-.42-.16-.62C27.13,50.89,27.14,51,27.17,51.09Z" transform="translate(-22.18 -16.41)"/><path class="cls-20" d="M33.4,62.6h0c.4.45.82.88,1.25,1.31.25.25.5.5.76.74C34.71,64,34,63.31,33.4,62.6Z" transform="translate(-22.18 -16.41)"/><path class="cls-20" d="M68.52,74.05l.3-.09.24-.09Z" transform="translate(-22.18 -16.41)"/><path class="cls-20" d="M32.18,61.14h0c.39.5.79,1,1.22,1.46h0C33,62.13,32.57,61.64,32.18,61.14Z" transform="translate(-22.18 -16.41)"/><polygon class="cls-20" points="23.08 56.9 23.08 56.9 23.08 56.9 23.08 56.9 23.08 56.9 23.08 56.9"/><path class="cls-20" d="M28.32,54.53c-.08-.2-.17-.41-.24-.62C28.15,54.12,28.24,54.33,28.32,54.53Z" transform="translate(-22.18 -16.41)"/><path class="cls-20" d="M47.17,74l.09,0,.37.12.14,0Z" transform="translate(-22.18 -16.41)"/><path class="cls-20" d="M27.61,52.58l.21.63Z" transform="translate(-22.18 -16.41)"/><path class="cls-20" d="M29.66,57.33a.83.83,0,0,0-.07-.13l-.31-.59C29.4,56.86,29.53,57.09,29.66,57.33Z" transform="translate(-22.18 -16.41)"/><path class="cls-20" d="M30.47,58.71l0-.07L30,57.91Z" transform="translate(-22.18 -16.41)"/><path class="cls-20" d="M30.43,58.64c-.16-.26-.32-.51-.47-.78,0,0,0,0,0,0Z" transform="translate(-22.18 -16.41)"/><path class="cls-20" d="M43.38,72.48l.49.25c.46.2.92.4,1.39.58h0C44.62,73.06,44,72.77,43.38,72.48Z" transform="translate(-22.18 -16.41)"/><path class="cls-20" d="M29,56l-.09-.19c-.08-.16-.16-.32-.23-.49C28.74,55.51,28.85,55.74,29,56Z" transform="translate(-22.18 -16.41)"/><path class="cls-20" d="M28.87,55.77c-.09-.2-.19-.39-.28-.59l.05.1C28.71,55.45,28.79,55.61,28.87,55.77Z" transform="translate(-22.18 -16.41)"/><path class="cls-20" d="M29.59,57.2c-.12-.22-.24-.44-.35-.66a.25.25,0,0,0,0,.07Z" transform="translate(-22.18 -16.41)"/><polygon class="cls-20" points="11.11 48.63 11.11 48.63 11.12 48.63 11.12 48.63 11.11 48.63"/><path class="cls-20" d="M64.58,75.06h0c0-.81.07-1.61.1-2.42C64.65,73.45,64.61,74.25,64.58,75.06Z" transform="translate(-22.18 -16.41)"/><polygon class="cls-20" points="23.07 56.9 23.07 56.9 23.08 56.9 23.08 56.9 23.07 56.9"/><path class="cls-20" d="M55.09,75.6l-.23,0Z" transform="translate(-22.18 -16.41)"/><path class="cls-20" d="M52.7,75.32l.15,0-.46-.07Z" transform="translate(-22.18 -16.41)"/><path class="cls-20" d="M64.88,72.59l.43-.08-.33.06Z" transform="translate(-22.18 -16.41)"/><path class="cls-20" d="M65.69,72.41l-.71.16.33-.06.62-.15Z" transform="translate(-22.18 -16.41)"/><path class="cls-20" d="M52,72.75h0l.48.08-.92-.16Z" transform="translate(-22.18 -16.41)"/><path class="cls-20" d="M51.47,75.11,50.91,75Z" transform="translate(-22.18 -16.41)"/><path class="cls-20" d="M66.4,72.25h0Z" transform="translate(-22.18 -16.41)"/><path class="cls-20" d="M66.57,72.21l-.16,0h0l.12,0h0l.16,0Z" transform="translate(-22.18 -16.41)"/><path class="cls-20" d="M60.7,75.61l.55-.06-.55.06Z" transform="translate(-22.18 -16.41)"/><polygon class="cls-20" points="41.64 58.8 41.64 58.8 41.64 58.8 41.64 58.8 41.64 58.8"/><polygon class="cls-20" points="41.64 58.8 41.64 58.8 41.64 58.8 41.64 58.8 41.64 58.8"/><path class="cls-20" d="M63.71,75.23h.11Z" transform="translate(-22.18 -16.41)"/><path class="cls-20" d="M66.59,72.21l.19,0h0Z" transform="translate(-22.18 -16.41)"/><path class="cls-20" d="M66.09,74.75l.22-.06-.72.16Z" transform="translate(-22.18 -16.41)"/><path class="cls-20" d="M63.92,72.78h0l.76-.14.2,0,.1,0C64.63,72.64,64.28,72.72,63.92,72.78Z" transform="translate(-22.18 -16.41)"/><path class="cls-20" d="M63.82,75.22h0l.09-2.14a2.81,2.81,0,0,0,0-.29c0,.81-.07,1.62-.1,2.43Z" transform="translate(-22.18 -16.41)"/><path class="cls-20" d="M67.76,74.29,67,74.5Z" transform="translate(-22.18 -16.41)"/><path class="cls-20" d="M39.32,70.22l0,0-.09-.06Z" transform="translate(-22.18 -16.41)"/><path class="cls-20" d="M27.39,54.66c0,.05,0,.09,0,.13l-.09-.29A1,1,0,0,0,27.39,54.66Z" transform="translate(-22.18 -16.41)"/><path class="cls-20" d="M30.33,61.09c.1.15.18.3.28.45l-.21-.35A.61.61,0,0,0,30.33,61.09Z" transform="translate(-22.18 -16.41)"/><path class="cls-20" d="M60.8,73.17c0,.47,0,.47-.1,2.44h0l.09-2.16c0,.41,0,.83,0,1.24s0,.61,0,.92h0C60.73,74.79,60.77,74,60.8,73.17Z" transform="translate(-22.18 -16.41)"/><path class="cls-20" d="M26.39,49.77h0a27.17,27.17,0,0,1-.14-2.87A27.17,27.17,0,0,0,26.39,49.77Z" transform="translate(-22.18 -16.41)"/><path class="cls-20" d="M30.4,61.19l.21.35,0,.05Z" transform="translate(-22.18 -16.41)"/><path class="cls-20" d="M31.5,62.83h0v0l.43.57.15.18-.58-.75Z" transform="translate(-22.18 -16.41)"/><path class="cls-20" d="M68.44,71.68l.14-.05.34-.11-.16,0Z" transform="translate(-22.18 -16.41)"/><polygon class="cls-20" points="4.07 30.45 4.07 30.45 4.07 30.45 4.07 30.45"/><path class="cls-20" d="M67.12,72.06l-.37.1h0l.4-.12Z" transform="translate(-22.18 -16.41)"/><path class="cls-20" d="M62.27,75.45l.56-.09-.64.1Z" transform="translate(-22.18 -16.41)"/><path class="cls-20" d="M67.85,71.86,68,71.8l-.18,0Z" transform="translate(-22.18 -16.41)"/><path class="cls-20" d="M64,75.17l-.22,0h0Z" transform="translate(-22.18 -16.41)"/><polygon class="cls-20" points="47.24 54.93 47.24 54.93 47.24 54.93 47.24 54.93"/><path class="cls-20" d="M29.6,59.84c.06.12.12.24.19.36l.06.1C29.76,60.15,29.68,60,29.6,59.84Z" transform="translate(-22.18 -16.41)"/><path class="cls-20" d="M68,71.8l-.18,0,.18,0h0l.3-.09C68.25,71.74,68.14,71.76,68,71.8Z" transform="translate(-22.18 -16.41)"/><path class="cls-20" d="M47.41,74.08l.22.07L47.26,74Z" transform="translate(-22.18 -16.41)"/><path class="cls-20" d="M29.49,59.65l.3.55c-.07-.12-.13-.24-.19-.36Z" transform="translate(-22.18 -16.41)"/><path class="cls-20" d="M62.94,72.92l.87-.13h0l-.82.13Z" transform="translate(-22.18 -16.41)"/><path class="cls-20" d="M60.8,73.17h0l.57-.06.2,0Z" transform="translate(-22.18 -16.41)"/><path class="cls-20" d="M27.72,55.67h0Z" transform="translate(-22.18 -16.41)"/><path class="cls-20" d="M28.77,58.21c.09.21.18.41.28.61l-.15-.33A2.39,2.39,0,0,1,28.77,58.21Z" transform="translate(-22.18 -16.41)"/><path class="cls-20" d="M26.69,51.79c0,.22.1.44.14.66,0-.16-.07-.31-.1-.47S26.7,51.86,26.69,51.79Z" transform="translate(-22.18 -16.41)"/><path class="cls-20" d="M62.85,72.94l.09,0H63l-.62.09h0Z" transform="translate(-22.18 -16.41)"/><path class="cls-20" d="M28.43,57.48l-.09-.23.06.17,0,.06Z" transform="translate(-22.18 -16.41)"/><path class="cls-20" d="M61.57,73.09h0l-.8.08h0Z" transform="translate(-22.18 -16.41)"/><path class="cls-20" d="M61.37,73.11l.92-.09-.72.07Z" transform="translate(-22.18 -16.41)"/><path class="cls-20" d="M27.3,54.35v0l0,.13.09.29c0,.07.05.14.07.21C27.43,54.78,27.36,54.57,27.3,54.35Z" transform="translate(-22.18 -16.41)"/><path class="cls-20" d="M27.73,55.69h0c0,.11.07.22.1.32.17.44.34.88.52,1.32a.47.47,0,0,1,0,.1l-.06-.17C28.12,56.74,27.92,56.22,27.73,55.69Z" transform="translate(-22.18 -16.41)"/><path class="cls-20" d="M27.4,51.93c0,.81-.07,1.61-.1,2.42v0h0v0C27.33,53.54,27.37,52.74,27.4,51.93Z" transform="translate(-22.18 -16.41)"/><path class="cls-20" d="M27.23,54.1l0,.12c0,.05,0,.1,0,.15v0C27.28,54.27,27.25,54.19,27.23,54.1Z" transform="translate(-22.18 -16.41)"/><path class="cls-20" d="M62.29,73h0l-.69.07h0Z" transform="translate(-22.18 -16.41)"/><path class="cls-20" d="M27.17,53.89s0,.06,0,.09a2.17,2.17,0,0,0,.07.24l0-.12Z" transform="translate(-22.18 -16.41)"/><path class="cls-20" d="M27.68,55.05c0-.15,0-.31,0-.46l.06-1.52c0,.06,0,.11.07.17h0l-.12-.31s0,.1.05.15c0,.8-.07,1.6-.1,2.41h0v0C27.67,55.32,27.67,55.18,27.68,55.05Z" transform="translate(-22.18 -16.41)"/><path class="cls-20" d="M26.67,51.67s0,.08,0,.12,0,.13,0,.19Z" transform="translate(-22.18 -16.41)"/><polygon class="cls-20" points="38.52 59.19 38.52 59.19 38.52 59.19 38.52 59.19 38.52 59.19 38.52 59.19"/><path class="cls-20" d="M28.9,58.49l.15.33a1.09,1.09,0,0,1,.08.15Z" transform="translate(-22.18 -16.41)"/><path class="cls-20" d="M60.64,75.61h0Z" transform="translate(-22.18 -16.41)"/><path class="cls-20" d="M60.6,73.18h.2l-1.22.07.43,0c0,.81-.07,1.62-.1,2.43h0c0-.81.06-1.62.1-2.43Z" transform="translate(-22.18 -16.41)"/><path class="cls-20" d="M60.72,73.17h0Z" transform="translate(-22.18 -16.41)"/><path class="cls-24" d="M80.51,47.25c0-.07,0-.13,0-.2,0-.23,0-.46.06-.67h0c0-.05,0-.11,0-.16a.49.49,0,0,1,0,.12h0c0,.14,0,.28,0,.43s0,.17,0,.26S80.52,47.18,80.51,47.25Z" transform="translate(-22.18 -16.41)"/><path class="cls-24" d="M79.12,65.87,79,66l-.36.3c-.13.11-.27.21-.41.31l-.22.17-.28.22,0,0h0l-.17.11-.15.11a2.31,2.31,0,0,1-.19.14l0,0h0l-.21.14c-.46.31-.93.62-1.41.91l-.2.13h0l0,0h0c-.38.23-.77.44-1.16.66l0,0-.24.12-.24.13-.13.07-.13.06-.33.16h0l-.12.07-.1,0-.06,0h0l-.16.08-.15.06h0l-.34.16-.28.12-.26.11-.18.08-.31.13-.34.14-.36.13h-.05l-.12,0-.16.06,0,0-.15.05-.12,0h-.05l-.07,0h0l-.15.05-.15,0-.2.07-.34.11-.14.05-.09,0-.3.09h0l-.19.06-.54.15-.13,0-.4.12-.19,0h0l-.12,0h0l-.2.06-.26,0h0l-.62.15-.43.08-.2,0-.76.14a2.81,2.81,0,0,1,0,.29h0v0l-.09,2.12h0l.22,0,.54-.1h0l.2,0c.27,0,.54-.12.81-.18l.72-.16h0l.12,0h0L67,74.5l.74-.21.18-.05h0l.53-.18h0l.54-.18.16-.05.1,0,.07,0,.17-.07h0l.32-.12.53-.21c.5-.2,1-.4,1.47-.62l.41-.19.24-.12,0-1.2,0,1.2.1,0,.27-.13q1-.48,1.89-1c.09,0,.18-.09.27-.15l0,0c.64-.38,1.25-.8,1.85-1.22h0l.37-.24.19-.14.24-.18c.48-.36.95-.75,1.41-1.14.18-.15.38-.29.56-.45l.1-2.44c-.18.17-.37.33-.56.49Z" transform="translate(-22.18 -16.41)"/><polygon class="cls-24" points="67.03 28.85 58.46 28.74 67.03 28.85 67.03 28.86 67.03 28.85"/><path class="cls-24" d="M80.64,45.16v0a19.79,19.79,0,0,0-6.59-14.7,24.22,24.22,0,0,0-16.12-6.28c-.76,0-1.51,0-2.25.08h0c-.25,0-.49.06-.74.09-.48.05-1,.09-1.43.17h0c-.29,0-.57.12-.85.18s-.83.16-1.24.26l-.05,0c-.3.07-.58.17-.87.26s-.74.21-1.09.34h0l-.07,0-.28.11c-.5.19-1,.39-1.48.61l-.53.25c-.44.21-.86.43-1.28.67l-.42.23c-.51.3-1,.62-1.48.95l0,0-.08.06-.32.23q-.59.43-1.14.9l-.48.42q-.48.42-.93.87l-.45.47c-.31.33-.61.67-.89,1l-.33.39L39,33q-.5.63-.93,1.29l0,.07a3.21,3.21,0,0,0-.19.31c-.25.4-.48.81-.7,1.23-.09.15-.17.31-.25.47-.22.46-.43.93-.62,1.41l-.06.13c0,.07-.05.13-.07.19-.2.54-.38,1.08-.53,1.64l-.12.47c-.11.45-.2.9-.28,1.36l-.09.53A16.41,16.41,0,0,0,35,43.77c0,.26,0,.51,0,.76h0c0,.2,0,.4,0,.6,0-.22,0-.43.08-.65L35.1,44c.07-.46.17-.91.28-1.36,0-.16.07-.32.12-.47.16-.58.34-1.15.55-1.71,0-.09.07-.17.11-.26.19-.47.39-.94.62-1.4l.24-.48c.22-.41.46-.82.71-1.22l.21-.35c.3-.46.61-.91.94-1.34l.1-.11c.1-.14.22-.26.33-.39.28-.35.58-.69.89-1l.45-.46c.3-.3.61-.59.92-.87l.48-.42c.37-.31.76-.61,1.15-.9l.35-.26.09-.07c.47-.33,1-.64,1.47-.94l.42-.23c.42-.24.85-.46,1.29-.67l.53-.25c.48-.22,1-.43,1.48-.61.11,0,.2-.09.31-.12l.08,0c.36-.12.73-.22,1.1-.33s.58-.19.88-.27.85-.19,1.28-.27.57-.14.86-.19c.49-.08,1-.12,1.47-.17.25,0,.49-.07.74-.09.75-.06,1.51-.09,2.28-.08A24.22,24.22,0,0,1,74,32.88a19.91,19.91,0,0,1,6.58,14V47a2.85,2.85,0,0,1,0,.29s0,0,0,0,0-.16,0-.23,0-.18,0-.26,0-.29,0-.44h0a.49.49,0,0,0,0-.12h0a2.35,2.35,0,0,0,0-.26.06.06,0,0,1,0,0c0-.1,0-.21,0-.32s0-.28,0-.42Z" transform="translate(-22.18 -16.41)"/><path class="cls-24" d="M80.62,45.91v.29h0a1.69,1.69,0,0,1,0-.23v-.14h0a.22.22,0,0,0,0-.08v-.22c0-.12,0-.24,0-.36,0,.14,0,.29,0,.43S80.62,45.8,80.62,45.91Z" transform="translate(-22.18 -16.41)"/><path class="cls-24" d="M27.29,51.54l0-.13-.09-.32-.09,2.18c0,.07,0,.14,0,.21,0-.8.07-1.59.1-2.39,0-.1,0-.2-.07-.3-.08-.37-.17-.73-.24-1.09,0-.12-.05-.23-.07-.34s0-.21-.05-.32c-.1-.56-.18-1.13-.24-1.7h0l0-.47c-.07-.8-.11-1.62-.11-2.44h0c0-.3,0-.6,0-.9l-.09,2.13,0,.3c0,.3,0,.6,0,.9h0v0a27.17,27.17,0,0,0,.14,2.87h0c.06.58.15,1.15.25,1.71l0,.19.06.31c0,.16.07.31.1.47s.11.52.17.78c0,.09.05.18.07.27s.05.23.09.35a.06.06,0,0,0,0,0l.06.21c0,.09.05.17.07.25,0-.81.07-1.61.1-2.42,0,0,0-.1,0-.15S27.31,51.62,27.29,51.54Z" transform="translate(-22.18 -16.41)"/><path class="cls-24" d="M27.66,55.48c0-.81.07-1.61.1-2.41,0,0,0-.1-.05-.15v-.05a.58.58,0,0,1-.05-.14l-.12-.38s0-.08,0-.13,0-.11,0-.16,0-.08,0-.13c0,.81-.07,1.61-.1,2.42.06.22.13.43.2.65,0,0,0,.1.05.16a1.42,1.42,0,0,0,.05.16v0a.58.58,0,0,0,.05.14Z" transform="translate(-22.18 -16.41)"/><path class="cls-24" d="M60.79,73.45l-.09,2.16h0c0-.31,0-.62,0-.92S60.77,73.86,60.79,73.45Z" transform="translate(-22.18 -16.41)"/><path class="cls-24" d="M63.92,72.78h-.11l-.87.13h0l-.09,0-.48.07h-.08l-.92.09-.57.06c0,.81-.07,1.62-.1,2.44l.55-.06h0l.93-.09h0l.64-.1h0l.87-.13h0l.11,0c0-.81.07-1.62.1-2.43Z" transform="translate(-22.18 -16.41)"/><path class="cls-24" d="M60.8,73.17h-.2l-.59,0c0,.81-.07,1.62-.1,2.43,0-.81.06-1.62.1-2.43l-.43,0-.38,0h-.71q-.45,0-.9,0h0c0,.82-.06,1.63-.1,2.44.1-2.43.1-2.43.1-2.44l-.87,0-.41,0-.67,0-.4,0c0,.81-.06,1.62-.1,2.43l.2,0,.2,0,.67,0h.41l.87,0h0c.31,0,.61,0,.91,0h.37l.71,0h.11l.33,0,.59,0h.2c.08-2,.08-2,.1-2.44Z" transform="translate(-22.18 -16.41)"/><path class="cls-24" d="M55,73.13h-.08L53.71,73l-.4,0c0,.8-.07,1.61-.1,2.42,0-.81.07-1.62.1-2.42l-.29,0-.22,0-.31,0L52,72.75l-.44-.08L51,72.56l-.31-.06-.22,0-.27-.07-.48-.11L49,72.08l-.34-.1-.21-.06-.17,0,0,0-.16,0a2.26,2.26,0,0,0,0,.25,2.26,2.26,0,0,1,0-.25l-.33-.1-.22-.07-.15,0-.45-.14-.06,0c-.48-.16-1-.34-1.42-.52l-.07,0c0,.09,0,.19,0,.29l-.09,2.13c0-.81.07-1.62.1-2.42h0L44,70.29,43.29,70l-.22-.1-.11,0-.27-.14-.13-.06-.21-.11a1.77,1.77,0,0,1,0,.24,1.77,1.77,0,0,0,0-.24l-.23-.13L42,69.3l-.16-.1-.65-.36L41,68.75h0l-.48-.29-.62-.38-.16-.1-.26-.17,0,0-.05,0-.32-.21L39,67.48c-.52-.36-1-.73-1.53-1.12l-.18-.14L37,66c-.54-.43-1.06-.87-1.57-1.34h0c-.21-.19-.41-.39-.61-.59l-.15-.15c-.43-.43-.85-.86-1.25-1.31h0c-.43-.47-.83-1-1.22-1.46L32,61l-.43-.57h0c-.29-.4-.57-.8-.84-1.21l-.05-.07-.23-.38c-.17-.27-.34-.54-.5-.81l-.09-.15c-.07-.14-.14-.28-.22-.41l-.4-.74a2.4,2.4,0,0,1-.11-.23L29,56l-.33-.71a2,2,0,0,0-.1-.21l0-.08,0-.1c-.05-.11-.09-.22-.13-.33s-.18-.44-.26-.66l-.13-.33c0-.1-.07-.21-.11-.32s0-.11-.07-.17l-.06,1.52c0,.15,0,.31,0,.46s0,.27,0,.4v0h0l.06.18v0c.19.53.39,1.05.61,1.56l.09.23.06.12s0,.08,0,.11l.24.5a2.39,2.39,0,0,0,.13.28l.23.48,0,.08c.1.2.22.4.32.6l.11.19c.08.15.16.31.25.46l0,.05.45.74a.61.61,0,0,1,.07.1l.24.4,0,0c.26.41.54.81.83,1.2h0l.58.75c.27.34.55.68.83,1l.38.45h0c.24.27.49.53.74.78s.33.36.5.53l.16.14.61.6h0c.51.47,1,.91,1.57,1.34l.2.16.15.12.58.43c.35.26.69.53,1.06.78L39,70l.2.13.33.22.15.1.15.1.63.38c.15.1.31.19.47.28v0l0-.69,0,.69v0l.16.1.63.35.12.06.29.16.17.09.21.11.13.06.26.13.11.05.23.11.19.08c.62.29,1.24.58,1.88.83h0c.48.19,1,.37,1.45.53l.06,0,.36.12.6.19.19.06.16,0,.05,0,.15,0,.19,0,.07,0c.51.14,1,.27,1.52.39h0l.27.06.22.05.31.07h0l.56.11h0l.44.07.47.09h0l.46.07h.07l.29,0,.4,0q.59.07,1.17.12h0l.33,0c0-.81.07-1.62.1-2.43h0Z" transform="translate(-22.18 -16.41)"/><path class="cls-25" d="M80.15,25A33.23,33.23,0,0,0,58,16.42c-17.37-.23-31.52,12.29-31.64,28l8.56.11h0c0-.25,0-.5,0-.76,0-.6.09-1.2.17-1.8,0-.08,0-.17,0-.26A17.14,17.14,0,0,1,35.52,40c0-.09,0-.17.07-.26a17.08,17.08,0,0,1,.54-1.67c0-.06,0-.12.07-.19l0,0c.22-.55.45-1.08.71-1.6l.12-.23c.27-.52.56-1,.87-1.52l.1-.15,0-.07c.32-.49.66-1,1-1.43l.15-.19c.37-.47.76-.91,1.17-1.34l.17-.18c.42-.43.86-.84,1.31-1.24l.18-.15c.47-.39,1-.77,1.45-1.13l.1-.06.08-.06c.51-.36,1-.7,1.57-1l.18-.11c.55-.31,1.11-.61,1.7-.88l.17-.08c.59-.27,1.19-.52,1.81-.74l.08,0,.07,0c.63-.22,1.27-.42,1.93-.59l.08,0,.05,0c.67-.17,1.35-.32,2-.43h.1c.7-.11,1.42-.2,2.14-.26h.06c.74-.06,1.49-.09,2.25-.08a24.22,24.22,0,0,1,16.12,6.28,19.79,19.79,0,0,1,6.59,14.7v0h0c0,.14,0,.28,0,.42,0-.14,0-.29,0-.43h0l8.58.12A27.26,27.26,0,0,0,80.15,25Z" transform="translate(-22.18 -16.41)"/><path class="cls-25" d="M77.34,55.68h0l0,0,.11-.18h0a1.88,1.88,0,0,1-.12.18Z" transform="translate(-22.18 -16.41)"/><path class="cls-25" d="M79.68,50.93l.09-.27h0l-.09.28Z" transform="translate(-22.18 -16.41)"/><path class="cls-25" d="M80.18,49.14h0a.85.85,0,0,1,0-.17.13.13,0,0,1,0-.06h0s0,.05,0,.07Z" transform="translate(-22.18 -16.41)"/><path class="cls-25" d="M79,52.61l.09-.21h0a1.47,1.47,0,0,1-.1.22Z" transform="translate(-22.18 -16.41)"/><path class="cls-25" d="M80.51,47.26h0c0-.07,0-.15,0-.22s0-.18,0-.26c0,.08,0,.17,0,.26S80.52,47.18,80.51,47.26Z" transform="translate(-22.18 -16.41)"/><path class="cls-25" d="M76.24,57.17l.18-.23h0l-.18.23Z" transform="translate(-22.18 -16.41)"/><path class="cls-25" d="M75.2,58.35l-.13.14.13-.14Z" transform="translate(-22.18 -16.41)"/><path class="cls-25" d="M75,58.52l0,0,0,0Z" transform="translate(-22.18 -16.41)"/><path class="cls-25" d="M80.61,46a2.35,2.35,0,0,1,0,.26h0v-.29c0-.11,0-.21,0-.32,0,.11,0,.22,0,.32A.06.06,0,0,0,80.61,46Z" transform="translate(-22.18 -16.41)"/><path class="cls-25" d="M80.59,46.33c0,.15,0,.29,0,.44,0-.15,0-.29,0-.43h0a.49.49,0,0,0,0-.12h0a.49.49,0,0,1,0,.12Z" transform="translate(-22.18 -16.41)"/><polygon class="cls-25" points="4.17 28.01 4.17 28 4.17 28.01 4.17 28.01"/><path class="cls-25" d="M26.5,47.39a.13.13,0,0,0,0-.06h0c0,.11,0,.22,0,.33l0-.24S26.5,47.4,26.5,47.39Z" transform="translate(-22.18 -16.41)"/><path class="cls-25" d="M26.74,49c-.08-.45-.14-.9-.2-1.36.06.46.12.91.2,1.36h0l0,.19v0Z" transform="translate(-22.18 -16.41)"/><path class="cls-25" d="M27.26,51.43c-.06-.22-.11-.45-.16-.67s-.16-.7-.23-1h0c.07.36.16.72.24,1.09,0,.2.1.41.16.62l0,.13v0S27.27,51.45,27.26,51.43Z" transform="translate(-22.18 -16.41)"/><path class="cls-25" d="M32.18,61.14c.39.5.79,1,1.22,1.46-.43-.47-.83-1-1.22-1.46Z" transform="translate(-22.18 -16.41)"/><path class="cls-25" d="M27.61,52.58v0c0,.1.06.21.1.31v.05l.12.31v0Z" transform="translate(-22.18 -16.41)"/><path class="cls-25" d="M28.08,53.91c.07.21.16.42.24.62v0c-.09-.22-.18-.44-.26-.66Z" transform="translate(-22.18 -16.41)"/><path class="cls-25" d="M30,57.91s0,0,0,0h0l0,0c.16.27.33.54.5.81h0Z" transform="translate(-22.18 -16.41)"/><path class="cls-25" d="M29.66,57.33l-.2-.37.21.39Z" transform="translate(-22.18 -16.41)"/><path class="cls-25" d="M31.58,60.36l-.65-.94.67,1Z" transform="translate(-22.18 -16.41)"/><path class="cls-25" d="M30.75,59.15h0v0h0a2.2,2.2,0,0,1,.17.25,2.2,2.2,0,0,0-.17-.25Z" transform="translate(-22.18 -16.41)"/><path class="cls-25" d="M29.24,56.54h0l0,.08h0c0,.12.12.23.18.35-.06-.12-.13-.23-.18-.35A.25.25,0,0,1,29.24,56.54Z" transform="translate(-22.18 -16.41)"/><path class="cls-25" d="M28.64,55.28l-.05-.1v0s0,.08,0,.11L29,56v0C28.85,55.74,28.74,55.51,28.64,55.28Z" transform="translate(-22.18 -16.41)"/><polygon class="cls-25" points="4.17 28 4.17 28 4.17 28 4.17 28 4.17 28 4.17 28"/><path class="cls-26" d="M80.64,45.15h0v.31a1.48,1.48,0,0,0,0,.21v.06h0a.22.22,0,0,1,0,.08h0V46a1.69,1.69,0,0,0,0,.23h0c0,.05,0,.11,0,.16h0c0,.21,0,.44-.06.67,0,.07,0,.13,0,.2h0s0,0,0,0,0,.18,0,.27c0,.27-.09.53-.14.8s0,.37-.09.55h0a0,0,0,0,1,0,0,1.77,1.77,0,0,1,0,.2h0c0,.09-.05.19-.08.28h0c-.06.27-.14.53-.21.79s-.06.23-.09.34l0,.09h0l-.09.27h0c0,.07-.05.13-.07.19a1.12,1.12,0,0,0,0,.13c-.09.26-.19.52-.29.77,0,0,0,.09,0,.13a2.34,2.34,0,0,1-.09.24h0l-.09.21h0a.3.3,0,0,1,0,.08c0,.11-.1.21-.15.32s-.23.49-.35.73h0l-.07.14-.15.28h0l-.31.51c-.13.23-.27.46-.41.68l-.07.11h0l-.06.11-.07.09h0l0,.07c-.12.19-.27.37-.4.56l-.44.6,0,0h0l-.18.23h0c-.2.24-.41.47-.61.7h0c-.14.16-.27.32-.41.47h0l-.16.17h0c-.39.4-.78.78-1.19,1.15h0l-.83.69-.77.59-.46.33c-.44.3-.88.59-1.34.86l-.55.32a24.29,24.29,0,0,1-6.54,2.47,25,25,0,0,1-3.38.5c-.77.06-1.55.09-2.34.08s-1.57-.06-2.34-.14a25,25,0,0,1-3.37-.59A23.44,23.44,0,0,1,49.26,64a24.44,24.44,0,0,1-3.93-1.87c-.46-.28-.91-.57-1.34-.87a22.9,22.9,0,0,1-2.48-2c-.51-.48-1-1-1.46-1.49l-.34-.39c-.23-.27-.45-.53-.66-.81s-.41-.55-.61-.83a19.64,19.64,0,0,1-2.69-5.52l-.15-.5A19.23,19.23,0,0,1,35,46.65c-.05-.45-.07-.91-.09-1.37v-.15c0-.2,0-.4,0-.6h0l-8.56-.11h0q0,.61,0,1.23c0,.4,0,.81.08,1.21l0,.47h0a.13.13,0,0,1,0,.06c.07.61.16,1.22.27,1.82v0s0,.08,0,.13.05.22.07.34h0c0,.1,0,.2.06.3.11.48.21,1,.34,1.44,0,0,0,0,0,0v0c0,.08.05.16.07.24s.05.19.08.28,0,.11,0,.16,0,.09,0,.13,0,.14.07.21v0l.21.63v0h0c0,.11.07.22.11.32l.13.33v0c.07.21.16.42.24.62v0c0,.11.08.22.13.33l0,.1.09.18v0c.09.2.19.39.28.59L29,56v0l.2.4a1.09,1.09,0,0,0,.08.15h0c.11.22.23.44.35.66a.83.83,0,0,1,.07.13v0c.08.13.15.27.22.41l.07.1h0c.15.27.31.52.47.78l0,.07h0l.23.38,0,0h0c.26.4.53.8.82,1.19v0l0,0h0L32,61l.15.18h0c.39.5.79,1,1.22,1.46.63.71,1.31,1.4,2,2.05h0q.86.78,1.77,1.5l.08.07.18.14c.15.12.32.23.47.34.44.33.88.66,1.34,1l.12.09.05,0,0,0a1.05,1.05,0,0,0,.11.07c.71.46,1.44.9,2.19,1.31h0l.16.1.16.07.06,0c.43.22.86.43,1.3.63l.49.25,1.39.59h0c.63.24,1.27.47,1.91.68l.09,0,.15,0,.22.07.15,0,.73.22h0l.34.1.75.19.48.11.8.18.56.11.92.16.31,0,.15,0c.64.09,1.3.17,1.95.23H55l.23,0h.24c.71,0,1.43.09,2.15.1.43,0,.86,0,1.29,0h.33l.38,0,1.22-.07h0l.8-.08.69-.07h.08l.62-.09.82-.13h.11c.6-.1,1.18-.23,1.77-.37l.24,0h0l.26,0,.2-.06h0l.16,0,.55-.15.06,0,.13,0,.54-.15h0l.18,0,.72-.23.16,0,.2-.07.15,0,0,0,.15-.06.7-.26h0l.36-.13.34-.14.31-.13.38-.16.06,0,.28-.12.34-.16h0l.64-.31h0l.33-.16.13-.06.13-.07.24-.13.24-.12,0,0c.39-.22.78-.43,1.16-.66h0l0,0h0l0,0c.83-.49,1.63-1,2.4-1.58h0l0,0,.28-.22L79,66l.14-.11.18-.14c.19-.16.38-.32.56-.49l.53-.48a28.36,28.36,0,0,0,2.46-2.57c.3-.36.6-.73.88-1.1a26.92,26.92,0,0,0,2.62-4.16c.11-.21.21-.42.31-.63.31-.64.59-1.28.84-1.94A26.21,26.21,0,0,0,89,48.17c0-.15,0-.31,0-.46s0-.53.07-.8c0-.06,0-.12,0-.18,0-.48,0-1,.06-1.45h0Z" transform="translate(-22.18 -16.41)"/><g class="cls-3"><path class="cls-27" d="M55.48,79.85a5.15,5.15,0,0,1,4.65.05c1.27.76,1.24,2-.07,2.69a5.12,5.12,0,0,1-4.65,0C54.15,81.79,54.18,80.59,55.48,79.85Z" transform="translate(-22.18 -16.41)"/><path class="cls-27" d="M61.06,81.23a1.62,1.62,0,0,0-.93-1.33,5.15,5.15,0,0,0-4.65-.05l0-5.86a5.12,5.12,0,0,1,4.65.05,1.62,1.62,0,0,1,.93,1.33C61.07,77.13,61.07,79.47,61.06,81.23Z" transform="translate(-22.18 -16.41)"/><path class="cls-27" d="M54.5,75.35a1.63,1.63,0,0,1,1-1.36l0,5.86a1.7,1.7,0,0,0-1,1.37C54.49,79.46,54.5,77.11,54.5,75.35Z" transform="translate(-22.18 -16.41)"/><path class="cls-27" d="M54.48,81.22l0-5.87a1.62,1.62,0,0,0,.93,1.33,5.12,5.12,0,0,0,4.65,0,1.67,1.67,0,0,0,1-1.36l0,5.86a1.63,1.63,0,0,1-1,1.36,5.12,5.12,0,0,1-4.65,0A1.62,1.62,0,0,1,54.48,81.22Z" transform="translate(-22.18 -16.41)"/><path class="cls-27" d="M55.5,74a5.12,5.12,0,0,1,4.65.05c1.26.75,1.23,2-.07,2.69a5.12,5.12,0,0,1-4.65,0C54.17,75.92,54.19,74.72,55.5,74Z" transform="translate(-22.18 -16.41)"/></g><g class="cls-3"><path class="cls-28" d="M57.72,98.83a8.06,8.06,0,0,1-3.54-6.29,8,8,0,0,1,7.21.07,2.51,2.51,0,0,1,1.44,2.07A5.07,5.07,0,0,1,61.62,98a4.64,4.64,0,0,1-1.47,1.18,2.66,2.66,0,0,1-1.18,0h0a.49.49,0,0,0-.19-.15,1,1,0,0,0-.25-.08,3.13,3.13,0,0,0-.66-.1A.75.75,0,0,1,57.72,98.83Z" transform="translate(-22.18 -16.41)"/><path class="cls-28" d="M55.19,99.08a5,5,0,0,1-2-2.12,4.8,4.8,0,0,1-.42-1.18,4.27,4.27,0,0,1-.12-1.13,2.54,2.54,0,0,1,1.54-2.11,8.06,8.06,0,0,0,3.54,6.29,2.15,2.15,0,0,1,1.2.27s0,.06.08.06a3.27,3.27,0,0,0,.62.07,1.18,1.18,0,0,0,.62-.12A5.06,5.06,0,0,1,55.19,99.08Z" transform="translate(-22.18 -16.41)"/><path class="cls-28" d="M60.24,99.11a5.08,5.08,0,0,1-5.05,0,5,5,0,0,1-2.55-4.43,2.47,2.47,0,0,0,1.44,2.06,7.93,7.93,0,0,0,7.21.08,2.57,2.57,0,0,0,1.54-2.11h0a5.12,5.12,0,0,1-.69,2.56A5.17,5.17,0,0,1,60.24,99.11Z" transform="translate(-22.18 -16.41)"/><path class="cls-28" d="M54.14,92.52a8,8,0,0,1,7.29.07c2,1.19,1.93,3.08-.11,4.22A8,8,0,0,1,54,96.74C52.06,95.55,52.1,93.66,54.14,92.52Zm0,0c-2,1.13-2.06,3-.1,4.17a7.93,7.93,0,0,0,7.21.08c2-1.14,2.06-3,.1-4.18a8,8,0,0,0-7.21-.07" transform="translate(-22.18 -16.41)"/><path class="cls-28" d="M62.87,94.44a2.69,2.69,0,0,0-1.44-1.85,8,8,0,0,0-7.29-.07l1.34-12.67a5.15,5.15,0,0,1,4.65.05,1.7,1.7,0,0,1,.92,1.18Q62,87.76,62.87,94.44Z" transform="translate(-22.18 -16.41)"/><path class="cls-28" d="M54.5,81.06a1.77,1.77,0,0,1,1-1.21L54.14,92.52a2.73,2.73,0,0,0-1.54,1.89Q53.54,87.73,54.5,81.06Z" transform="translate(-22.18 -16.41)"/><path class="cls-28" d="M52.6,94.41q.94-6.68,1.9-13.35a1.54,1.54,0,0,0,.91,1.49,5.12,5.12,0,0,0,4.65,0,1.55,1.55,0,0,0,1-1.51q.91,6.67,1.82,13.36a2.46,2.46,0,0,1-1.55,2.37A8,8,0,0,1,54,96.74,2.42,2.42,0,0,1,52.6,94.41Z" transform="translate(-22.18 -16.41)"/><path class="cls-28" d="M55.48,79.85a5.15,5.15,0,0,1,4.65.05c1.27.76,1.24,2-.07,2.69a5.12,5.12,0,0,1-4.65,0C54.15,81.79,54.18,80.59,55.48,79.85Z" transform="translate(-22.18 -16.41)"/></g></g></g></svg>