<?xml version="1.0" encoding="UTF-8"?>
<!-- Generator: Adobe Illustrator 19.1.0, SVG Export Plug-In . SVG Version: 6.00 Build 0)  -->
<svg xmlns="http://www.w3.org/2000/svg" xmlns:xlink="http://www.w3.org/1999/xlink" xmlns:dc="http://purl.org/dc/elements/1.1/" xmlns:cc="http://creativecommons.org/ns#" xmlns:rdf="http://www.w3.org/1999/02/22-rdf-syntax-ns#" version="1.1" id="DESIGNS" x="0px" y="0px" width="32px" height="32px" viewBox="0 0 32 32" style="enable-background:new 0 0 32 32;" xml:space="preserve">
<title property="dc:title">to select</title><desc property="dc:description">An icon for "select" from the Isometric series on to [icon]. Downloaded from http://www.toicon.com/icons/isometric_select by 60.241.40.50 on 2019-02-21. Licensed CC-BY, see http://toicon.com/license/ for details.</desc>
<g>
	<polygon class="isometric_dertien" points="28,12.819 8,8.938 8,12.453 14.722,24 18.003,19.281 25.49,23.569 27.15,22.611    27.15,19.095 23.972,17.261 28,16.334  " style="fill: #225B49;"/>
	<polygon class="isometric_tien" points="28,12.819 8,8.938 14.722,20.485 18.003,15.765 25.49,20.053 27.15,19.095 19.618,14.747     " style="fill: #7BD6C4;"/>
	<path class="isometric_twaalf" d="M25.5,20.047v3.521h-0.01l-7.427-4.288v-3.515l7.427,4.288L25.5,20.047z M14.687,20.425L8,8.938   v3.516L14.687,24V20.425z" style="fill: #569080;"/>
	<path class="isometric_acht" d="M8,12.453V8.938l10.213,1.982C17.278,7.507,9.98,6.091,5.727,8.546   c-4.215,2.433-1.883,6.691,4.194,7.206L8,12.453z" style="fill: #F05A28;"/>
</g>
<metadata><work rdf:about=""><format>image/svg+xml</format><type rdf:resource="http://purl.org/dc/dcmitype/StillImage"/><license rdf:resource="http://creativecommons.org/licenses/by/4.0/"/><attributionname>Jo Szczepanska</attributionname><attributionurl>http://www.toicon.com/icons/isometric_select</attributionurl></work></metadata></svg>
