<?xml version="1.0" encoding="UTF-8"?>
<!-- Generator: Adobe Illustrator 19.1.0, SVG Export Plug-In . SVG Version: 6.00 Build 0)  -->
<svg xmlns="http://www.w3.org/2000/svg" xmlns:xlink="http://www.w3.org/1999/xlink" xmlns:dc="http://purl.org/dc/elements/1.1/" xmlns:cc="http://creativecommons.org/ns#" xmlns:rdf="http://www.w3.org/1999/02/22-rdf-syntax-ns#" version="1.1" id="DESIGNS" x="0px" y="0px" width="32px" height="32px" viewBox="0 0 32 32" style="enable-background:new 0 0 32 32;" xml:space="preserve">
<title property="dc:title">to point</title><desc property="dc:description">An icon for "point" from the Isometric series on to [icon]. Downloaded from http://www.toicon.com/icons/isometric_point by 60.241.40.50 on 2019-02-21. Licensed CC-BY, see http://toicon.com/license/ for details.</desc>
<g>
	<path class="isometric_zeven" d="M8.839,23.414c-2.165-2.766-2.815-6.578-1.092-7.987l0,0l-1.782,1.029   C5.355,16.955,5,17.862,5,19.057c0,1.788,0.83,3.816,2.058,5.385c0.637,0.813,1.374,1.511,2.172,1.971   c1.038,0.599,2,0.731,2.736,0.434l1.758-1.029l0,0C11.993,26.516,10.014,24.914,8.839,23.414z" style="fill: #FF7344;"/>
	<path class="isometric_elf" d="M23.827,6.143L7.747,15.427c-1.723,1.409-1.073,5.221,1.092,7.987   c1.175,1.501,3.153,3.102,4.884,2.405l9.589-5.523c0.957-0.59-0.525-3.149-1.499-2.596l0.849-0.493   c0.957-0.59-0.525-3.149-1.499-2.596l0.881-0.511c0.957-0.59-0.525-3.149-1.499-2.596l4.781-2.762   C27.045,7.749,25.546,5.15,23.827,6.143z M18.876,22.848c-0.001,0-0.002,0.001-0.002,0.001   C18.875,22.848,18.875,22.848,18.876,22.848z" style="fill: #72C0AB;"/>
	<path class="isometric_dertien" d="M20.546,11.504c0.974-0.553,2.456,2.006,1.499,2.596l-4.276,2.469   c-1.72,0.993-3.218-1.606-1.5-2.598L20.546,11.504z M16.888,17.078c-1.718,0.992-0.22,3.591,1.5,2.598l4.276-2.469   c0.957-0.59-0.525-3.149-1.499-2.596L16.888,17.078z M17.537,20.167c-1.718,0.992-0.22,3.591,1.5,2.598l4.276-2.469   c0.957-0.59-0.525-3.149-1.499-2.596L17.537,20.167z" style="fill: #225B49;"/>
	<path class="isometric_tien" d="M17.48,16.058c1.051-0.431,0.357-2.58-0.919-1.576C17.652,14.035,18.208,15.485,17.48,16.058z" style="fill: #7BD6C4;"/>
	<path class="isometric_elf" d="M17.179,17.589c1.118-0.879,2.234,1.037,0.919,1.576C18.953,18.492,18.191,17.175,17.179,17.589z    M18.748,22.254c1.315-0.54,0.199-2.456-0.919-1.576C18.84,20.264,19.603,21.581,18.748,22.254z" style="fill: #72C0AB;"/>
	<path class="isometric_twaalf" d="M16.505,19.358l-1.543,5.759l4.075-2.353c-1.723,0.994-3.216-1.607-1.5-2.598l1.903-1.099   l-1.052,0.608C17.754,20.041,16.967,19.891,16.505,19.358z" style="fill: #569080;"/>
</g>
<metadata><work rdf:about=""><format>image/svg+xml</format><type rdf:resource="http://purl.org/dc/dcmitype/StillImage"/><license rdf:resource="http://creativecommons.org/licenses/by/4.0/"/><attributionname>Jo Szczepanska</attributionname><attributionurl>http://www.toicon.com/icons/isometric_point</attributionurl></work></metadata></svg>
