<?xml version="1.0" encoding="UTF-8"?>
<!-- Generator: Adobe Illustrator 19.1.0, SVG Export Plug-In . SVG Version: 6.00 Build 0)  -->
<svg xmlns="http://www.w3.org/2000/svg" xmlns:xlink="http://www.w3.org/1999/xlink" xmlns:dc="http://purl.org/dc/elements/1.1/" xmlns:cc="http://creativecommons.org/ns#" xmlns:rdf="http://www.w3.org/1999/02/22-rdf-syntax-ns#" version="1.1" id="DESIGNS" x="0px" y="0px" width="32px" height="32px" viewBox="0 0 32 32" style="enable-background:new 0 0 32 32;" xml:space="preserve">
<title property="dc:title">to ask</title><desc property="dc:description">An icon for "ask" from the Isometric series on to [icon]. Downloaded from http://www.toicon.com/icons/isometric_ask by 60.241.40.50 on 2019-02-21. Licensed CC-BY, see http://toicon.com/license/ for details.</desc>
<g>
	<path class="isometric_dertien" d="M13.608,7.795c2.468,1.425,5.136,4.66,5.136,7.924c0,4.148-3.77,2.579-3.77,4.83v0.911   l-2.003-1.157l-1.567,0.891L15,23.206V27l4-2.421v-3.794l-1.337-0.854l1.567-0.891v-0.911c0-2.251,3.77-0.682,3.77-4.83   c0-3.264-2.668-6.499-5.136-7.924c-2.955-1.706-4.608-0.561-4.608-0.561L9.128,7.162c0.426-0.216,1.904-0.76,4.246,0.503   L13.608,7.795z" style="fill: #225B49;"/>
	<path class="isometric_tien" d="M11.404,21.195L15,23.206V27l-3.596-2.011V21.195z M11.316,19.348l3.658,2.112v-0.911   c0-2.251,3.77-0.682,3.77-4.83c0-3.264-2.668-6.499-5.136-7.924C10.653,6.089,9,7.235,9,7.235l2.116,4.182   c1.849-0.874,3.66,1.176,3.66,2.518c0,2.125-3.461,0.734-3.461,4.149V19.348z" style="fill: #7BD6C4;"/>
</g>
<metadata><work rdf:about=""><format>image/svg+xml</format><type rdf:resource="http://purl.org/dc/dcmitype/StillImage"/><license rdf:resource="http://creativecommons.org/licenses/by/4.0/"/><attributionname>Jo Szczepanska</attributionname><attributionurl>http://www.toicon.com/icons/isometric_ask</attributionurl></work></metadata></svg>
