<?xml version="1.0" encoding="UTF-8"?>
<!-- Generator: Adobe Illustrator 19.1.0, SVG Export Plug-In . SVG Version: 6.00 Build 0)  -->
<svg xmlns="http://www.w3.org/2000/svg" xmlns:xlink="http://www.w3.org/1999/xlink" xmlns:dc="http://purl.org/dc/elements/1.1/" xmlns:cc="http://creativecommons.org/ns#" xmlns:rdf="http://www.w3.org/1999/02/22-rdf-syntax-ns#" version="1.1" id="DESIGNS" x="0px" y="0px" width="32px" height="32px" viewBox="0 0 32 32" style="enable-background:new 0 0 32 32;" xml:space="preserve">
<title property="dc:title">to sprout</title><desc property="dc:description">An icon for "sprout" from the Isometric series on to [icon]. Downloaded from http://www.toicon.com/icons/isometric_sprout by 220.244.131.92 on 2019-02-26. Licensed CC-BY, see http://toicon.com/license/ for details.</desc>
<g>
	<path class="isometric_acht" d="M27.979,15.297c0.079-1.968-1.309-3.916-3.775-5.286c-4.688-2.604-12.485-2.55-16.985,0.275   c-2.169,1.361-3.349,3.206-3.206,5.068l0.026,4.175c-0.541,6.385,12.742,9.831,20.459,5.375c2.193-1.266,3.347-2.905,3.466-4.568   C28.027,19.47,27.991,16.445,27.979,15.297z" style="fill: #F05A28;"/>
	<path class="isometric_dertien" d="M23.267,12.884c-4.037-2.331-10.529-2.366-14.6-0.105c-1.298,0.674-2.604,1.859-3.028,3.305   c0.348,1.2,1.317,2.353,2.924,3.281c4.086,2.359,10.69,2.371,14.75,0.027c1.578-0.911,2.531-2.044,2.877-3.227   C25.779,14.747,24.552,13.625,23.267,12.884z" style="fill: #225B49;"/>
	<path class="isometric_vijf" d="M7.219,10.285c-4.038,2.535-4.653,6.745,0.328,9.621c4.695,2.711,12.284,2.725,16.951,0.031   c5.126-2.96,4.227-7.414-0.294-9.926C19.516,7.406,11.719,7.461,7.219,10.285z M23.313,19.391   c-4.06,2.344-10.664,2.332-14.75-0.027c-4.086-2.359-4.107-6.172-0.046-8.516c3.929-2.268,10.559-2.393,14.75,0.027   C27.353,13.234,27.374,17.047,23.313,19.391z" style="fill: #F29227;"/>
	<path class="isometric_elf" d="M16.871,8.651c-0.072-1.224-1.015-2.721-2.196-3.429C13.433,4.477,11.323,4,11.323,4l-0.93,0.231   c0,0,2.11,0.477,3.352,1.221c1.242,0.745,2.232,2.365,2.211,3.619c-0.012,0.738-0.377,1.175-0.925,1.266   c0.22-0.037,0.349-0.077,0.584-0.145v5.174c-0.016,0.492,1.296,0.492,1.269,0C16.884,15.366,16.874,8.635,16.871,8.651z" style="fill: #72C0AB;"/>
	<path class="isometric_tien" d="M13.669,9.993c-1.242-0.745-3.276-5.762-3.276-5.762s2.11,0.477,3.352,1.221   s2.232,2.365,2.211,3.619S14.911,10.738,13.669,9.993z" style="fill: #7BD6C4;"/>
</g>
<metadata><work rdf:about=""><format>image/svg+xml</format><type rdf:resource="http://purl.org/dc/dcmitype/StillImage"/><license rdf:resource="http://creativecommons.org/licenses/by/4.0/"/><attributionname>Jo Szczepanska</attributionname><attributionurl>http://www.toicon.com/icons/isometric_sprout</attributionurl></work></metadata></svg>
