<svg xmlns="http://www.w3.org/2000/svg" xmlns:xlink="http://www.w3.org/1999/xlink" viewBox="0 0 90.14 55.36"><defs><style>.cls-1{isolation:isolate;}.cls-2{fill:none;}.cls-3,.cls-5{opacity:0.15;mix-blend-mode:multiply;}.cls-3{fill:url(#Degradado_sin_nombre_3);}.cls-4{opacity:0.5;}.cls-5{fill:url(#linear-gradient);}.cls-6{fill:#6f4e3b;}.cls-7{fill:#725240;}.cls-8{fill:#94684e;}.cls-9{fill:#dedcd9;}.cls-10{fill:#a6a3a1;}.cls-11{fill:#bcd676;}.cls-12{fill:#7d7d77;}.cls-13{fill:#a6a69f;}.cls-14{fill:#a9a9a5;}.cls-15{fill:#c1c1bc;}</style><linearGradient id="Degradado_sin_nombre_3" x1="66.93" y1="49.66" x2="50.5" y2="21.78" gradientUnits="userSpaceOnUse"><stop offset="0" stop-opacity="0"/><stop offset="0.01" stop-opacity="0.02"/><stop offset="1"/></linearGradient><linearGradient id="linear-gradient" x1="66.93" y1="49.66" x2="50.5" y2="21.78" gradientUnits="userSpaceOnUse"><stop offset="0" stop-opacity="0"/><stop offset="1"/></linearGradient></defs><title>skill-survey</title><g class="cls-1"><g id="Layer_1" data-name="Layer 1"><polygon class="cls-2" points="16.88 7.79 16.87 7.79 16.87 7.79 16.87 7.79 16.87 7.79 16.87 7.87 16.88 7.87 16.88 7.87 16.88 7.87 16.88 7.86 16.88 7.79"/><polygon class="cls-2" points="16.73 7.72 16.72 7.72 16.72 7.73 16.72 7.72 16.72 7.73 16.72 7.8 16.73 7.8 16.73 7.8 16.74 7.8 16.73 7.79 16.73 7.72"/><polygon class="cls-3" points="64.3 19.7 29.45 39.95 55.41 55.36 90.14 35.14 64.3 19.7"/><g class="cls-4"><polygon class="cls-5" points="64.3 19.7 29.45 39.95 55.41 55.36 90.14 35.14 64.3 19.7"/></g><g class="cls-1"><path class="cls-6" d="M90.05,62.55v1.63a1.49,1.49,0,0,1-.87,1.22V63.77A1.51,1.51,0,0,0,90.05,62.55Z" transform="translate(-23.95 -44.04)"/><path class="cls-6" d="M24,66.21V64.58a1.5,1.5,0,0,0,.88,1.23v1.63A1.51,1.51,0,0,1,24,66.21Z" transform="translate(-23.95 -44.04)"/><polygon class="cls-7" points="33.22 29.28 32.75 29.55 32.48 29.4 33.22 29.28"/><path class="cls-8" d="M89.16,61.31a1.3,1.3,0,0,1,0,2.46L57.46,82.2a4.66,4.66,0,0,1-4.24,0L24.84,65.81a1.29,1.29,0,0,1,0-2.45L56.54,44.92a4.69,4.69,0,0,1,4.24,0Z" transform="translate(-23.95 -44.04)"/><path class="cls-9" d="M32.5,66.15l-.08-.06Zm-.12-.08-.06,0Zm-.07,0L32.24,66Zm.31.21-.1-.07Zm-.46-.35s0,0,.05.05S32.17,65.9,32.16,65.88Zm-.42-.8s0,0,0,0S31.75,65.09,31.74,65.08Zm0,.08a.06.06,0,0,1,0,0A.06.06,0,0,0,31.75,65.16Zm0,.08v0Zm0,.09v0Zm0,.08a.08.08,0,0,0,0,0A.08.08,0,0,1,31.83,65.41Zm0,.08,0,.05Zm.05.08,0,0Zm.05.08,0,0Zm.06.08,0,0Zm.06.07.05,0ZM31.74,65v0Z" transform="translate(-23.95 -44.04)"/><polygon class="cls-6" points="65.22 19.72 65.22 21.35 33.5 39.78 33.51 38.15 65.22 19.72"/><polygon class="cls-6" points="29.27 38.15 29.27 39.78 0.89 23.4 0.89 21.77 29.27 38.15"/><path class="cls-6" d="M57.46,82.2v1.63a4.66,4.66,0,0,1-4.24,0V82.2A4.66,4.66,0,0,0,57.46,82.2Z" transform="translate(-23.95 -44.04)"/></g><path class="cls-9" d="M81.88,60.37,62.23,49A4.68,4.68,0,0,0,58,49L32.62,63.77a1.3,1.3,0,0,0,0,2.46l14.9,8.6,1.72-3.76a1.87,1.87,0,0,1,.82-.8,3.68,3.68,0,0,1,.49-.23l2.53-.17,13.18,2L81.9,62.83A1.3,1.3,0,0,0,81.88,60.37Z" transform="translate(-23.95 -44.04)"/><path class="cls-10" d="M66.25,71.91,47.52,74.83l1.72-3.76a1.87,1.87,0,0,1,.82-.8,4.63,4.63,0,0,1,2.85-.43l.17,0Z" transform="translate(-23.95 -44.04)"/><polygon class="cls-11" points="45.91 17.18 46.33 20.71 25.56 21.5 24.24 14.08 30.48 13.8 31.31 17.74 45.91 17.18"/><g class="cls-1"><path class="cls-12" d="M76.4,47.23l.83.83a1.42,1.42,0,0,0-.35-.29,2.1,2.1,0,0,0-2.6.77,1.72,1.72,0,0,0-.08,2.13l-.83-.83a1.72,1.72,0,0,1,.08-2.13,2.09,2.09,0,0,1,2.6-.76A1.39,1.39,0,0,1,76.4,47.23Z" transform="translate(-23.95 -44.04)"/><path class="cls-12" d="M78.67,45.27l.7.82a4.3,4.3,0,0,1-.2,5.35l-.69-.83A4.3,4.3,0,0,0,78.67,45.27Z" transform="translate(-23.95 -44.04)"/><polygon class="cls-12" points="54.52 6.57 55.22 7.39 52.89 10.58 52.19 9.75 54.52 6.57"/><path class="cls-13" d="M78.48,50.61,76.15,53.8,69,49.65l2.33-3.18c1.61-2.2,4.52-3.06,6.5-1.92S80.09,48.41,78.48,50.61Zm-4.76-.48a2.09,2.09,0,0,0,2.6-.76A1.61,1.61,0,0,0,76.05,47a2.09,2.09,0,0,0-2.6.76,1.6,1.6,0,0,0,.27,2.42" transform="translate(-23.95 -44.04)"/><path class="cls-14" d="M82.22,59a.25.25,0,0,1,0-.11.51.51,0,0,0,0-.1l-.5-.58.5.58s0-.08,0-.16,0,0,0-.1l0-.11s0,0,0-.15,0,0,0-.09L82,58l0-.09,0-.09-.05-.08,0-.08,0-.08-.07-.08L81,56.7l.07.09h0a.23.23,0,0,1,0,.07l0,.08h0l0,.08.05.09a.64.64,0,0,0,0,.1c0,.06,0,.09,0,.12s0,.08,0,.09h0a1.45,1.45,0,0,1,0,.16.27.27,0,0,1,0,.1.27.27,0,0,1,0,.1h0c0,.08,0,.12,0,.16h0a.59.59,0,0,1,0,.11h0a.51.51,0,0,1,0,.1v.11a.8.8,0,0,1,0,.11.28.28,0,0,1,0,.11.88.88,0,0,1,0,.17c0,.06,0,.08,0,.1a1.1,1.1,0,0,1,0,.11c0,.06,0,.08,0,.11a.43.43,0,0,0,0,.1l.68.8a.53.53,0,0,0,0-.11s0,0,0-.1,0,0,0-.11,0,0,0-.1a1,1,0,0,0,0-.17.31.31,0,0,0,0-.11.66.66,0,0,1,0-.11Z" transform="translate(-23.95 -44.04)"/><path class="cls-15" d="M63.25,48.62a3.08,3.08,0,0,0-3.43,1S60.18,49.11,61,48a3.09,3.09,0,0,1,3.44-1L69,49.65l7.18,4.15,4.54,2.62.07,0,.07,0,.06.06s0,0,.06.06l.07.07.07.09a.23.23,0,0,1,0,.07l0,.08,0,.08.05.09a.64.64,0,0,0,0,.1c0,.06,0,.09,0,.12s0,.08,0,.09a1.45,1.45,0,0,1,0,.16.27.27,0,0,1,0,.1.27.27,0,0,1,0,.1c0,.08,0,.12,0,.16a.59.59,0,0,1,0,.11.51.51,0,0,1,0,.1v.11a.8.8,0,0,1,0,.11.28.28,0,0,1,0,.11.88.88,0,0,1,0,.17c0,.06,0,.08,0,.1a1.1,1.1,0,0,1,0,.11c0,.06,0,.08,0,.11a.43.43,0,0,0,0,.1Z" transform="translate(-23.95 -44.04)"/><path class="cls-12" d="M81.37,59.08l.69.8L82,60a.78.78,0,0,0,0,.12l-.06.11-.07.11-.69-.8.07-.11.06-.11s0-.05,0-.11Z" transform="translate(-23.95 -44.04)"/><path class="cls-12" d="M81.16,59.49l.69.8-.07.11-.69-.79Z" transform="translate(-23.95 -44.04)"/><path class="cls-12" d="M81.09,59.61l.69.79-1.4,1.91-.69-.8Z" transform="translate(-23.95 -44.04)"/><path class="cls-13" d="M81.16,59.49l-.07.12-1.4,1.9-20.1-11.6.23-.32a3.08,3.08,0,0,1,3.43-1L81.37,59.08l0,.08c0,.06,0,.08,0,.11l-.06.11Z" transform="translate(-23.95 -44.04)"/><polygon class="cls-13" points="55.74 17.47 56.42 18.27 36.33 6.67 35.63 5.86 55.74 17.47"/></g></g></g></svg>